<svg xmlns="http://www.w3.org/2000/svg" viewBox="0 0 167.1 167.1"><defs><style>.cls-1{fill:#2e6e4d;}.cls-2{fill:#fff;}</style></defs><title>dashboard_1</title><g id="Capa_2" data-name="Capa 2"><g id="Capa_1-2" data-name="Capa 1"><circle class="cls-1" cx="83.6" cy="83.6" r="83.6"/><path class="cls-2" d="M120.4,87.3V58.4a10.3,10.3,0,1,0-11.8-10.2H37.8v59H82.2a23.6,23.6,0,1,0,38.3-19.9ZM119,40.8a7.4,7.4,0,1,1-7.4,7.4A7.4,7.4,0,0,1,119,40.8ZM40.8,51.1h68.3a10.3,10.3,0,0,0,1.6,3.2l-9,9a4.3,4.3,0,0,0-3.8,0l-3-3a4.4,4.4,0,0,0,.4-1.9,4.4,4.4,0,1,0-8.8,0,4.4,4.4,0,0,0,.4,1.9l-7.4,7.4a4.4,4.4,0,0,0-1.9-.4,4.4,4.4,0,1,0,4.4,4.4,4.4,4.4,0,0,0-.4-1.9L89,62.5a4.3,4.3,0,0,0,3.8,0l3,3a4.4,4.4,0,0,0-.4,1.9,4.4,4.4,0,1,0,8.8,0,4.4,4.4,0,0,0-.4-1.9l9-9a10.3,10.3,0,0,0,4.7,1.9V85.3A23.5,23.5,0,0,0,88,90.1V83.6H79.1v17.7h3.4a23.7,23.7,0,0,0-.4,2.9H40.8Zm59,14.7a1.5,1.5,0,1,1-1.5,1.5A1.5,1.5,0,0,1,99.8,65.9ZM89.5,58.5A1.5,1.5,0,1,1,90.9,60,1.5,1.5,0,0,1,89.5,58.5ZM79.1,71.8a1.5,1.5,0,1,1-1.5-1.5A1.5,1.5,0,0,1,79.1,71.8Zm26.5,45.7a11.8,11.8,0,1,1,11.8-11.8A11.8,11.8,0,0,1,105.7,117.5ZM85,94.3a23.4,23.4,0,0,0-1.8,4H82.1V86.5H85Zm19.2-9.2V91a14.7,14.7,0,0,0-12,20.7l-5.1,3a20.6,20.6,0,0,1,17.1-29.6Zm1.5,41.2a20.6,20.6,0,0,1-17.1-9.1l5.1-3a14.7,14.7,0,0,0,23.9,0l5.1,3A20.6,20.6,0,0,1,105.7,126.3Zm18.5-11.6-5.1-3a14.7,14.7,0,0,0-12-20.7V85.1a20.6,20.6,0,0,1,17.1,29.6Z"/><path class="cls-2" d="M105.7,96.8a8.8,8.8,0,1,0,8.8,8.8A8.9,8.9,0,0,0,105.7,96.8Zm0,14.7a5.9,5.9,0,1,1,5.9-5.9A5.9,5.9,0,0,1,105.7,111.6Z"/><rect class="cls-2" x="43.7" y="54.1" width="2.9" height="2.95"/><rect class="cls-2" x="49.6" y="54.1" width="20.6" height="2.95"/><rect class="cls-2" x="43.7" y="60" width="2.9" height="2.95"/><rect class="cls-2" x="49.6" y="60" width="20.6" height="2.95"/><rect class="cls-2" x="43.7" y="65.9" width="2.9" height="2.95"/><rect class="cls-2" x="49.6" y="65.9" width="20.6" height="2.95"/><rect class="cls-2" x="43.7" y="71.8" width="2.9" height="2.95"/><rect class="cls-2" x="49.6" y="71.8" width="20.6" height="2.95"/><path class="cls-2" d="M43.7,101.3h8.8V86.5H43.7Zm2.9-11.8h2.9v8.8H46.7Z"/><path class="cls-2" d="M55.5,101.3h8.8V89.5H55.5Zm2.9-8.8h2.9v5.9H58.5Z"/><path class="cls-2" d="M67.3,101.3h8.8V77.7H67.3Zm2.9-20.6h2.9V98.3H70.3Z"/></g></g></svg>