<svg xmlns="http://www.w3.org/2000/svg" viewBox="0 0 167.1 167.1"><defs><style>.cls-1{fill:#2e4dd4;}.cls-2{fill:#fff;}</style></defs><title>data_2</title><g id="Capa_2" data-name="Capa 2"><g id="Capa_1-2" data-name="Capa 1"><circle class="cls-1" cx="83.6" cy="83.6" r="83.6"/><rect class="cls-2" x="76.8" y="56.5" width="13.5" height="2.7"/><rect class="cls-2" x="76.8" y="61.9" width="13.5" height="2.7"/><path class="cls-2" d="M117.4,113.3V102.5a1.4,1.4,0,0,0-1-1.3L84.9,92V75.5h9.5a1.4,1.4,0,0,0,1.4-1.4V52.5a1.3,1.3,0,0,0-.4-1l-8.1-8.1a1.3,1.3,0,0,0-1-.4H72.8a1.4,1.4,0,0,0-1.4,1.4V74.1a1.4,1.4,0,0,0,1.4,1.4h9.5V92l-31.5,9.2a1.4,1.4,0,0,0-1,1.3v10.8a1.4,1.4,0,0,0,1,1.3l32.4,9.5h.8l32.4-9.5A1.4,1.4,0,0,0,117.4,113.3ZM87.6,47.6l3.5,3.5H87.6ZM74.1,45.7H84.9v6.8a1.4,1.4,0,0,0,1.4,1.4H93V72.8H74.1Zm8.1,49.1v7.1l-3.1-3.1-1.9,1.9,5.4,5.4a1.4,1.4,0,0,0,1.9,0l5.4-5.4L88,98.8l-3.1,3.1V94.8l26.3,7.7-27.6,8.1L56,102.5Zm-29.7,9.5L82.2,113v8l-29.7-8.7ZM84.9,121v-8l29.7-8.7v8Z"/><rect class="cls-2" x="76.8" y="51.1" width="5.4" height="2.7"/><path class="cls-2" d="M44.4,75.5h9.5a6.8,6.8,0,0,0,6.8,6.8h4.1a4.1,4.1,0,0,1,4.1,4.1v2.1l-3.1-3.1-1.9,1.9,5.4,5.4a1.4,1.4,0,0,0,1.9,0l5.4-5.4-1.9-1.9-3.1,3.1V86.3a6.8,6.8,0,0,0-6.8-6.8H60.6a4.1,4.1,0,0,1-4.1-4.1H66a1.4,1.4,0,0,0,1.4-1.4V52.5a1.3,1.3,0,0,0-.4-1l-8.1-8.1a1.3,1.3,0,0,0-1-.4H44.4A1.4,1.4,0,0,0,43,44.4V74.1a1.4,1.4,0,0,0,1.4,1.4ZM59.2,47.6l3.5,3.5H59.2ZM45.7,45.7H56.5v6.8a1.4,1.4,0,0,0,1.4,1.4h6.8V72.8H45.7Z"/><rect class="cls-2" x="48.4" y="56.5" width="13.5" height="2.7"/><rect class="cls-2" x="48.4" y="61.9" width="13.5" height="2.7"/><rect class="cls-2" x="48.4" y="67.3" width="13.5" height="2.7"/><rect class="cls-2" x="48.4" y="51.1" width="5.4" height="2.7"/><path class="cls-2" d="M124.1,74.1V52.5a1.3,1.3,0,0,0-.4-1l-8.1-8.1a1.3,1.3,0,0,0-1-.4H101.1a1.4,1.4,0,0,0-1.4,1.4V74.1a1.4,1.4,0,0,0,1.4,1.4h9.5a4.1,4.1,0,0,1-4.1,4.1h-4.1a6.8,6.8,0,0,0-6.8,6.8v2.1l-3.1-3.1-1.9,1.9,5.4,5.4a1.4,1.4,0,0,0,1.9,0l5.4-5.4-1.9-1.9-3.1,3.1V86.3a4.1,4.1,0,0,1,4.1-4.1h4.1a6.8,6.8,0,0,0,6.8-6.8h9.5A1.4,1.4,0,0,0,124.1,74.1ZM116,47.6l3.5,3.5H116ZM102.5,72.8v-27h10.8v6.8a1.4,1.4,0,0,0,1.4,1.4h6.8V72.8Z"/><rect class="cls-2" x="105.2" y="56.5" width="13.5" height="2.7"/><rect class="cls-2" x="105.2" y="61.9" width="13.5" height="2.7"/><rect class="cls-2" x="105.2" y="67.3" width="13.5" height="2.7"/><rect class="cls-2" x="105.2" y="51.1" width="5.4" height="2.7"/><rect class="cls-2" x="76.8" y="67.3" width="2.7" height="2.7"/><rect class="cls-2" x="82.2" y="67.3" width="2.7" height="2.7"/><rect class="cls-2" x="87.6" y="67.3" width="2.7" height="2.7"/></g></g></svg>