<svg xmlns="http://www.w3.org/2000/svg" viewBox="0 0 167.1 167.1"><defs><style>.cls-1{fill:#0982ea;}.cls-2{fill:#fff;}.cls-3,.cls-4{fill:none;}.cls-4{stroke:#fff;stroke-linecap:round;stroke-linejoin:round;stroke-width:2px;}</style></defs><title>modeling</title><g id="Capa_2" data-name="Capa 2"><g id="Capa_1-2" data-name="Capa 1"><circle class="cls-1" cx="83.6" cy="83.6" r="83.6"/><path class="cls-2" d="M108.6,86.5h-3.5a6.9,6.9,0,0,0-4.6,1.8.4.4,0,0,0,.6.7,6,6,0,0,1,4-1.5h3.3v.2a6,6,0,0,1-6,6H100l4.2-2.9a.5.5,0,1,0-.5-.7L99,93.2a5.9,5.9,0,0,1,.8-2.7.4.4,0,0,0-.2-.6.4.4,0,0,0-.6.2,6.9,6.9,0,0,0-.9,3.4v.4a8.1,8.1,0,0,0-3.2,6.4h0l-.7-.7v-.4a6.7,6.7,0,0,0-6.7-6.7h-.7a.5.5,0,0,0-.5.5.4.4,0,0,0,.5.5h.7A5.8,5.8,0,0,1,93.4,99l-4.4-3.1a.5.5,0,0,0-.5.7l4,2.8H90.3a5.8,5.8,0,0,1-5.8-5.8v-.2h.3a.4.4,0,0,0,.5-.5.5.5,0,0,0-.5-.5h-.6a.7.7,0,0,0-.7.7v.4a6.7,6.7,0,0,0,6.7,6.7h3.4A3.4,3.4,0,0,1,95,103v4.8l-.6-.6h0a3.9,3.9,0,0,0-3.9-3.9H88.7a.7.7,0,0,0-.7.7v.2a3.9,3.9,0,0,0,3.9,3.9h1.8a3,3,0,0,1,1.2,2.4v3.2a3.5,3.5,0,0,0-1.5.5h-.8a2.9,2.9,0,0,0-2.8,2.8.5.5,0,0,0,.1.4l.4.2h5.6a.4.4,0,0,0,.4-.5.5.5,0,0,0-.4-.5H90.8a1.9,1.9,0,0,1,1.9-1.5H93a1.6,1.6,0,0,0,1-.2,2.6,2.6,0,0,1,3.3.4,1.5,1.5,0,0,0,1.3.5h.2a1.4,1.4,0,0,1,1.3.9H98a.5.5,0,0,0-.5.5.4.4,0,0,0,.5.5h2.5l.4-.2a.5.5,0,0,0,.1-.4,2.3,2.3,0,0,0-2.3-2.2h-.3l-.5-.2a3.5,3.5,0,0,0-2.1-1v-7.8a2.9,2.9,0,0,1,1.2-2.4h2.5a4.9,4.9,0,0,0,4.9-4.9v-.3a.7.7,0,0,0-.6-.7h-2.4a4.9,4.9,0,0,0-4.9,4.9v.2h0l-.7.7v-2.9a7.2,7.2,0,0,1,2.9-5.7h3.6a6.9,6.9,0,0,0,6.9-6.9v-.5A.7.7,0,0,0,108.6,86.5ZM90.8,105.7l1.7,1.2h-.5a3,3,0,0,1-3-2.9h1.5a3,3,0,0,1,2.9,2.5L91.3,105a.5.5,0,0,0-.6.1A.4.4,0,0,0,90.8,105.7Zm10.7-7.4h2.1a4,4,0,0,1-4,4H98.5l2.5-1.8a.4.4,0,0,0,.1-.6.5.5,0,0,0-.6-.1l-3,2.1A4,4,0,0,1,101.5,98.3Z"/><path class="cls-2" d="M74.4,53.7l-1.6-1.6a.5.5,0,0,0-.8.7h.1l1.6,1.6a.5.5,0,0,0,.7-.7Z"/><path class="cls-2" d="M87.9,52.2a.5.5,0,0,0-.7-.1h-.1l-1.6,1.6a.5.5,0,0,0,.7.8h.1L87.8,53A.5.5,0,0,0,87.9,52.2Z"/><path class="cls-2" d="M78.3,51.9h0l-.6-2.2a.5.5,0,0,0-1,.2h0l.6,2.2a.5.5,0,1,0,1-.2Z"/><path class="cls-2" d="M85.5,63.1l-.3-.3v-.2l.3-.6a6,6,0,0,0-3.3-7.8h0a6,6,0,0,0-7.5,2.6,6.9,6.9,0,0,0-8.7,6.6v.3a4.6,4.6,0,0,0,.3,9.1H81.5a5.7,5.7,0,0,0,4-9.7Zm-7.3-7.9a4.9,4.9,0,0,1,3.7,0,5,5,0,0,1,2.8,6.5l-.2.5h0a5.7,5.7,0,0,0-4.8-.4,6.9,6.9,0,0,0-1.7-3.1,2.4,2.4,0,0,1,3-1.1.5.5,0,0,0,.7-.3.5.5,0,0,0-.3-.6A3.5,3.5,0,0,0,77,58l-1.3-.8A5,5,0,0,1,78.2,55.2Zm4.4,16.5H66.4a3.5,3.5,0,1,1,0-7h.2a.5.5,0,0,0,.6-.5h0v-.7a5.8,5.8,0,0,1,11.5-.8.5.5,0,0,0,.6.5h.2l1-.4a4.7,4.7,0,1,1,2.2,9.1Z"/><path class="cls-2" d="M90.6,57.2a.5.5,0,0,0-.6-.4l-2.2.6a.5.5,0,1,0,.3,1h0l2.2-.6A.5.5,0,0,0,90.6,57.2Z"/><path class="cls-2" d="M90.3,62.3l-2.2-.6a.5.5,0,1,0-.3,1l2.2.6a.5.5,0,1,0,.3-1Z"/><path class="cls-2" d="M82.8,49.3a.5.5,0,0,0-.7.4l-.6,2.2a.5.5,0,0,0,.4.7h0a.5.5,0,0,0,.7-.4h0l.6-2.2A.5.5,0,0,0,82.8,49.3Z"/><path class="cls-2" d="M111,33.1H55.4A11.6,11.6,0,0,0,43.9,44.6v75.3a11.6,11.6,0,0,0,11.6,11.6H66.3v-3.1H55.4a8.5,8.5,0,0,1-8.5-8.4V44.6a8.5,8.5,0,0,1,8.5-8.4H111a8.5,8.5,0,0,1,8.4,8.4v75.3a8.5,8.5,0,0,1-8.4,8.4H88.8v3H111a11.6,11.6,0,0,0,11.5-11.6V44.6A11.6,11.6,0,0,0,111,33.1Z"/><line class="cls-3" x1="56.8" y1="72.9" x2="56.7" y2="72.9"/><path class="cls-2" d="M110.6,42.2H55.7a5.5,5.5,0,0,0-5.5,5.5v69.1a5.5,5.5,0,0,0,5.5,5.5h9.7v-1H55.7a4.5,4.5,0,0,1-4.5-4.5V47.7a4.5,4.5,0,0,1,4.5-4.5h54.9a4.5,4.5,0,0,1,4.5,4.5v69.1a4.5,4.5,0,0,1-4.5,4.5H69.6v1h41.1a5.5,5.5,0,0,0,5.5-5.5V47.7A5.5,5.5,0,0,0,110.6,42.2Z"/><path class="cls-2" d="M60.1,116.1a1.4,1.4,0,0,0,1.1-1.6,6.9,6.9,0,1,1,13.6,0,1.4,1.4,0,1,0,2.7.5,9.7,9.7,0,1,0-19.1,0A1.4,1.4,0,0,0,60.1,116.1Z"/><path class="cls-2" d="M80.4,129.9a1.4,1.4,0,0,0,2.7,0Zm-4.1,1.3a1.4,1.4,0,0,0,1.4-1.3H74.9A1.4,1.4,0,0,0,76.3,131.2Zm-8.1-22a4.1,4.1,0,0,0-4.2,4.1v6.5h2.8v-6.5a1.4,1.4,0,0,1,1.4-1.4,1.4,1.4,0,0,1,1.3,1.4c0,2.8,0,4.9,0,6.4h2.8v-6.4A4.2,4.2,0,0,0,68.2,109.2Zm2.6,22a1.4,1.4,0,0,0,1.4-1.3H69.4A1.4,1.4,0,0,0,70.8,131.2Zm11.9-5.5a4.1,4.1,0,0,0-5.5-1.8,4,4,0,0,0-1.2-1.4,4.1,4.1,0,0,0-3.8-.6v-8.4a4.2,4.2,0,0,0-4-4.2,4.1,4.1,0,0,0-4.2,4.1v21.2L62.5,133l-.2-.2a4.2,4.2,0,0,0-5.8-.2l-.4.5a4.1,4.1,0,0,0,.2,5.4l9.3,9.9a6.9,6.9,0,0,0,5,2.2H81.8a6.9,6.9,0,0,0,6.9-6.9V129.4A4.1,4.1,0,0,0,82.7,125.7Zm3.2,18a4.1,4.1,0,0,1-4.1,4.1H70.6a4.1,4.1,0,0,1-3-1.3l-9.3-9.9a1.4,1.4,0,0,1,.1-2,1.4,1.4,0,0,1,2,.1l4,4.2a1.4,1.4,0,0,0,2.4-1V113.3a1.4,1.4,0,0,1,1.4-1.4,1.4,1.4,0,0,1,1.3,1.4c0,2.8,0,4.9,0,6.4s0,1.9,0,2.6c0,3.3,0,1.9,0,7.4h0a1.4,1.4,0,0,0,2.8,0h0v-4.4a1.4,1.4,0,0,1,2.7.3v4.1h0a1.4,1.4,0,0,0,2.7,0h0v-2.3a1.4,1.4,0,1,1,2.8,0v2.3h0a1.4,1.4,0,0,0,2.7,0h0v-.5a1.4,1.4,0,0,1,2.8,0ZM69.4,129.9a1.4,1.4,0,0,0,2.8,0Zm5.5,0a1.4,1.4,0,0,0,2.7,0Zm5.5,0a1.4,1.4,0,0,0,2.7,0Z"/><polyline class="cls-4" points="56.8 80.8 56.8 100.3 79 100.3"/><path class="cls-4" d="M59,97A25.2,25.2,0,0,1,80.4,80.8"/><rect class="cls-2" x="64.3" y="87.8" width="1.3" height="10.33"/><rect class="cls-2" x="68.8" y="85.8" width="1.3" height="12.34"/><rect class="cls-2" x="73.3" y="83.8" width="1.3" height="14.35"/><rect class="cls-2" x="77.8" y="81.8" width="1.3" height="16.36"/></g></g></svg>