<svg xmlns="http://www.w3.org/2000/svg" viewBox="0 0 167.1 167.1"><defs><style>.cls-1{fill:#3aaa35;}.cls-2{fill:#fff;}</style></defs><title>oni_1</title><g id="Capa_2" data-name="Capa 2"><g id="Capa_1-2" data-name="Capa 1"><circle class="cls-1" cx="83.6" cy="83.6" r="83.6"/><path class="cls-2" d="M83.6,100.1A16.5,16.5,0,1,0,67.1,83.6,16.5,16.5,0,0,0,83.6,100.1Zm0-30.4c1.4,0,2.8,1.9,3.8,5.1H79.7c1-3.1,2.5-5.1,3.8-5.1ZM88,77.2a31.5,31.5,0,0,1,.6,5.1H78.5a31.6,31.6,0,0,1,.6-5.1Zm9.4,5.1H91.2a34.8,34.8,0,0,0-.5-5.1H96A13.8,13.8,0,0,1,97.5,82.3ZM83.6,97.5c-1.4,0-2.8-1.9-3.8-5.1h7.6c-1,3.1-2.5,5.1-3.8,5.1Zm-4.5-7.6a31.5,31.5,0,0,1-.6-5.1H88.6a31.6,31.6,0,0,1-.6,5.1Zm12-5.1h6.3A13.8,13.8,0,0,1,96,89.9H90.6A34.6,34.6,0,0,0,91.2,84.8ZM76,82.3H69.7a13.8,13.8,0,0,1,1.5-5.1h5.3a34.6,34.6,0,0,0-.5,5.1Zm0,2.5a34.8,34.8,0,0,0,.5,5.1H71.2a13.9,13.9,0,0,1-1.5-5.1Zm-3.2,7.6h4.3a17.5,17.5,0,0,0,1.8,4.2A14,14,0,0,1,72.8,92.4Zm15.5,4.2A17.6,17.6,0,0,0,90,92.4h4.3A14,14,0,0,1,88.3,96.7Zm6-22H90a17.5,17.5,0,0,0-1.8-4.2A14,14,0,0,1,94.3,74.7ZM78.9,70.4a17.6,17.6,0,0,0-1.8,4.2H72.8A14,14,0,0,1,78.9,70.4Z"/><path class="cls-2" d="M68.3,97.5h-.9a10.3,10.3,0,0,0-9.2-5.2,10.3,10.3,0,0,0-9.3,5.3,6.3,6.3,0,0,0,1.7,12.4H68.3a6.3,6.3,0,1,0,0-12.7Zm0,10.1H50.6a3.8,3.8,0,0,1-.6-7.5h.7l.3-.7c1-2.6,3.9-4.4,7.2-4.4s6.3,1.9,7.3,4.5l.4,1.2,1.2-.4,1.2-.2a3.8,3.8,0,0,1,0,7.6Z"/><path class="cls-2" d="M116.6,100.1h-.9a10.8,10.8,0,0,0-18.5.2,6.3,6.3,0,0,0-3.4,9.9h0a6.3,6.3,0,0,0,0,12.7h17.8a6.3,6.3,0,0,0,5.1-10.1h0a6.3,6.3,0,1,0,0-12.7Zm-5.1,20.3H93.7a3.8,3.8,0,0,1,0-7.6l1.2.2,1.2.4.4-1.2c1-2.7,4-4.5,7.3-4.5s6.2,1.8,7.2,4.4l.3.7h.7a3.8,3.8,0,0,1-.6,7.5Zm5.1-10.1H113a10.3,10.3,0,0,0-9.1-5.1,10.6,10.6,0,0,0-8.1,3.5,3.8,3.8,0,0,1,2.4-6h.7l.3-.7c1-2.6,3.9-4.4,7.2-4.4s6.3,1.9,7.3,4.5l.4,1.2,1.2-.4,1.2-.2a3.8,3.8,0,0,1,0,7.6Z"/><rect class="cls-2" x="50.6" y="115.3" width="2.5" height="2.54"/><rect class="cls-2" x="50.6" y="120.4" width="2.5" height="2.54"/><rect class="cls-2" x="55.7" y="117.8" width="2.5" height="2.54"/><rect class="cls-2" x="55.7" y="112.7" width="2.5" height="2.54"/><rect class="cls-2" x="60.7" y="115.3" width="2.5" height="2.54"/><rect class="cls-2" x="60.7" y="120.4" width="2.5" height="2.54"/><rect class="cls-2" x="65.8" y="112.7" width="2.5" height="2.54"/><rect class="cls-2" x="65.8" y="117.8" width="2.5" height="2.54"/><rect class="cls-2" x="82.3" y="44.2" width="2.5" height="20.3"/><rect class="cls-2" x="44.2" y="82.3" width="20.3" height="2.54"/><rect class="cls-2" x="82.3" y="102.6" width="2.5" height="20.3"/><rect class="cls-2" x="102.6" y="82.3" width="20.3" height="2.54"/><path class="cls-2" d="M59.5,67.1a7.6,7.6,0,1,0-7.6-7.6A7.6,7.6,0,0,0,59.5,67.1Zm0-12.7a5.1,5.1,0,1,1-5.1,5.1A5.1,5.1,0,0,1,59.5,54.4Z"/><rect class="cls-2" x="58.2" y="44.2" width="2.5" height="5.07"/><rect class="cls-2" x="49.2" y="48" width="2.5" height="5.07" transform="translate(-20.9 50.5) rotate(-45)"/><rect class="cls-2" x="44.2" y="58.2" width="5.1" height="2.54"/><rect class="cls-2" x="48" y="67.2" width="5.1" height="2.54" transform="translate(-33.6 55.7) rotate(-45)"/><rect class="cls-2" x="58.2" y="69.6" width="2.5" height="5.07"/><rect class="cls-2" x="67.2" y="65.9" width="2.5" height="5.07" transform="translate(-28.3 68.4) rotate(-45)"/><rect class="cls-2" x="69.6" y="58.2" width="5.1" height="2.54"/><rect class="cls-2" x="65.9" y="49.2" width="5.1" height="2.54" transform="translate(-15.7 63.2) rotate(-45)"/><path class="cls-2" d="M93.2,52.6a2.7,2.7,0,0,0-.8,1.8c0,1.4,1.2,2.5,3.1,3.3a2.9,2.9,0,0,0-.6,1.7c0,1.5,1.2,2.7,2.9,3.5a3.4,3.4,0,0,0-.4,1.6c0,1.5,1.1,2.8,2.8,3.7a4.1,4.1,0,0,0-.2,1.3c0,1.9,1.5,2.8,2.8,3.5s2.3,1.5,2.3,2.8v1a2.8,2.8,0,0,0,5.4,1c1-2.7,2.2-6.4,2.2-8.4a4.1,4.1,0,0,0-.2-1.3c1.7-.9,2.8-2.2,2.8-3.7a3.4,3.4,0,0,0-.4-1.6c1.8-.8,2.9-2,2.9-3.5a2.9,2.9,0,0,0-.6-1.7c1.9-.8,3.1-1.9,3.1-3.3a2.7,2.7,0,0,0-.8-1.8c2-.8,3.3-1.8,3.3-3.2,0-4-10.4-5.1-16.5-5.1s-16.5,1.1-16.5,5.1c0,1.4,1.3,2.5,3.3,3.2Zm17,17.1a29.2,29.2,0,0,1-2.1,7.5.2.2,0,0,1-.5-.1V76c0-2.8-2-4.1-3.5-5s-1.5-1-1.5-1.4a1.6,1.6,0,0,1,.1-.4,16,16,0,0,0,7.4,0A1.6,1.6,0,0,1,110.2,69.6Zm2.5-5.1c0,1-2.5,2.5-6.3,2.5s-6.3-1.5-6.3-2.5a1.1,1.1,0,0,1,.3-.7,26,26,0,0,0,12,0A1.1,1.1,0,0,1,112.7,64.5Zm2.5-5.1c0,.7-3.1,2.5-8.9,2.5s-8.9-1.8-8.9-2.5.2-.5.8-.8a38.9,38.9,0,0,0,16.1,0C115,59,115.3,59.3,115.3,59.5Zm2.5-5.1c-.2.7-4,2.6-11.4,2.6S95.2,55.1,95,54.4s.4-.5,1.4-1a52.2,52.2,0,0,0,10.1.9,52.3,52.3,0,0,0,10.1-.9,3.2,3.2,0,0,1,1.4.9Zm-11.4-7.6c8.2,0,13.2,1.6,13.9,2.5s-5.7,2.5-13.9,2.5-13.2-1.6-13.9-2.5S98.2,46.8,106.4,46.8Z"/></g></g></svg>