<svg xmlns="http://www.w3.org/2000/svg" viewBox="0 0 758.8 177.2"><defs><style>.cls-1{fill:#36a9e1;}.cls-2{fill:#ffa200;}.cls-3{fill:none;stroke:#ffa200;stroke-linecap:round;stroke-linejoin:round;stroke-width:8px;stroke-dasharray:1 10;}</style></defs><title>aquacrop</title><g id="Capa_2" data-name="Capa 2"><g id="Capa_2-2" data-name="Capa 2"><path class="cls-1" d="M260,114.5,256.1,103H233.6l-3.9,11.5h-9.2l20.9-57.1h7l20.9,57.1ZM245,70.3l-8.9,25.4h17.6Z"/><path class="cls-1" d="M312.7,117.1l-5.7-5.7a20.7,20.7,0,0,1-12,3.6,20.4,20.4,0,0,1-15-6.1c-5.6-5.6-5.5-12-5.5-22.9S274.4,68.6,280,63a21.6,21.6,0,0,1,30.1,0c5.6,5.6,5.5,12,5.5,22.9s.1,15.6-3.7,20.8l5.6,5.5Zm-9.1-48.9a12,12,0,0,0-17,0c-2.8,3-3.4,6.3-3.4,17.7s.6,14.7,3.4,17.7a11.7,11.7,0,0,0,8.5,3.5,10,10,0,0,0,5.9-1.8l-6-6,4.8-4.8,5.5,5.5c1.4-2.9,1.7-6.7,1.7-14.1C306.9,74.4,306.3,71.2,303.5,68.2Z"/><path class="cls-1" d="M348,115c-11.6,0-20.5-7.9-20.5-19.7V57.4h8.7V94.8c0,7.6,4.7,12.4,11.8,12.4s11.9-4.7,11.9-12.4V57.4h8.7V95.2C368.5,107,359.6,115,348,115Z"/><path class="cls-1" d="M415.4,114.5,411.4,103H388.9L385,114.5h-9.2l20.9-57.1h7l20.9,57.1Zm-15-44.2-8.9,25.4H409Z"/><path class="cls-1" d="M450.3,115a20.7,20.7,0,0,1-15-6.1c-5.6-5.6-5.5-12-5.5-22.9s-.1-17.3,5.5-22.9a20.7,20.7,0,0,1,15-6.1c10.5,0,18.4,6.2,20.4,17.6h-8.8c-1.4-5.8-5.2-9.8-11.6-9.8a11.4,11.4,0,0,0-8.4,3.5c-2.8,3-3.5,6.3-3.5,17.8s.6,14.8,3.5,17.8a11.4,11.4,0,0,0,8.4,3.5c6.3,0,10.3-4,11.6-9.8h8.7C468.8,108.8,460.7,115,450.3,115Z"/><path class="cls-1" d="M513.8,114.5l-12-24.1H490.9v24.1h-8.7V57.4h22.1c10.8,0,17.7,7,17.7,16.7,0,8.2-5,13.4-11.4,15.2l13.2,25.3Zm-10-49.3H490.9V83h12.8c5.8,0,9.7-3.3,9.7-8.9S509.5,65.1,503.8,65.1Z"/><path class="cls-1" d="M568.3,108.9a21.6,21.6,0,0,1-30.1,0c-5.6-5.6-5.5-12-5.5-22.9s-.1-17.3,5.5-22.9a21.6,21.6,0,0,1,30.1,0c5.6,5.6,5.5,12,5.5,22.9S574,103.3,568.3,108.9Zm-6.6-40.7a12,12,0,0,0-17,0c-2.8,3-3.4,6.3-3.4,17.7s.6,14.7,3.4,17.7a12,12,0,0,0,17,0c2.8-3,3.4-6.3,3.4-17.7S564.6,71.2,561.8,68.2Z"/><path class="cls-1" d="M608.3,92h-13v22.5h-8.7V57.4h21.7c11.2,0,18.3,7.4,18.3,17.3S619.5,92,608.3,92Zm-.5-26.9H595.3v19h12.5c6,0,10.1-3.5,10.1-9.5S613.8,65.1,607.8,65.1Z"/><path class="cls-2" d="M635,96V88.4h23.4V96Z"/><path class="cls-2" d="M704.8,108.9a21.6,21.6,0,0,1-30.1,0c-5.6-5.6-5.5-12-5.5-22.9s-.1-17.3,5.5-22.9a21.6,21.6,0,0,1,30.1,0c5.6,5.6,5.5,12,5.5,22.9S710.4,103.3,704.8,108.9Zm-6.6-40.7a12,12,0,0,0-17,0c-2.8,3-3.4,6.3-3.4,17.7s.6,14.7,3.4,17.7a12,12,0,0,0,17,0c2.8-3,3.4-6.3,3.4-17.7S701,71.2,698.2,68.2Z"/><path class="cls-2" d="M738.3,115c-8.6,0-14.8-2-20.2-7.5l5.8-5.7c4.2,4.2,8.7,5.5,14.6,5.5,7.5,0,11.8-3.2,11.8-8.7a7.7,7.7,0,0,0-2.2-5.9c-1.4-1.4-2.9-1.9-6.3-2.4l-6.7-1c-4.7-.6-8.3-2.2-10.8-4.6S720,78.3,720,73.6c0-9.9,7.2-16.8,19.1-16.8,7.5,0,12.8,1.9,17.7,6.5l-5.5,5.5c-3.5-3.4-7.6-4.4-12.4-4.4-6.7,0-10.4,3.9-10.4,8.9a6.8,6.8,0,0,0,2.2,5.3,12.7,12.7,0,0,0,6.4,2.6l6.5,1c5.3.8,8.3,2.1,10.7,4.3s4.7,6.8,4.7,11.7C758.8,108.7,750.2,115,738.3,115Z"/><path class="cls-1" d="M586.7,171.9a6.2,6.2,0,0,1-4.5-1.8c-1.7-1.7-1.7-3.6-1.7-6.9s0-5.2,1.7-6.9a6.2,6.2,0,0,1,4.5-1.8,5.9,5.9,0,0,1,6.1,5.3h-2.6a3.5,3.5,0,0,0-6-1.9c-.8.9-1,1.9-1,5.3s.2,4.4,1,5.3a3.4,3.4,0,0,0,2.5,1,3.5,3.5,0,0,0,3.5-2.9h2.6A5.9,5.9,0,0,1,586.7,171.9Z"/><path class="cls-1" d="M604.2,170.5a4.9,4.9,0,0,1-3.7,1.4,4.9,4.9,0,0,1-3.6-1.4c-1.2-1.2-1.4-2.7-1.4-4.8s.3-3.6,1.4-4.8a4.9,4.9,0,0,1,3.6-1.4,4.9,4.9,0,0,1,3.7,1.4c1.2,1.2,1.4,2.7,1.4,4.8S605.3,169.3,604.2,170.5Zm-1.9-8.2a2.5,2.5,0,0,0-1.8-.7,2.4,2.4,0,0,0-1.8.7c-.7.7-.8,2-.8,3.3s.1,2.6.8,3.3a2.4,2.4,0,0,0,1.8.7,2.5,2.5,0,0,0,1.8-.7c.7-.7.8-2,.8-3.3S603,163.1,602.3,162.3Z"/><path class="cls-1" d="M617.5,170.8a4.2,4.2,0,0,1-3,1.1,3.8,3.8,0,0,1-3.2-1.4v6.2h-2.5V159.6h2.4v1.3a3.8,3.8,0,0,1,3.2-1.4,4.2,4.2,0,0,1,3,1.1c1.2,1.2,1.4,3.3,1.4,5.1S618.8,169.6,617.5,170.8Zm-3.6-9.2c-2.2,0-2.6,1.9-2.6,4s.3,4.1,2.6,4.1,2.5-1.9,2.5-4.1S616.1,161.6,613.9,161.6Z"/><path class="cls-1" d="M626,174.2a4,4,0,0,1-.9,1.5,3.4,3.4,0,0,1-2.5.9h-1v-2.2h.6c1,0,1.4-.3,1.8-1.3l.7-1.9-4.3-11.6h2.6l2.9,8.6,2.8-8.6h2.6Z"/><path class="cls-1" d="M640.2,162.5a2.3,2.3,0,0,0-1.8-.8,2.5,2.5,0,0,0-2.4,2.7v7.4h-2.5V159.6h2.4v1.3a4.1,4.1,0,0,1,3.2-1.5,3.8,3.8,0,0,1,2.9,1.2Z"/><path class="cls-1" d="M644,157.2v-2.6h2.6v2.6Zm.1,14.6V159.6h2.5v12.2Z"/><path class="cls-1" d="M654.5,176.9a5.6,5.6,0,0,1-4.3-1.6l1.6-1.6a3.4,3.4,0,0,0,2.6,1.1c2.1,0,2.9-1.5,2.9-3.1v-1.6a3.8,3.8,0,0,1-3.2,1.4,4,4,0,0,1-2.9-1.1c-1.2-1.2-1.4-2.9-1.4-5s.2-3.8,1.4-5a4.1,4.1,0,0,1,2.9-1.1,3.7,3.7,0,0,1,3.2,1.4v-1.3h2.4v12.1A4.9,4.9,0,0,1,654.5,176.9Zm.3-15.2c-2.2,0-2.5,1.9-2.5,3.8s.3,3.8,2.5,3.8,2.5-1.9,2.5-3.8S657,161.6,654.8,161.6Z"/><path class="cls-1" d="M671,171.8v-7.5a2.4,2.4,0,0,0-2.5-2.7,2.4,2.4,0,0,0-2.5,2.7v7.5h-2.5V154.7h2.5v6.2a4.2,4.2,0,0,1,3.2-1.4c2.7,0,4.2,1.8,4.2,4.5v7.9Z"/><path class="cls-1" d="M680.9,171.8a3.2,3.2,0,0,1-3.3-3.4v-6.7h-1.4v-1.9h1.4v-3.7H680v3.7h2.4v1.9H680v6.6a1.2,1.2,0,0,0,1.3,1.4h1v2.1Z"/><path class="cls-1" d="M699.6,171.9a8.7,8.7,0,1,1,8.7-8.7A8.7,8.7,0,0,1,699.6,171.9Zm0-15.8a7.1,7.1,0,1,0,7,7.1A7,7,0,0,0,699.6,156.1Zm.1,11.9c-2.6,0-4.3-1.9-4.3-4.8s1.7-4.8,4.3-4.8a4.4,4.4,0,0,1,3.2,1.3l-1.1,1.1a2.8,2.8,0,0,0-2-.8c-1.8,0-2.6,1.4-2.6,3.3s.8,3.3,2.6,3.3a2.8,2.8,0,0,0,2-.8l1.1,1.1A4.3,4.3,0,0,1,699.8,168Z"/><path class="cls-1" d="M720.6,157v5.2h7.1v2.3h-7.1v7.2H718V154.7H729V157Z"/><path class="cls-1" d="M740.5,171.8l-1.2-3.4h-6.8l-1.2,3.4h-2.8l6.3-17.1H737l6.3,17.1ZM736,158.5l-2.7,7.6h5.3Z"/><path class="cls-1" d="M755.5,170.1a6.5,6.5,0,0,1-9,0c-1.7-1.7-1.7-3.6-1.7-6.9s0-5.2,1.7-6.9a6.5,6.5,0,0,1,9,0c1.7,1.7,1.6,3.6,1.6,6.9S757.2,168.4,755.5,170.1Zm-2-12.2a3.6,3.6,0,0,0-5.1,0c-.8.9-1,1.9-1,5.3s.2,4.4,1,5.3a3.6,3.6,0,0,0,5.1,0c.8-.9,1-1.9,1-5.3S754.4,158.8,753.5,157.9Z"/><path class="cls-1" d="M7.4,122.3h-4a3,3,0,0,1,.4-6,53.8,53.8,0,0,0,19.5-2.3,56.2,56.2,0,0,0,19.6-11A56.6,56.6,0,0,0,58.5,81a54.9,54.9,0,0,0,3.7-22.5,3,3,0,0,1,6-.3,60.8,60.8,0,0,1-4.1,24.9,62.7,62.7,0,0,1-17.1,24.2,61.3,61.3,0,0,1-21.8,12.2A59.6,59.6,0,0,1,7.4,122.3Z"/><path class="cls-1" d="M7.5,141.2H3.1a3,3,0,0,1,.3-6,69.4,69.4,0,0,0,22-2.3A72,72,0,0,0,52.1,119,77.9,77.9,0,0,0,72.5,94.9a67.7,67.7,0,0,0,7.1-21.8,61.9,61.9,0,0,0,.2-13.7,3,3,0,1,1,6-.6,67.9,67.9,0,0,1-.3,15,72.9,72.9,0,0,1-7.7,23.8,84.1,84.1,0,0,1-22,26.1,77.7,77.7,0,0,1-28.7,14.9A75.2,75.2,0,0,1,7.5,141.2Z"/><path class="cls-1" d="M9.5,158.7l-6.3-.2a3,3,0,1,1,.4-6,83.3,83.3,0,0,0,26.6-2.4,90.1,90.1,0,0,0,31-15.4,98,98,0,0,0,20-20.9A86,86,0,0,0,93.6,89.9a82.7,82.7,0,0,0,3.9-30.6,3,3,0,1,1,6-.3,88.6,88.6,0,0,1-4.2,32.8,91.5,91.5,0,0,1-13.2,25.5,104.2,104.2,0,0,1-21.2,22.2,96.3,96.3,0,0,1-33.2,16.4A89,89,0,0,1,9.5,158.7Z"/><path class="cls-1" d="M9.7,176.3l-6.9-.2a3,3,0,1,1,.4-6,102,102,0,0,0,23-1.1,99.4,99.4,0,0,0,27.5-8.6c11.6-5.7,18.6-12.2,25.5-18.5s14.2-13,21.8-25.6a103.3,103.3,0,0,0,11.2-25.6,99.6,99.6,0,0,0,3.6-30.8,3,3,0,1,1,6-.2,105.6,105.6,0,0,1-3.8,32.7,109.4,109.4,0,0,1-11.8,27.1c-8.1,13.3-17,21.5-22.9,26.9s-14.5,13.4-26.9,19.5a105.6,105.6,0,0,1-29.2,9.2A108.1,108.1,0,0,1,9.7,176.3Z"/><path class="cls-1" d="M179.2,123.2a59.4,59.4,0,0,1-22.2-4.3,61.1,61.1,0,0,1-24.5-18.2,64.6,64.6,0,0,1-12.9-24.3,59.6,59.6,0,0,1-1.9-16.7,3,3,0,0,1,6,.2,53.7,53.7,0,0,0,1.7,15,58.4,58.4,0,0,0,11.7,22,55.4,55.4,0,0,0,22.2,16.5,53.7,53.7,0,0,0,21.9,3.8,3,3,0,1,1,.2,6Z"/><path class="cls-1" d="M174.3,141.7a59.4,59.4,0,0,1-10.5-.9c-10.6-1.9-17.9-6.2-23.2-9.4a92.3,92.3,0,0,1-21.4-17.9,94.7,94.7,0,0,1-8.6-11.4,3,3,0,0,1,5-3.3,88.5,88.5,0,0,0,8.1,10.6,86.1,86.1,0,0,0,20,16.7c5.2,3.1,11.6,6.9,21.2,8.6a53.9,53.9,0,0,0,16.1.4,3,3,0,1,1,.7,6A60.8,60.8,0,0,1,174.3,141.7Z"/><path class="cls-1" d="M173.6,159.9a68.8,68.8,0,0,1-13.7-1.4c-11.1-2.2-18.6-6.6-27.3-11.7a101.3,101.3,0,0,1-21.8-16.3,96.3,96.3,0,0,1-9.1-10.5,3,3,0,1,1,4.8-3.6,90.2,90.2,0,0,0,8.5,9.8,95.9,95.9,0,0,0,20.6,15.4c8.6,5,15.3,8.9,25.4,11a63.5,63.5,0,0,0,20.1.8,3,3,0,1,1,.7,6A70.8,70.8,0,0,1,173.6,159.9Z"/><path class="cls-1" d="M174.4,177.2a95.7,95.7,0,0,1-16.7-1.5,99.3,99.3,0,0,1-27.3-9.3c-11.7-6-19.4-12.8-26.1-18.8A164.3,164.3,0,0,1,92,135.6a3,3,0,1,1,4.4-4,158.3,158.3,0,0,0,11.8,11.6c6.5,5.8,13.8,12.3,24.9,17.9a93.1,93.1,0,0,0,25.7,8.7,89.8,89.8,0,0,0,22.4,1.1,3,3,0,0,1,.4,6Z"/><path class="cls-2" d="M65.2,29.9a3,3,0,0,1-3-3v-.5a3,3,0,0,1,6,0v.5A3,3,0,0,1,65.2,29.9Z"/><path class="cls-2" d="M65.2,42.4a3,3,0,0,1-3-3V38.2a3,3,0,1,1,6,0v1.1A3,3,0,0,1,65.2,42.4Z"/><path class="cls-2" d="M65.2,54.2a3,3,0,0,1-3-3v-.5a3,3,0,0,1,6,0v.5A3,3,0,0,1,65.2,54.2Z"/><path class="cls-2" d="M118.8,27.9a3,3,0,0,1-3-3v-.5a3,3,0,0,1,6,0v.5A3,3,0,0,1,118.8,27.9Z"/><path class="cls-2" d="M118.8,40.4a3,3,0,0,1-3-3V36.2a3,3,0,0,1,6,0v1.1A3,3,0,0,1,118.8,40.4Z"/><path class="cls-2" d="M118.8,52.2a3,3,0,0,1-3-3v-.5a3,3,0,0,1,6,0v.5A3,3,0,0,1,118.8,52.2Z"/><path class="cls-3" d="M83.7,1.9"/><path class="cls-2" d="M83.7,51a3,3,0,0,1-3-3V47a3,3,0,1,1,6,0v1A3,3,0,0,1,83.7,51Zm0-11a3,3,0,0,1-3-3V36a3,3,0,0,1,6,0v1A3,3,0,0,1,83.7,40Zm0-11a3,3,0,0,1-3-3V25a3,3,0,0,1,6,0v1A3,3,0,0,1,83.7,29Zm0-11a3,3,0,0,1-3-3V14a3,3,0,0,1,6,0v1A3,3,0,0,1,83.7,18Zm0-11a3,3,0,0,1-3-3V3a3,3,0,0,1,6,0V4A3,3,0,0,1,83.7,7Z"/><path class="cls-2" d="M101.5,51a3,3,0,0,1-3-3V47a3,3,0,1,1,6,0v1A3,3,0,0,1,101.5,51Zm0-11a3,3,0,0,1-3-3V36a3,3,0,1,1,6,0v1A3,3,0,0,1,101.5,40Zm0-11a3,3,0,0,1-3-3V25a3,3,0,1,1,6,0v1A3,3,0,0,1,101.5,29Zm0-11a3,3,0,0,1-3-3V14a3,3,0,1,1,6,0v1A3,3,0,0,1,101.5,18Zm0-11a3,3,0,0,1-3-3V3a3,3,0,1,1,6,0V4A3,3,0,0,1,101.5,7Z"/></g></g></svg>