<?xml version="1.0" encoding="utf-8"?>
<!-- Generator: Adobe Illustrator 21.0.0, SVG Export Plug-In . SVG Version: 6.00 Build 0)  -->
<svg version="1.1" id="Capa_1" xmlns="http://www.w3.org/2000/svg" xmlns:xlink="http://www.w3.org/1999/xlink" x="0px" y="0px"
	 viewBox="0 0 500 500" style="enable-background:new 0 0 500 500;" xml:space="preserve">
<style type="text/css">
	.st0{fill:#706F6F;}
	.st1{fill:none;}
</style>
<g id="Grupo_2304" transform="translate(0 3.524)">
	<g id="Trazado_8175">
		<path class="st0" d="M426.3,99.3H88.7c-9.8,0-17.8-8-17.8-17.8s8-17.8,17.8-17.8h337.6c9.8,0,17.8,8,17.8,17.8
			S436.1,99.3,426.3,99.3z"/>
	</g>
	<g id="Trazado_8176">
		<path class="st0" d="M361.3,171.8c-4.6,0-9.3-1.8-12.8-5.4c-6.8-7.1-6.6-18.3,0.4-25.1l60.9-58.9l-52.6-44.8
			c-7.5-6.4-8.4-17.6-2-25.1c6.4-7.5,17.6-8.4,25.1-2l67.6,57.5c3.8,3.3,6.1,8,6.2,13s-1.8,9.9-5.4,13.3l-75,72.5
			C370.2,170.1,365.8,171.8,361.3,171.8z"/>
	</g>
	<g id="Rectángulo_1144" transform="translate(0 25.22)">
		<g>
			<rect x="22.4" y="178.1" class="st1" width="135.1" height="284.5"/>
		</g>
		<g>
			<path class="st0" d="M139.8,462.6H40.2c-9.8,0-17.8-8-17.8-17.8V195.9c0-9.8,8-17.8,17.8-17.8h99.6c9.8,0,17.8,8,17.8,17.8v248.9
				C157.5,454.6,149.6,462.6,139.8,462.6z M58,427h64V213.7H58V427z"/>
		</g>
	</g>
	<g id="Rectángulo_1145" transform="translate(23 25.22)">
		<g>
			<rect x="163" y="178.1" class="st1" width="128" height="284.5"/>
		</g>
		<g>
			<path class="st0" d="M273.2,462.6h-92.5c-9.8,0-17.8-8-17.8-17.8V195.9c0-9.8,8-17.8,17.8-17.8h92.5c9.8,0,17.8,8,17.8,17.8
				v248.9C291,454.6,283,462.6,273.2,462.6z M198.6,427h56.9V213.7h-56.9V427z"/>
		</g>
	</g>
	<g id="Rectángulo_1146" transform="translate(45 25.22)">
		<g>
			<rect x="297.5" y="178.1" class="st1" width="135.1" height="284.5"/>
		</g>
		<g>
			<path class="st0" d="M414.8,462.6h-99.6c-9.8,0-17.8-8-17.8-17.8V195.9c0-9.8,8-17.8,17.8-17.8h99.6c9.8,0,17.8,8,17.8,17.8
				v248.9C432.6,454.6,424.6,462.6,414.8,462.6z M333,427h64V213.7h-64V427z"/>
		</g>
	</g>
</g>
</svg>
