<?xml version="1.0" encoding="utf-8"?>
<!-- Generator: Adobe Illustrator 21.0.0, SVG Export Plug-In . SVG Version: 6.00 Build 0)  -->
<svg version="1.1" id="Capa_1" xmlns="http://www.w3.org/2000/svg" xmlns:xlink="http://www.w3.org/1999/xlink" x="0px" y="0px"
	 viewBox="0 0 500 500" style="enable-background:new 0 0 500 500;" xml:space="preserve">
<style type="text/css">
	.st0{fill:#706F6F;}
</style>
<g>
	<g>
		<g>
			<circle class="st0" cx="374.4" cy="206" r="19.1"/>
			<path class="st0" d="M418.4,43.3h-24.9V24.1c0-10.5-8.6-19.1-19.1-19.1s-19.1,8.6-19.1,19.1v19.1h-87.1V24.1
				C268.2,13.6,259.6,5,249,5s-19.1,8.6-19.1,19.1v19.1h-86.1V24.1c0-10.5-8.6-19.1-19.1-19.1s-19.1,8.6-19.1,19.1v19.1H81.6
				C39.4,43.3,5,77.6,5,119.8v298.6C5,460.6,39.4,495,81.6,495H228c10.5,0,19.1-8.6,19.1-19.1s-8.6-19.1-19.1-19.1H81.6
				c-21.2,0-38.3-17.1-38.3-38.3V119.8c0-21.2,17.1-38.3,38.3-38.3h23.9v19.1c0,10.5,8.6,19.1,19.1,19.1s19.1-8.6,19.1-19.1V81.6
				h86.1v19.1c0,10.5,8.6,19.1,19.1,19.1s19.1-8.6,19.1-19.1V81.6h87.1v19.1c0,10.5,8.6,19.1,19.1,19.1s19.1-8.6,19.1-19.1V81.6
				h24.9c21.2,0,38.3,17.1,38.3,38.3v109.1c0,10.5,8.6,19.1,19.1,19.1s19.1-8.6,19.1-19.1V119.8C495,77.6,460.6,43.3,418.4,43.3z"/>
			<path class="st0" d="M379.2,263.4c-63.8,0-115.8,52-115.8,115.8S315.4,495,379.2,495S495,443,495,379.2S443,263.4,379.2,263.4z
				 M379.2,456.7c-42.8,0-77.5-34.7-77.5-77.5s34.7-77.5,77.5-77.5s77.5,34.7,77.5,77.5S422,456.7,379.2,456.7z"/>
			<path class="st0" d="M407,360.1h-8.6V340c0-10.5-8.6-19.1-19.1-19.1s-19.1,8.6-19.1,19.1v39.2c0,10.5,8.6,19.1,19.1,19.1H407
				c10.5,0,19.1-8.6,19.1-19.1S417.5,360.1,407,360.1z"/>
			<circle class="st0" cx="291.2" cy="206" r="19.1"/>
			<circle class="st0" cx="207.9" cy="289.2" r="19.1"/>
			<circle class="st0" cx="124.6" cy="206" r="19.1"/>
			<circle class="st0" cx="124.6" cy="289.2" r="19.1"/>
			<circle class="st0" cx="124.6" cy="372.5" r="19.1"/>
			<circle class="st0" cx="207.9" cy="372.5" r="19.1"/>
			<circle class="st0" cx="207.9" cy="206" r="19.1"/>
		</g>
	</g>
</g>
</svg>
