<svg xmlns="http://www.w3.org/2000/svg" viewBox="0 0 600.1 179.8"><defs><style>.cls-1{fill:#ffd520;}.cls-2{fill:#49742a;}.cls-3{fill:#4f2700;}.cls-4{fill:#683817;}</style></defs><title>climatechancecolombia_1</title><g id="Capa_2" data-name="Capa 2"><g id="Capa_2-2" data-name="Capa 2"><path class="cls-1" d="M501.9,24.6a59.9,59.9,0,0,1,51-12.6,51.4,51.4,0,0,0-34,12.1,52,52,0,0,0,66.8,79.8A51.4,51.4,0,0,0,596,92.3a59,59,0,0,1-17.2,23.9,59.8,59.8,0,0,1-76.9-91.6"/><path class="cls-2" d="M573.4,27a42.4,42.4,0,0,1,21,31,37,37,0,1,0-43,48.6,42,42,0,0,1-20.3-5.6,42.6,42.6,0,0,1,42.3-74"/><path class="cls-3" d="M582.7,84.9A27.4,27.4,0,0,1,562.2,98a24,24,0,1,0-30.9-28.8,27.7,27.7,0,0,1,42-22.4,27.7,27.7,0,0,1,9.4,38.1"/><path class="cls-2" d="M498.8,172.4a28.3,28.3,0,0,1-6.5.9c-9.2,0-15.6-4.6-15.6-14.2s6-15.2,15.6-15.2a18.5,18.5,0,0,1,6.4,1.2l-.4,4.8a12.1,12.1,0,0,0-6.2-1.5c-5.9,0-9.5,4.5-9.5,10.3s3.6,10.2,9.7,10.2a15.2,15.2,0,0,0,6.2-1.2Z"/><path class="cls-2" d="M523.9,172.4a28.3,28.3,0,0,1-6.5.9c-9.2,0-15.6-4.6-15.6-14.2s6-15.2,15.6-15.2a18.5,18.5,0,0,1,6.4,1.2l-.4,4.8a12.1,12.1,0,0,0-6.2-1.5c-5.9,0-9.5,4.5-9.5,10.3s3.6,10.2,9.7,10.2a15.2,15.2,0,0,0,6.2-1.2Z"/><path class="cls-2" d="M537.3,144.4h6.4l11.2,28.5h-6.3l-2.4-6.5H534.7l-2.5,6.5h-5.9Zm3.1,5.7h0l-4.2,11.7h8.3Z"/><polygon class="cls-2" points="560.4 144.4 576.2 144.4 576.2 148.9 566.1 148.9 566.1 155.9 575.7 155.9 575.7 160.4 566.1 160.4 566.1 172.8 560.4 172.8 560.4 144.4"/><path class="cls-2" d="M597.9,149.6a14.3,14.3,0,0,0-5.8-1.2c-2,0-4.5.9-4.5,4,0,4.9,12.5,2.8,12.5,12.4,0,6.2-4.9,8.6-10.7,8.6a24.8,24.8,0,0,1-7.3-1.1l.5-5.1A13.4,13.4,0,0,0,589,169c2.2,0,5.1-1.1,5.1-3.7,0-5.4-12.5-3.2-12.5-12.6,0-6.4,4.9-8.7,9.9-8.7a21.5,21.5,0,0,1,6.8,1Z"/><path class="cls-2" d="M69.5,57.6c-1.6-2.1-5.5-5.5-7.5-7.5s-3.9-4-3.9-9.4V18c0-3.2-5-2.8-5,.1,0,0-.3,39.4,0,42.8s-1.3,6,4,9.4,14.5,6.2,14.5,6.2.1-8.7.2-11.9a9.6,9.6,0,0,0-2.3-7M67,69.9h0c-8.3-3.3-9.8-2.7-8.8-15.3,9.9,6,9.2,8.2,8.8,15.3m9.7-5.3c.1,3.2.2,11.9.2,11.9s8.5-2.5,14.5-6.2,3.7-6,4.1-9.4,0-42.8,0-42.8c0-2.9-5-3.4-5-.1V40.7c0,5.3-.8,6.2-3.9,9.4s-5.9,5.4-7.5,7.5a9.2,9.2,0,0,0-2.4,7m13.6-10c1,12.6-.4,12-8.7,15.4h0c-.4-7.2-1.1-9.4,8.7-15.4M80.8,34.5c-2.9-5.2,0,0-4-6.7V2.8c0-3.9-4.9-3.6-4.9,0v25s-4.2,7.1-5.4,9.9-2.8,6.2,1.2,10.8c.3.4.8,1.3,6.6,6.8h.1l5.1-5.1c6.4-6.4,4.1-10.4,1.2-15.6M74.4,49.1c-9.6-5.1-2.7-12.1,0-16.7l.2.4c7.1,10.5,5.2,12.1-.2,16.3m-3,39c-.3-4.9-2-9.3-12-13C51,71.9,39,71.2,30.3,69.9S7.2,66.1,0,59.3c5.4,18,18.9,25.5,32.7,28.4,15.6,3.3,29.5,4.7,38,10.6l.9.6c-.5-4.2.1-5.9-.2-10.8m-4.3,2.4c-7.4-2.8-12.4-3.6-25.8-6.3S19.9,79,12.7,71.4c11.6,4.5,30.3,6.1,40.4,8.2s13,4.9,14,10.9Zm9.8,8.4.9-.6c8.5-5.9,22.4-7.3,38-10.6,13.7-2.9,27.3-10.4,32.7-28.4-7.2,6.9-21.6,9.3-30.3,10.6S97.6,72,89.1,75.1c-10.1,3.8-11.8,8.1-12,13s.3,6.6-.2,10.8m4.4-8.4c1.1-6,3.9-8.7,14-10.8s28.8-3.8,40.4-8.2c-7.2,7.6-15.2,10.1-28.6,12.8s-18.4,3.4-25.8,6.2ZM70.9,111c.1-9.7-5.4-12.4-13.7-14.5s-19.7-3.8-29.5-6.6S12.5,85.2,5.9,78.1c1.4,14,11.2,23.9,23.2,28.1s11.4,3.4,17.9,5,7.7,4,7.7,8v8.2H70.9c.3-18.7-.1-6.8,0-16.4m-4.7,11.1H59.6a51.8,51.8,0,0,0-.2-7.4c-.5-6.2-7.7-6.7-19.6-10-8.1-2.3-18.8-5.2-23.5-13.3a87.7,87.7,0,0,0,18.1,5.7l22.4,4.6c7.9,1.6,9.4,6.5,9.4,11.8Zm11,5.3H93.4v-8.2c0-4,1.2-6.4,7.7-8s5.9-.8,17.9-5,21.8-14.1,23.2-28.1c-6.6,7.2-12,9-21.8,11.8s-21.3,4.4-29.5,6.6S77.1,101.4,77.2,111s-.3-2.3,0,16.4m4.7-14c0-5.3,1.5-10.1,9.4-11.8L113.7,97a81.7,81.7,0,0,0,18.1-5.7c-4.7,8.2-15.4,11.1-23.5,13.3-11.9,3.3-19.1,3.8-19.6,10a51.8,51.8,0,0,0-.2,7.4H81.9ZM38.3,172.5a28.3,28.3,0,0,1-6.5.9c-9.2,0-15.6-4.6-15.6-14.2S22.1,144,31.8,144a18.5,18.5,0,0,1,6.4,1.2l-.4,4.8a11.9,11.9,0,0,0-6.1-1.5c-5.9,0-9.5,4.5-9.5,10.3s3.6,10.1,9.6,10.1a15.5,15.5,0,0,0,6.2-1.2Zm26.3-22.4a18.7,18.7,0,0,0-7.3-1.5c-6.6,0-10.3,4.5-10.3,10.3S50.6,169,56.6,169a17.3,17.3,0,0,0,3.7-.4v-7.4h-6v-4.5H65.8V172a36.1,36.1,0,0,1-9.2,1.5c-9.2,0-15.6-4.6-15.6-14.2s5.9-15.2,15.6-15.2a25.5,25.5,0,0,1,8.3,1.2Zm6.7-5.5H77V173H71.3ZM98.5,162H90.2l4.1-11.7h.1ZM80.2,172.9h5.9l2.5-6.5h11.5l2.4,6.5h6.3L97.7,144.6H91.3ZM117.7,149h1.9c2.9,0,6,.3,6,3.7s-3.2,3.9-6,3.9h-1.9ZM112,172.9h5.7V161.1h1.8c2.4,0,3.1.8,3.9,2.9l3.4,8.9h6.3l-4.6-11.1c-.6-1.3-1.5-2.8-3-2.9h0a6.6,6.6,0,0,0,5.9-6.6c0-7.9-7.3-7.7-13.4-7.7h-6.1v28.4Z"/><path class="cls-2" d="M192.5,46.9h3.3c2.7,0,5.3.4,5.3,3.7a3.1,3.1,0,0,1-2.8,3.1h0c.6.2.9.5,1.3,1.4l2.6,5.4H200l-2.1-4.7c-.6-1.3-1.3-1.3-2.3-1.3h-1.2v6.1h-2V46.9Zm1.9,5.9h1.7c1.9,0,3-.8,3-2.1s-.9-2-2.7-2h-1.9v4.1Z"/><polygon class="cls-2" points="205.1 46.9 212.8 46.9 212.8 48.6 207.1 48.6 207.1 52.6 212.2 52.6 212.2 54.3 207.1 54.3 207.1 58.8 212.8 58.8 212.8 60.5 205.1 60.5 205.1 46.9"/><path class="cls-2" d="M222.6,48.9a5.8,5.8,0,0,0-2.6-.6c-1.1,0-2.4.4-2.4,1.8s5.9,2,5.9,6.5c0,2.9-2.2,4.1-5,4.1a8.8,8.8,0,0,1-2.8-.6l.2-1.8a7.7,7.7,0,0,0,2.8.7c1.1,0,2.7-.6,2.7-2.2,0-3.1-5.9-2.2-5.9-6.5,0-2.4,1.9-3.7,4.4-3.7a9.8,9.8,0,0,1,2.9.5Z"/><polygon class="cls-2" points="226.7 46.9 234.4 46.9 234.4 48.6 228.7 48.6 228.7 52.6 233.9 52.6 233.9 54.3 228.7 54.3 228.7 58.8 234.4 58.8 234.4 60.5 226.7 60.5 226.7 46.9"/><path class="cls-2" d="M242.3,46.9h2.1l5.8,13.7h-2.1l-1.4-3.4H240l-1.4,3.4h-2Zm1,1.8-2.7,6.8H246Z"/><path class="cls-2" d="M252.5,46.9h3.3c2.7,0,5.3.4,5.3,3.7a3.1,3.1,0,0,1-2.8,3.1h0c.6.2.9.5,1.3,1.4l2.6,5.4H260l-2.1-4.7c-.6-1.3-1.3-1.3-2.3-1.3h-1.2v6.1h-2V46.9Zm2,5.9h1.7c1.9,0,3-.8,3-2.1s-.9-2-2.7-2h-1.9v4.1Z"/><path class="cls-2" d="M274.5,49.1a5.7,5.7,0,0,0-2.8-.8,5.3,5.3,0,0,0-.1,10.6,7,7,0,0,0,3-.7v1.9a9.1,9.1,0,0,1-3.1.5c-4.3,0-7.2-2.8-7.2-7.1a6.8,6.8,0,0,1,7.2-7,8.1,8.1,0,0,1,3.1.6Z"/><polygon class="cls-2" points="277.6 46.9 279.6 46.9 279.6 52.6 286.1 52.6 286.1 46.9 288 46.9 288 60.5 286.1 60.5 286.1 54.3 279.6 54.3 279.6 60.5 277.6 60.5 277.6 46.9"/><path class="cls-2" d="M297.9,46.9h3.6c2.8,0,5.1,1,5.1,4.1s-2.4,4.1-4.8,4.1h-1.9v5.5h-2V46.9Zm2,6.5h1.9a2.4,2.4,0,0,0,2.7-2.4c0-1.7-1.8-2.3-3-2.3h-1.7v4.7Z"/><path class="cls-2" d="M309.3,46.9h3.3c2.7,0,5.3.4,5.3,3.7a3.1,3.1,0,0,1-2.8,3.1h0c.6.2.9.5,1.3,1.4l2.6,5.4h-2.2l-2.1-4.7c-.6-1.3-1.3-1.3-2.3-1.3h-1.2v6.1h-2V46.9Zm2,5.9H313c1.9,0,2.9-.8,2.9-2.1s-.9-2-2.7-2h-1.9Z"/><path class="cls-2" d="M327.7,46.7c4.1,0,6.6,3,6.6,7.1s-2.4,7.1-6.6,7.1-6.6-2.9-6.6-7.1,2.5-7.1,6.6-7.1m0,12.4c3.1,0,4.5-2.6,4.5-5.3s-1.5-5.4-4.5-5.3-4.5,2.6-4.5,5.3,1.4,5.3,4.5,5.3"/><path class="cls-2" d="M347.9,49.3a6.7,6.7,0,0,0-3.8-.9A5.3,5.3,0,0,0,344,59a8.2,8.2,0,0,0,2.2-.2V54.7h-2.9V53.1h4.8v7.1a13.7,13.7,0,0,1-4.2.6c-4.3,0-7.2-2.8-7.2-7.1a6.8,6.8,0,0,1,7.2-7,9.9,9.9,0,0,1,4,.7Z"/><path class="cls-2" d="M352,46.9h3.3c2.7,0,5.3.4,5.3,3.7a3.1,3.1,0,0,1-2.8,3.1h0c.6.2.9.5,1.3,1.4l2.6,5.4h-2.2l-2.1-4.7c-.6-1.3-1.3-1.3-2.3-1.3h-1.2v6.1h-2V46.9Zm2,5.9h1.7c1.9,0,3-.8,3-2.1s-.9-2-2.7-2h-1.9v4.1Z"/><path class="cls-2" d="M368.9,46.9H371l5.8,13.7h-2.1l-1.4-3.4h-6.7l-1.4,3.4h-2.1Zm1,1.8-2.7,6.8h5.4Z"/><polygon class="cls-2" points="379.2 46.9 382.5 46.9 386.7 58.2 390.9 46.9 394.2 46.9 394.2 60.5 392.2 60.5 392.2 48.7 392.2 48.7 387.7 60.5 385.7 60.5 381.2 48.7 381.2 48.7 381.2 60.5 379.2 60.5 379.2 46.9"/><path class="cls-2" d="M410,46.7c4.1,0,6.6,3,6.6,7.1s-2.4,7.1-6.6,7.1-6.6-2.9-6.6-7.1,2.4-7.1,6.6-7.1m0,12.4c3.1,0,4.5-2.6,4.5-5.3s-1.5-5.4-4.5-5.3-4.5,2.6-4.5,5.3,1.3,5.3,4.5,5.3"/><polygon class="cls-2" points="419.8 46.9 422.4 46.9 428.5 57.9 428.5 57.9 428.5 46.9 430.5 46.9 430.5 60.5 428 60.5 421.8 49.3 421.7 49.3 421.7 60.5 419.8 60.5 419.8 46.9"/><path class="cls-4" d="M209.5,98.4a21.5,21.5,0,0,1-5,.7c-7.2,0-12.2-3.6-12.2-11.1s4.6-11.9,12.2-11.9a15.1,15.1,0,0,1,5,.9l-.3,3.8a8.8,8.8,0,0,0-4.8-1.2c-4.6,0-7.4,3.5-7.4,8s2.8,7.9,7.5,7.9a13.8,13.8,0,0,0,4.9-.9Z"/><rect class="cls-4" x="212.9" y="74.8" width="4.3" height="23.8"/><path class="cls-4" d="M222,75.3h4.3v4.1H222Zm0,7h4.3V98.7H222Z"/><path class="cls-4" d="M231,82.3h4v2.3h.1a5.8,5.8,0,0,1,4.9-2.7,4.8,4.8,0,0,1,4.8,2.9,5.6,5.6,0,0,1,5.1-2.9c4,0,5.2,2.8,5.2,6.4V98.7h-4.3V88.9c0-1.5,0-3.7-2.4-3.7s-3.2,3.4-3.2,5.5v7.9h-4.3V88.8c0-1.5,0-3.7-2.4-3.7s-3.2,3.4-3.2,5.5v7.9H231Z"/><path class="cls-4" d="M260.4,83.2a13.9,13.9,0,0,1,5.7-1.2c5,0,7.1,2.1,7.1,6.9V91c0,1.6,0,2.9.1,4.1s.1,2.4.2,3.6h-3.8a11.9,11.9,0,0,1-.2-2.5h-.1a5.8,5.8,0,0,1-5,2.8c-2.9,0-5.7-1.7-5.7-4.9a4.9,4.9,0,0,1,2.8-4.7,12.8,12.8,0,0,1,5.5-1h2.4c0-2.6-1.2-3.5-3.7-3.5a8.8,8.8,0,0,0-5.1,1.8Zm5,12.8a3.7,3.7,0,0,0,3-1.5,5.4,5.4,0,0,0,.9-3.4h-1.8c-1.9,0-4.7.3-4.7,2.8s1,2.1,2.6,2.1"/><path class="cls-4" d="M279,85.4h-3.1V82.3H279V79l4.3-1.4v4.6h3.8v3.1h-3.8v7.6c0,1.4.4,2.7,2,2.7a4.5,4.5,0,0,0,1.9-.4v3.4a9.7,9.7,0,0,1-3.1.4c-3.3,0-5.2-2.1-5.2-5.3Z"/><path class="cls-4" d="M303.4,97.8a10.8,10.8,0,0,1-5.6,1.3c-5.4,0-8.6-3.1-8.6-8.5s2.5-8.6,7.6-8.6,7.8,4.2,7.8,9.9H293.3c.2,2.6,2,4.1,4.7,4.1a10.5,10.5,0,0,0,5.4-1.7v3.5Zm-2.8-8.9c-.1-2.1-1.1-3.8-3.5-3.8s-3.6,1.7-3.8,3.8Z"/><path class="cls-4" d="M334,98.4a21.6,21.6,0,0,1-5.1.7c-7.2,0-12.2-3.6-12.2-11.1s4.6-11.9,12.2-11.9a15.1,15.1,0,0,1,5,.9l-.3,3.8a8.8,8.8,0,0,0-4.8-1.2c-4.6,0-7.4,3.5-7.4,8s2.8,7.9,7.5,7.9a13.8,13.8,0,0,0,4.9-.9Z"/><path class="cls-4" d="M337.2,74.9h4.3v9.7h.1a6,6,0,0,1,5.1-2.6c3.9,0,5.6,2.7,5.6,6.4V98.7H348V90c0-2,0-4.7-2.8-4.7s-3.8,3.3-3.8,5.4v8h-4.3V74.9Z"/><path class="cls-4" d="M357.7,83.2a13.9,13.9,0,0,1,5.7-1.2c5,0,7.1,2.1,7.1,6.9V91c0,1.6,0,2.9.1,4.1s.1,2.4.2,3.6H367a11.9,11.9,0,0,1-.2-2.5h-.1a5.9,5.9,0,0,1-5.1,2.8c-2.9,0-5.7-1.7-5.7-4.9a4.9,4.9,0,0,1,2.8-4.7,12.8,12.8,0,0,1,5.5-1h2.4c0-2.6-1.2-3.5-3.7-3.5a8.8,8.8,0,0,0-5.1,1.8Zm5,12.8a3.7,3.7,0,0,0,3-1.5,5.4,5.4,0,0,0,.9-3.4h-1.9c-1.9,0-4.7.3-4.7,2.8s1.1,2.1,2.7,2.1"/><path class="cls-4" d="M374.9,82.3h4v2.2h.1a6,6,0,0,1,5.4-2.6c3.9,0,5.6,2.7,5.6,6.4V98.7h-4.3V90c0-2,0-4.7-2.8-4.7s-3.8,3.3-3.8,5.4v8h-4.3V82.3Z"/><path class="cls-4" d="M409.7,82.3V97.1c0,4.4-1.8,8.6-8.6,8.6a15.9,15.9,0,0,1-5.7-1.1l.4-3.6a12,12,0,0,0,4.8,1.4c4.7,0,4.9-3.5,4.9-6.4h-.1a5.9,5.9,0,0,1-5.1,2.6c-4.8,0-6.7-3.9-6.7-8.3s2-8.5,6.9-8.5a5.3,5.3,0,0,1,5,2.6h.1V82.2h4.1Zm-4.3,8c0-2.8-1.1-5.1-3.6-5.1s-3.8,2.7-3.8,5.2,1.2,5,3.6,5,3.8-2.3,3.8-5.1"/><path class="cls-4" d="M427.5,97.8a10.8,10.8,0,0,1-5.6,1.3c-5.4,0-8.5-3.1-8.5-8.5S415.9,82,421,82s7.8,4.2,7.8,9.9H417.5c.2,2.6,2,4.1,4.7,4.1a10.5,10.5,0,0,0,5.4-1.7v3.5Zm-2.8-8.9c-.1-2.1-1.1-3.8-3.5-3.8s-3.6,1.7-3.8,3.8Z"/><polygon class="cls-4" points="433 94.2 437.6 94.2 434.7 102.2 430.9 102.2 433 94.2"/><path class="cls-4" d="M199.8,113.6h5l8.7,22.2h-4.9l-1.9-5.1h-9l-1.9,5.1h-4.6Zm2.4,4.4h0l-3.3,9.2h6.5Z"/><path class="cls-4" d="M231.3,119.4v14.8c0,4.4-1.8,8.6-8.6,8.6a15.9,15.9,0,0,1-5.7-1.1l.4-3.6a12,12,0,0,0,4.8,1.4c4.7,0,4.9-3.5,4.9-6.4H227a5.9,5.9,0,0,1-5.1,2.6c-4.8,0-6.7-3.9-6.7-8.3s2-8.5,6.9-8.5a5.3,5.3,0,0,1,5,2.6h.1v-2.2h4.1Zm-4.2,8c0-2.8-1.1-5.1-3.6-5.1s-3.8,2.7-3.8,5.2,1.2,5,3.6,5,3.8-2.4,3.8-5.1"/><path class="cls-4" d="M236.1,119.4h3.8v3.7h.1c.2-1.5,1.9-4.1,4.5-4.1h1.3v4.3a4.7,4.7,0,0,0-1.9-.3c-3.5,0-3.5,4.3-3.5,6.7v6h-4.3Z"/><path class="cls-4" d="M248.8,112.3h4.3v4.1h-4.3Zm0,7.1h4.3v16.4h-4.3Z"/><path class="cls-4" d="M268.5,122.9a6,6,0,0,0-2.9-.6c-2.6,0-4.3,2.1-4.3,5.2s1.4,5.3,4.4,5.3a8,8,0,0,0,3.3-.8l.2,3.5a13.4,13.4,0,0,1-4.3.5c-5.4,0-8.1-3.6-8.1-8.6s2.8-8.5,7.9-8.5a15.3,15.3,0,0,1,4.1.5Z"/><path class="cls-4" d="M287.3,135.8h-4v-2.2h-.1a6.7,6.7,0,0,1-5.4,2.6c-3.9,0-5.6-2.7-5.6-6.4V119.5h4.3v8.7c0,2,0,4.7,2.8,4.7s3.8-3.3,3.8-5.4v-8h4.3v16.3Z"/><rect class="cls-4" x="292.1" y="111.9" width="4.3" height="23.8"/><path class="cls-4" d="M302.6,122.5h-3.1v-3.1h3.1v-3.3l4.3-1.4v4.6h3.8v3.1h-3.8V130c0,1.4.4,2.7,2,2.7a3.3,3.3,0,0,0,1.9-.5v3.4a9.7,9.7,0,0,1-3.1.4c-3.3,0-5.2-2.1-5.2-5.3Z"/><path class="cls-4" d="M328.9,135.8h-4v-2.2h-.1a6.7,6.7,0,0,1-5.4,2.6c-3.9,0-5.6-2.7-5.6-6.4V119.5h4.3v8.7c0,2,0,4.7,2.8,4.7s3.8-3.3,3.8-5.4v-8H329v16.3Z"/><path class="cls-4" d="M333.7,119.4h3.8v3.7h.1c.2-1.5,1.9-4.1,4.5-4.1h1.3v4.3a5,5,0,0,0-1.9-.3c-3.5,0-3.5,4.3-3.5,6.7v6h-4.3Z"/><path class="cls-4" d="M359.4,134.9a10.8,10.8,0,0,1-5.6,1.3c-5.4,0-8.5-3.1-8.5-8.5s2.5-8.7,7.6-8.7,7.8,4.2,7.8,9.9H349.4c.2,2.6,2,4.1,4.7,4.1a10.5,10.5,0,0,0,5.4-1.7v3.6Zm-2.8-8.9c-.1-2.1-1.1-3.8-3.5-3.8s-3.6,1.7-3.8,3.8Z"/><path class="cls-4" d="M374.2,120.3a14.2,14.2,0,0,1,5.7-1.2c5,0,7.1,2.1,7.1,6.9v2.1c0,1.6,0,2.9.1,4.1s.1,2.4.2,3.6h-3.8a11.5,11.5,0,0,1-.2-2.4h-.1a5.9,5.9,0,0,1-5.1,2.8c-2.9,0-5.7-1.7-5.7-4.9a4.9,4.9,0,0,1,2.8-4.7,12.8,12.8,0,0,1,5.5-1h2.4c0-2.6-1.2-3.5-3.7-3.5a8.8,8.8,0,0,0-5.1,1.8Zm5,12.7a3.7,3.7,0,0,0,3-1.5,5.4,5.4,0,0,0,.9-3.4h-1.8c-1.9,0-4.7.3-4.7,2.8s1,2.1,2.6,2.1"/><path class="cls-4" d="M391.4,119.4h4v2.2h.1a6,6,0,0,1,5.4-2.6c3.9,0,5.6,2.7,5.6,6.4v10.3h-4.3V127c0-2,0-4.7-2.8-4.7s-3.8,3.3-3.8,5.4v8h-4.3V119.4Z"/><path class="cls-4" d="M422.1,133.9h0a6.2,6.2,0,0,1-5.1,2.2c-5,0-6.9-4.1-6.9-8.6s1.8-8.5,6.9-8.5a5.8,5.8,0,0,1,4.9,2.3h.1v-9.4h4.3v23.8h-4.1v-1.8Zm-3.9-1.1c2.8,0,3.8-3,3.8-5.3s-1.1-5.2-3.8-5.2-3.5,3-3.5,5.2.7,5.3,3.5,5.3"/><polygon class="cls-4" points="193.4 150.7 205.7 150.7 205.7 154.2 197.9 154.2 197.9 159.6 205.4 159.6 205.4 163.1 197.9 163.1 197.9 172.9 193.4 172.9 193.4 150.7"/><path class="cls-4" d="M216.7,156.1c4.9,0,8.6,3.3,8.6,8.7s-3.1,8.5-8.6,8.5-8.5-3.8-8.5-8.5,3.7-8.7,8.5-8.7m0,13.8c3.3,0,4.1-2.9,4.1-5.7s-1.3-4.9-4.1-4.9-4.1,2.4-4.1,4.9.9,5.7,4.1,5.7"/><path class="cls-4" d="M236.5,156.1c4.9,0,8.6,3.3,8.6,8.7s-3.1,8.5-8.6,8.5-8.5-3.8-8.5-8.5,3.6-8.7,8.5-8.7m0,13.8c3.3,0,4.1-2.9,4.1-5.7s-1.3-4.9-4.1-4.9-4.1,2.4-4.1,4.9.8,5.7,4.1,5.7"/><path class="cls-4" d="M259.6,171h0a6.2,6.2,0,0,1-5.1,2.2c-5,0-6.9-4.1-6.9-8.6s1.8-8.5,6.9-8.5a5.8,5.8,0,0,1,4.9,2.3h.1V149h4.3v23.8h-4.1V171Zm-3.9-1.1c2.8,0,3.8-3,3.8-5.3s-1.1-5.2-3.8-5.2-3.5,3-3.5,5.2.7,5.3,3.5,5.3"/><path class="cls-4" d="M289.9,154.7a11.8,11.8,0,0,0-4.5-1c-1.5,0-3.5.7-3.5,3.1s9.7,2.2,9.7,9.7c0,4.9-3.8,6.7-8.3,6.7a17.9,17.9,0,0,1-5.7-.9l.4-4a11.1,11.1,0,0,0,5,1.4c1.7,0,3.9-.9,3.9-2.9,0-4.2-9.7-2.5-9.7-9.8,0-5,3.8-6.8,7.7-6.8a17.8,17.8,0,0,1,5.3.8Z"/><path class="cls-4" d="M308.7,171.9a10.8,10.8,0,0,1-5.6,1.3c-5.4,0-8.5-3.1-8.5-8.5s2.5-8.6,7.6-8.6,7.8,4.2,7.8,9.9H298.7c.2,2.6,2,4.1,4.7,4.1a10.5,10.5,0,0,0,5.4-1.7v3.5Zm-2.8-8.8c-.1-2.1-1.1-3.8-3.5-3.8s-3.6,1.7-3.8,3.8Z"/><path class="cls-4" d="M324.2,160a7.4,7.4,0,0,0-2.9-.6c-2.6,0-4.3,2.1-4.3,5.2s1.4,5.3,4.4,5.3a8,8,0,0,0,3.3-.8l.2,3.5a13.4,13.4,0,0,1-4.3.5c-5.4,0-8.1-3.6-8.1-8.6s2.8-8.5,7.9-8.5a15.3,15.3,0,0,1,4.1.5Z"/><path class="cls-4" d="M343,172.9h-4v-2.2h-.1a6.7,6.7,0,0,1-5.4,2.6c-3.9,0-5.6-2.7-5.6-6.4V156.6h4.3v8.7c0,2,0,4.7,2.8,4.7s3.8-3.3,3.8-5.4v-8h4.3v16.3Z"/><path class="cls-4" d="M347.9,156.5h3.8v3.7h.1c.2-1.5,1.9-4.1,4.5-4.1h1.3v4.3a4.7,4.7,0,0,0-1.9-.3c-3.5,0-3.5,4.3-3.5,6.7v6h-4.3V156.5Z"/><path class="cls-4" d="M360.5,149.4h4.3v4.1h-4.3Zm0,7.1h4.3v16.4h-4.3Z"/><path class="cls-4" d="M371,159.6h-3.1v-3.1H371v-3.3l4.3-1.4v4.6h3.8v3.1h-3.8v7.6c0,1.4.4,2.7,2,2.7a4.5,4.5,0,0,0,1.9-.4v3.4a9.7,9.7,0,0,1-3.1.4c-3.3,0-5.2-2.1-5.2-5.3Z"/><path class="cls-4" d="M389.1,168.4h0l4-12h4.3l-6.1,16.2c-1.4,3.6-2.4,7.2-6.8,7.2a15.4,15.4,0,0,1-3-.4l.3-3.1a5.7,5.7,0,0,0,2.2.3,2.7,2.7,0,0,0,2.8-2.9l-6.3-17.2h4.7Z"/></g></g></svg>