<svg xmlns="http://www.w3.org/2000/svg" viewBox="0 0 321.3 598.9"><defs><style>.cls-1{fill:#e22022;stroke:#e22022;}.cls-1,.cls-2{stroke-miterlimit:10;stroke-width:0.09px;}.cls-2{fill:#0b6fb7;stroke:#0b6fb7;}</style></defs><title>java</title><g id="Capa_2" data-name="Capa 2"><g id="Layer_1" data-name="Layer 1"><path class="cls-1" d="M202,.2c9.4,10.7,12.5,26,9.8,39.8-2.9,15.5-11.5,29.2-21.6,41a199.6,199.6,0,0,1-27.1,25.7c-11.3,9.1-22.4,18.9-29.5,31.7a41.4,41.4,0,0,0-3.3,34.5c6.7,19.4,22.3,33.8,30.8,52.1-9.4-8.3-18.6-16.9-27.2-26s-17.5-19.8-23.1-31.8c-3.8-8.4-5.5-18.2-2.6-27.1s9.4-16.4,15.9-23.2c18.1-18.1,40.4-31.4,58.1-49.8C192,57,200.1,44.9,202.9,31c2.3-10.2,1.2-20.7-.9-30.8Z"/><path class="cls-1" d="M187.2,114.1c19.4-14.3,42.1-23.4,65.1-30-18.2,11.6-37.2,22.2-52.9,37.1-5.7,5.5-11.1,11.8-13.6,19.5-1.9,5.7-1.1,12,1.2,17.4,4.2,9.6,11.3,17.4,16.7,26.2a27.7,27.7,0,0,1,1.9,25.2c-5.3,11.9-15.7,20.6-26.5,27.5-1.4.8-2.6,2.3-4.3,2.5,7.2-6.5,12.8-15.7,12.6-25.6-.2-7.4-4.3-13.9-9.1-19.2-9.9-11.8-18.2-26.8-16.5-42.7s13.1-28.7,25.4-37.9Z"/><path class="cls-2" d="M256,229.7c4.2-5.1,10.9-6.4,17-7.2,10.6-1.4,21.9,1.3,29.9,8.6a27.2,27.2,0,0,1,8.9,24c-1.5,10.3-8.4,18.9-16.2,25.4-14.1,11.3-31.5,17.9-48.9,22.3a15.7,15.7,0,0,1,3.4-2.9c13.2-7.1,26.3-15.4,36-27,5.9-7.2,10.5-16.6,8.6-26.1s-12.7-19-23.6-19.6c-5.2-.5-10.1,1.5-15.1,2.5Z"/><path class="cls-2" d="M55,238.8c18.4-7.9,38.4-13,58.5-12.7-11.7,3.4-23.7,6.3-34.7,11.5-2.6,1.4-5.6,2.7-7.1,5.4s1.4,3.5,3,4.2c6.8,2.8,14.3,3.2,21.6,3.9,25.6,1.7,51.3.7,76.8-.9s50.2-5,75.1-9a138.6,138.6,0,0,0-16.2,8.5c-2.6,1.8-5.8,2.3-8.7,3-30.6,6.8-62,8.9-93.2,9.4-12.1.1-24.1-.1-36.1-.9s-26.9-1.9-40-5.4c-3.8-1.1-7.8-2.3-10.8-5a3.5,3.5,0,0,1-.2-5c3.3-3.4,7.9-5,12-7Z"/><path class="cls-2" d="M78.6,281.5c5.2-4.1,11.4-6.4,17.6-8.6-2,2.4-4.8,4.7-5,8s1.6,3.7,3.3,4.7c3.3,1.7,7,2.3,10.7,2.8,19.2,2,38.6,3.1,58,1.8,17.7-.9,35.3-3.8,52.8-6.9,4.8,4.5,10.5,7.6,16.5,10.3a316.1,316.1,0,0,1-64.6,11.5c-20.6,1.4-41.5,1.3-62-2-8.1-1.5-16.4-3.2-23.8-7-3-1.6-6.4-3.7-7.3-7.2s1.6-5.7,3.8-7.4Z"/><path class="cls-2" d="M90.2,325.1c4.6-3.7,10.3-5.6,15.9-7.2-1.8,1.7-5,3.8-3.6,6.7s7.7,3.9,11.7,4.8c16.9,2.1,34,3.5,50.9,2.2,12.8-.8,25.4-3.1,37.9-5.3a186.1,186.1,0,0,0,22.4,11c-11.8,5.3-24.5,8.7-37.2,11.1a197,197,0,0,1-65,.9c-9.5-1.7-19.2-3.9-27.8-8.6-3.3-1.9-6.8-4.1-8.2-7.8s.7-6,3-7.8Z"/><path class="cls-2" d="M34.7,353.4c9.2-3.1,18.7-5.6,28.4-5.9,3.9-.1,7.9.1,11.3,2.1a85.6,85.6,0,0,0-33.6,8.9c-2.3,1.3-4.9,2.8-5.8,5.5s3.5,4.1,5.8,5.1c14.5,5.4,30,7.1,45.2,8.7,45.3,3.8,90.9,2.8,136.2-1.3,17.1-1.9,34.3-3.8,50.9-8.5,5.3-1.8,11.3-3.6,14.8-8.3,2.1-2.8.7-6.3-1.4-8.7,3.4,1.9,8.2,4.3,7.5,8.9s-6.2,7.3-10.2,9.6c-12.8,6.5-26.9,9.8-40.9,12.7-40.7,8-82.4,9.8-123.8,8.6a694.5,694.5,0,0,1-93.2-9.4c-5.5-1.3-11.7-2.4-15.7-6.7s-.3-7.2,2.2-9.4c6.3-5.8,14.4-9,22.3-11.9Z"/><path class="cls-2" d="M283.9,387.6c10.1-3.5,20.9-7.2,28.4-15.2-1.3,8.7-8.8,14.7-16.2,18.6-14.2,7.4-30.1,10.8-45.9,13.6-33.4,5.3-67.3,6.6-101.2,6-23.1-.7-46.4-1.6-69.1-6.4-5.4-1.5-11.2-2.5-15.9-5.7,20.2,3.4,40.7,4.8,61.2,5.6a655.6,655.6,0,0,0,101-4.5c19.4-2.7,38.9-6,57.7-12Z"/><path class="cls-1" d="M20.4,535.9c.1-32.8-.1-65.6.1-98.5,6.8.2,13.6,0,20.4.2-.1,36.7,0,73.5-.1,110.3-.2,10.3-.4,21.1-5.4,30.3S20.1,594.9,9.7,598.9c-3.3-3.6-6.3-7.4-9.6-11h0c8.4-4.9,16.8-11.9,18.8-22s1.3-20,1.5-30Z"/><path class="cls-1" d="M59.8,476.9c13.5-5.8,28.5-8.8,43.2-7.2,7.6.9,15.5,3.7,20.4,9.8s5.6,11.9,5.5,18.4V565H113.8c-.5-3.3-1-6.7-1.4-10.1-5.7,4.5-11.8,8.8-18.9,10.6a40.8,40.8,0,0,1-24.9-1.2A21.9,21.9,0,0,1,56,549.9c-2.5-9.3-1.2-20.2,5.4-27.7S76.2,511.9,85,510.3s16.4-1.6,24.7-1.6c-.2-6.3,1-13.2-2.6-18.8s-8.2-6-13.1-6.3c-10.7-.9-21.3,1.8-31.4,5.3-1-4-1.9-8-2.8-12m24.8,46.4c-4.4,1.4-8.5,4.6-9.7,9.2s-1,11.1,2.3,15.4,9,5.2,14,4.6c7-.8,13.1-4.8,18.5-9.1,0-7.5-.1-14.9,0-22.4-8.4,0-17-.5-25.1,2.3Z"/><path class="cls-1" d="M235.6,476.9c13.6-5.8,28.6-8.9,43.4-7.2,7.4.9,15,3.6,19.9,9.4s6,12.8,5.9,19.8c-.1,22.1.1,44.1-.2,66.2-5-.2-10,.1-15-.2-.5-3.4-.9-6.7-1.5-10-7,6-15.4,10.9-24.9,11.7s-18.5-.3-25.3-6.5-8.3-17.3-6.5-26.4,8-15.3,15.6-19c11.9-5.8,25.5-6.1,38.5-6-.2-6.1.9-12.6-2.2-18.1s-7.5-6.4-12.3-6.9c-11.1-1.2-22.2,1.6-32.6,5.2-.9-4-1.9-8-2.8-12m24.5,46.5c-4.2,1.4-8.1,4.6-9.4,9s-1,11.1,2.2,15.5,9.2,5.2,14.3,4.6c6.9-1,13.2-4.8,18.4-9.4-.2-7.3-.1-14.7-.1-22.1-8.5,0-17.2-.5-25.4,2.4Z"/><path class="cls-1" d="M140.3,470.9h21l12.2,39.5c2.4,8.1,5.4,16.1,7.1,24.4.9,3.7,1.7,7.5,2.8,11.1,8.6-24.3,15.2-49.4,18.6-75h20.4c-5.9,32.4-15.2,64.3-29.2,94.1h-24q-14.4-47.1-28.9-94.1Z"/><path class="cls-1" d="M308.8,469h-2.5v-.9h6v.9h-2.5v7.2h-1.1Z"/><path class="cls-1" d="M320,472.7c-.1-1.1-.1-2.5-.1-3.5h0c-.3.9-.6,2-1,3.1l-1.4,3.9h-.8l-1.3-3.8c-.4-1.2-.7-2.2-.9-3.1h0c0,1-.1,2.4-.2,3.6l-.2,3.5h-1l.6-8.1h1.3l1.4,3.9c.3,1,.6,1.9.8,2.7h0c.2-.8.5-1.7.9-2.7l1.4-3.9h1.3l.5,8.1h-1Z"/></g></g></svg>