<svg xmlns="http://www.w3.org/2000/svg" viewBox="0 0 382.2 197.8"><defs><style>.cls-1{fill:#00833e;}.cls-2{fill:#00a8e1;}.cls-3{fill:#63a70a;}.cls-4{fill:#fff;}</style></defs><title>logoicdf</title><g id="Capa_2" data-name="Capa 2"><g id="Capa_1-2" data-name="Capa 1"><polygon class="cls-1" points="8.1 89.6 0 89.6 0 85 21.7 85 21.7 89.6 13.6 89.6 13.6 112.3 8.1 112.3 8.1 89.6"/><path class="cls-1" d="M36.2,101.5,32.5,91.4l-3.7,10.2Zm4.1,10.8L38,106.1H27.1l-2.3,6.2H18.9L29.6,85h5.8l11,27.3Z"/><rect class="cls-1" x="50.3" y="85" width="5.5" height="27.35"/><polygon class="cls-1" points="61.2 85 66.8 85 70.9 103.8 71 103.8 76 85 82.5 85 87.3 104.1 87.4 104.1 91.5 85 97.1 85 90.4 112.3 84.6 112.3 79.2 91.9 79.1 91.9 73.7 112.3 67.7 112.3 61.2 85"/><path class="cls-1" d="M114.2,101.5l-3.8-10.2-3.7,10.2Zm4.1,10.8-2.4-6.2H105l-2.3,6.2H96.9L107.6,85h5.8l11,27.3Z"/><polygon class="cls-1" points="127.4 85 132.8 85 143.9 103.2 144 103.2 144 85 149.1 85 149.1 112.3 143.5 112.3 132.6 94.5 132.5 94.5 132.5 112.3 127.4 112.3 127.4 85"/><path class="cls-2" d="M378,71.9C359.8,20.1,282.8,0,282.8,0s-21.7,29.1-30.1,64c15.1,1.5,29.9,5.4,42.4,13.6,48.5,31.6,53.6,109.9,53.6,109.9S396.3,123.6,378,71.9"/><path class="cls-3" d="M253.5,115.6c-5.9-16.8-4.9-34.9-.8-51.6-43.5-4.2-89.3,12.7-89.3,12.7s4.6,74,53.1,105.6,132.2,5.1,132.2,5.1-77-20.1-95.2-71.9"/><path class="cls-1" d="M295.1,77.6c-12.5-8.1-27.3-12.1-42.4-13.6-4.1,16.7-5.1,34.8.8,51.6,18.2,51.8,95.2,71.9,95.2,71.9s-5.1-78.3-53.6-109.9"/><path class="cls-1" d="M294.9,96.2a33.9,33.9,0,0,0-6.5.5l-8.6,44.7a38.1,38.1,0,0,0,6.4.4c7.9,0,14.9-2.7,19.3-7.9s7.1-12.4,7.1-21c0-10.8-5.9-16.7-17.7-16.7"/><path class="cls-4" d="M206,85H191.4l-10.5,55.4a131.8,131.8,0,0,0,7.2,12.8H193Z"/><path class="cls-4" d="M232.4,101.5A24.4,24.4,0,0,1,248,96.3c5.9,0,10.4,1.2,12.3,2.2l4-11.8c-2-1.1-7.6-2.8-15-2.8-9.6,0-17.9,2.3-25,7.2-10.3,6.9-17.2,18.8-17.2,34.3,0,18,12,28.9,30.1,28.9,8.2,0,14.3-1.3,17.9-2.9l-1.2-11.7a34.9,34.9,0,0,1-12.9,2.2c-11.9,0-18.1-7.3-18.1-18.2s3.7-17.3,9.4-22"/><path class="cls-4" d="M305.5,133.9c-4.4,5.2-11.4,7.9-19.3,7.9a38.1,38.1,0,0,1-6.4-.4l8.6-44.7a33.9,33.9,0,0,1,6.5-.5c11.8,0,17.7,5.9,17.7,16.7,0,8.6-2.4,15.8-7.1,21m13.7-42.5c-5.6-4.8-14.2-6.9-25.2-6.9a108.4,108.4,0,0,0-18.4,1.5l-12.6,66.2a120.9,120.9,0,0,0,18.7,1.3c14.8,0,24.8-2.7,32.7-9.1s13.9-18.8,13.9-32.1c0-9.6-3.3-16.4-9.1-20.9"/><path class="cls-4" d="M342.5,85l-12.9,68.1h14.6l5.2-27.5h22l2.4-12.2H351.6l3.1-16h27.5a83.6,83.6,0,0,0-.9-12.4Z"/></g></g></svg>