<svg xmlns="http://www.w3.org/2000/svg" viewBox="0 0 772.8 407"><defs><style>.cls-1{fill:#3aaa35;}.cls-2{fill:#dedc00;}.cls-3{fill:#706f6f;}.cls-4{fill:#0982ea;}</style></defs><title>logocrop</title><g id="Capa_2" data-name="Capa 2"><g id="Capa_1-2" data-name="Capa 1"><path class="cls-1" d="M19.7,221.4C50.2,207.8,64.3,207,83.2,204c71.3-11.3,126.3,6.6,140.9,11.7a278.3,278.3,0,0,1,57.2,27.7l-37.2,32.7-60.2,24H114.7L58.5,273.4,32.2,237Z"/><path class="cls-2" d="M247.9,225.3s8.3,37.6-59.3,69.8c0,0,43.8-4.7,47.1-7.5S263.3,244.7,247.9,225.3Z"/><path class="cls-2" d="M201,208.9S146.3,257,32.2,237c0,0,29.9,32.6,34.2,32.6S157.2,252.7,201,208.9Z"/><path class="cls-2" d="M224.1,215.7S210.4,268.4,97,292.6c0,0,39.9,19,43.9,17.4S227.1,264.6,224.1,215.7Z"/><path class="cls-1" d="M156.7,4.2A155,155,0,0,0,32.9,65.9q-3.8,5-7.2,10.3h.8A15.6,15.6,0,0,1,41.2,86.3q3.3-5.2,7-10.1A136.5,136.5,0,0,1,156.7,22.6c75.4,0,136.7,61.3,136.7,136.7S232.1,296,156.7,296,20.1,234.7,20.1,159.3a136.4,136.4,0,0,1,6.3-40.9q1.9-5.9,4.2-11.5a15.7,15.7,0,0,1-3.9.5A15.5,15.5,0,0,1,13.4,100q-2.4,5.8-4.3,11.8a154.4,154.4,0,0,0-7.5,47.5c0,85.5,69.6,155.1,155.1,155.1s155.1-69.6,155.1-155.1S242.3,4.2,156.7,4.2Z"/><path class="cls-1" d="M48.2,76.3a26.6,26.6,0,1,0-21.9,42.1h.3A26.6,26.6,0,0,0,48.2,76.3ZM30.5,106.8a15.7,15.7,0,0,1-3.9.5,15.6,15.6,0,0,1-.8-31.1h.8a15.6,15.6,0,0,1,3.9,30.7Z"/><path class="cls-1" d="M69.8,82.5A45.6,45.6,0,0,0,67,73.7l-8.9,2.8A35.1,35.1,0,0,1,61,85.3a36.2,36.2,0,0,1-18.3,38.3,35.7,35.7,0,0,1-8.6,3.3l3.4,8.7A45.5,45.5,0,0,0,70.8,91.8,45.9,45.9,0,0,0,69.8,82.5Z"/><path class="cls-1" d="M86.9,77.6a60.2,60.2,0,0,0-2.8-8.8l-8.8,2.8a52.2,52.2,0,0,1,4,20.2,52.3,52.3,0,0,1-29.1,46.9,51.3,51.3,0,0,1-8.6,3.4l3.4,8.6a60.2,60.2,0,0,0,8.6-3.4A61.5,61.5,0,0,0,86.9,77.6Z"/><path class="cls-1" d="M105.2,71.3a81.2,81.2,0,0,0-2.8-8.8l-8.8,2.8a69.3,69.3,0,0,1,2.8,8.8,72.4,72.4,0,0,1,2.2,17.7,73.3,73.3,0,0,1-42.5,66.5,69.8,69.8,0,0,1-8.6,3.4l3.3,8.6a79.4,79.4,0,0,0,8.6-3.3,82.6,82.6,0,0,0,48.3-75.1A82.3,82.3,0,0,0,105.2,71.3Z"/><circle class="cls-1" cx="206.3" cy="104.1" r="13.5"/><polygon class="cls-1" points="196.4 193.6 186.6 193.6 186.6 142.6 200.6 127.7 200.6 109 210.2 109 210.2 131.5 196.4 146.4 196.4 193.6"/><path class="cls-1" d="M177.3,98.7a18.1,18.1,0,1,1,18.1-18.1A18.1,18.1,0,0,1,177.3,98.7Zm0-26.5a8.4,8.4,0,1,0,8.4,8.4A8.3,8.3,0,0,0,177.3,72.2Z"/><rect class="cls-1" x="172.8" y="92.8" width="9.7" height="96.54"/><path class="cls-1" d="M146.3,115.8A16.8,16.8,0,1,1,163,98.9h0A16.9,16.9,0,0,1,146.3,115.8Zm0-24a7.1,7.1,0,1,0,7.1,7.1A7.1,7.1,0,0,0,146.3,91.8Z"/><polygon class="cls-1" points="167.9 201.7 158.3 201.7 158.3 149.2 142.4 134 142.4 110.3 152.1 110.3 152.1 129.9 167.9 145 167.9 201.7"/><path class="cls-1" d="M202.5,177.3S199.6,98,284.6,135c0,0-24.6,3.4-28.8,25.4s-47,27.2-47,27.2,15.4-32.6,37.7-39.9C246.6,147.7,222.5,145.4,202.5,177.3Z"/><path class="cls-3" d="M41.4,362.1a11.1,11.1,0,0,1,9.3,4.6v-14H60v40H50.7v-4.3c-1.7,2.8-4.9,4.8-9.3,4.8-7.4,0-13.3-6.1-13.3-15.6S34,362.1,41.4,362.1Zm2.7,8.1c-3.5,0-6.6,2.6-6.6,7.4s3.1,7.5,6.6,7.5,6.6-2.6,6.6-7.5S47.6,370.1,44.1,370.1Z"/><path class="cls-3" d="M82.6,393.1c-8.9,0-15.2-5.9-15.2-15.5s6.3-15.5,15.2-15.5,15,5.8,15,15a23.3,23.3,0,0,1-.2,2.7H76.6c.3,3.9,2.8,5.8,5.7,5.8a4.9,4.9,0,0,0,4.8-2.9h9.8C95.5,388.6,90.1,393.1,82.6,393.1Zm-6-18.4H88.2c0-3.3-2.6-5.2-5.7-5.2A5.7,5.7,0,0,0,76.6,374.7Z"/><path class="cls-3" d="M118.3,362.1c7.6,0,12.9,4.2,14.5,11.3H123a4.8,4.8,0,0,0-4.8-3.5c-3.3,0-5.6,2.6-5.6,7.6s2.3,7.6,5.6,7.6a4.7,4.7,0,0,0,4.8-3.5h9.8c-1.6,7-6.9,11.3-14.5,11.3s-15.1-5.9-15.1-15.5S109.5,362.1,118.3,362.1Z"/><path class="cls-3" d="M139.4,354.4c0-2.8,2.2-5,5.5-5s5.5,2.2,5.5,5-2.2,5-5.5,5S139.4,357.1,139.4,354.4Zm.9,8.1h9.2v30.2h-9.2Z"/><path class="cls-3" d="M171,393.1c-8.1,0-13.5-4.5-13.9-10.3h9.1c.2,2.1,2.1,3.5,4.6,3.5s3.6-1.1,3.6-2.4c0-4.9-16.4-1.4-16.4-12.4,0-5.1,4.4-9.4,12.3-9.4s12.1,4.3,12.7,10.3h-8.5c-.3-2.1-1.8-3.4-4.4-3.4s-3.4.9-3.4,2.3c0,4.8,16.3,1.4,16.5,12.6C183.3,389.1,178.6,393.1,171,393.1Z"/><path class="cls-3" d="M190.6,354.4c0-2.8,2.2-5,5.5-5s5.5,2.2,5.5,5-2.2,5-5.5,5S190.6,357.1,190.6,354.4Zm.9,8.1h9.2v30.2h-9.2Z"/><path class="cls-3" d="M223.7,393.1c-8.9,0-15.6-5.9-15.6-15.5s6.9-15.5,15.7-15.5,15.7,5.9,15.7,15.5S232.5,393.1,223.7,393.1Zm0-8c3.3,0,6.4-2.4,6.4-7.5s-3-7.5-6.3-7.5-6.3,2.4-6.3,7.5S220.3,385.1,223.7,385.1Z"/><path class="cls-3" d="M267.7,376.3c0-4.1-2.3-6.4-5.8-6.4s-5.8,2.3-5.8,6.4v16.4h-9.2V362.5h9.2v4a11.1,11.1,0,0,1,9.1-4.3c7,0,11.6,4.8,11.6,12.9v17.6h-9.2Z"/><path class="cls-3" d="M312.2,393.1c-8.1,0-13.5-4.5-13.9-10.3h9.1c.2,2.1,2.1,3.5,4.6,3.5s3.6-1.1,3.6-2.4c0-4.9-16.4-1.4-16.4-12.4,0-5.1,4.4-9.4,12.3-9.4s12.1,4.3,12.7,10.3h-8.5c-.3-2.1-1.8-3.4-4.4-3.4s-3.4.9-3.4,2.3c0,4.8,16.3,1.4,16.5,12.6C324.4,389.1,319.7,393.1,312.2,393.1Z"/><path class="cls-3" d="M362.4,392.7h-9.2v-4.1A11,11,0,0,1,344,393c-7,0-11.7-4.8-11.7-12.9V362.5h9.2v16.4c0,4.1,2.3,6.4,5.8,6.4s5.8-2.3,5.8-6.4V362.5h9.2Z"/><path class="cls-3" d="M390.1,362.1c7.4,0,13.3,5.9,13.3,15.5s-5.9,15.6-13.3,15.6a10.8,10.8,0,0,1-9.3-4.6V407h-9.2V362.5h9.2v4.3A10.6,10.6,0,0,1,390.1,362.1Zm-2.8,8.1c-3.5,0-6.6,2.6-6.6,7.5s3.1,7.5,6.6,7.5,6.6-2.7,6.6-7.5S390.8,370.1,387.3,370.1Z"/><path class="cls-3" d="M429.3,362.1c7.4,0,13.3,5.9,13.3,15.5s-5.9,15.6-13.3,15.6a10.8,10.8,0,0,1-9.3-4.6V407h-9.2V362.5H420v4.3A10.6,10.6,0,0,1,429.3,362.1Zm-2.8,8.1c-3.5,0-6.6,2.6-6.6,7.5s3.1,7.5,6.6,7.5,6.6-2.7,6.6-7.5S430.1,370.1,426.6,370.1Z"/><path class="cls-3" d="M463.8,393.1c-8.9,0-15.6-5.9-15.6-15.5s6.9-15.5,15.7-15.5,15.7,5.9,15.7,15.5S472.6,393.1,463.8,393.1Zm0-8c3.3,0,6.4-2.4,6.4-7.5s-3-7.5-6.3-7.5-6.3,2.4-6.3,7.5S460.4,385.1,463.8,385.1Z"/><path class="cls-3" d="M496.2,392.7H487V362.5h9.2v5a11.2,11.2,0,0,1,9.5-5.4V372h-2.5c-4.4,0-6.9,1.5-6.9,6.7Z"/><path class="cls-3" d="M514.1,370.2h-3.7v-7.7h3.7v-7.4h9.2v7.4h6.1v7.7h-6.1v12.1c0,1.8.8,2.5,2.8,2.5h3.3v7.8h-4.7c-6.3,0-10.6-2.6-10.6-10.5Z"/><path class="cls-3" d="M563.4,393.1c-8.1,0-13.5-4.5-13.9-10.3h9.1c.2,2.1,2.1,3.5,4.6,3.5s3.6-1.1,3.6-2.4c0-4.9-16.4-1.4-16.4-12.4,0-5.1,4.4-9.4,12.3-9.4s12.1,4.3,12.7,10.3h-8.5c-.3-2.1-1.8-3.4-4.4-3.4s-3.4.9-3.4,2.3c0,4.8,16.3,1.4,16.5,12.6C575.6,389.1,571,393.1,563.4,393.1Z"/><path class="cls-3" d="M604.7,362.5h10L595.7,407h-9.9l6.9-15.3-12.3-29.1h10.3l7,18.9Z"/><path class="cls-3" d="M632.8,393.1c-8.1,0-13.5-4.5-13.9-10.3h9.1c.2,2.1,2.1,3.5,4.6,3.5s3.6-1.1,3.6-2.4c0-4.9-16.4-1.4-16.4-12.4,0-5.1,4.4-9.4,12.3-9.4s12.1,4.3,12.7,10.3h-8.5c-.3-2.1-1.8-3.4-4.4-3.4s-3.4.9-3.4,2.3c0,4.8,16.3,1.4,16.5,12.6C645,389.1,640.4,393.1,632.8,393.1Z"/><path class="cls-3" d="M654.7,370.2H651v-7.7h3.7v-7.4h9.2v7.4H670v7.7h-6.1v12.1c0,1.8.8,2.5,2.8,2.5h3.3v7.8h-4.7c-6.3,0-10.6-2.6-10.6-10.5Z"/><path class="cls-3" d="M691.1,393.1c-8.9,0-15.2-5.9-15.2-15.5s6.3-15.5,15.2-15.5,15,5.8,15,15a23.3,23.3,0,0,1-.2,2.7H685.1c.3,3.9,2.8,5.8,5.7,5.8a4.9,4.9,0,0,0,4.8-2.9h9.8C704,388.6,698.6,393.1,691.1,393.1Zm-6-18.4h11.6c0-3.3-2.6-5.2-5.7-5.2A5.7,5.7,0,0,0,685.1,374.7Z"/><path class="cls-3" d="M755.1,376.3c0-3.9-2.3-6.1-5.8-6.1s-5.8,2.2-5.8,6.1v16.4h-9.2V376.3c0-3.9-2.3-6.1-5.8-6.1s-5.8,2.2-5.8,6.1v16.4h-9.2V362.5h9.2v3.8a10.6,10.6,0,0,1,8.8-4.1,11.3,11.3,0,0,1,10.3,5.6,12.1,12.1,0,0,1,10.2-5.6c7.5,0,12.3,4.8,12.3,12.9v17.6h-9.2Z"/><path class="cls-4" d="M317.3,10.4h42.8V25.4H336.3v8.4h17.1V48.1H336.3V71h-19Z"/><path class="cls-4" d="M385.5,71h-19V22.7h19v8.9c3.8-5.4,9.6-9.3,15.8-9.3V42.7H396c-6.9,0-10.4,2-10.4,8.6Z"/><path class="cls-4" d="M405.2,9.5c0-5.3,4.2-9.5,11-9.5S427,4.2,427,9.5s-4.2,9.3-10.9,9.3S405.2,14.7,405.2,9.5Zm1.4,13.2h19V71h-19Z"/><path class="cls-4" d="M456.2,71.6c-14.5,0-24.7-9.3-24.7-24.8s10.2-24.8,24.7-24.8,24.7,9.2,24.7,24.3a27.8,27.8,0,0,1-.3,3.8H450.1c.3,4.9,2.6,6.3,5.1,6.3a4.6,4.6,0,0,0,4.5-2.8h20.1C477.8,63.9,468.4,71.6,456.2,71.6Zm-5.9-29.7h11.3c0-3.3-2.6-4.9-5.4-4.9S450.9,38.5,450.3,41.9Z"/><path class="cls-4" d="M519.4,45.4c0-4.6-2.7-7.5-6.8-7.5s-6.8,2.8-6.8,7.5V71h-19V22.7h19v7.4a17,17,0,0,1,14.8-7.7c11.1,0,17.6,8.1,17.6,20.6V71H519.4Z"/><path class="cls-4" d="M563.9,22.1c6.4,0,11,2.8,13.3,7.2V7.6h19V71h-19V64.4c-2.3,4.4-6.9,7.2-13.3,7.2-11.1,0-20-9.2-20-24.8S552.8,22.1,563.9,22.1Zm6.3,16.6c-3.9,0-7,2.8-7,8.1s3.1,8.1,7,8.1,7-2.8,7-8.1S574.2,38.7,570.3,38.7Z"/><path class="cls-4" d="M604.8,7.6h19V71h-19Z"/><path class="cls-4" d="M665.9,22.7h21L656,94.1H635.2l12.2-25.5L627.2,22.7h21.2l9.1,24.5Z"/><path class="cls-4" d="M317.3,225.2h25.8l14.8,40.3,14.4-40.3H398v67.1H377V258.9l-10.3,33.5h-18l-10.3-33.5v33.5h-21Z"/><path class="cls-4" d="M432.9,293c-16.1,0-28.3-10.3-28.3-27.4s12.1-27.4,28.3-27.4,28.3,10.3,28.3,27.4S449,293,432.9,293Zm0-18.2c3.7,0,6.9-2.8,6.9-9.2s-3.2-9.2-6.9-9.2-6.9,2.8-6.9,9.2S429.1,274.8,432.9,274.8Z"/><path class="cls-4" d="M487,238.2c7.1,0,12.1,3.1,14.7,8v-24h21v70.2h-21V285c-2.6,4.8-7.6,8-14.7,8-12.3,0-22.1-10.1-22.1-27.4S474.7,238.2,487,238.2Zm7,18.4c-4.4,0-7.8,3.1-7.8,9s3.4,9,7.8,9,7.8-3.1,7.8-9S498.4,256.6,494,256.6Z"/><path class="cls-4" d="M556.7,293c-16,0-27.3-10.3-27.3-27.4s11.3-27.4,27.3-27.4S584,248.3,584,265.1a30.9,30.9,0,0,1-.3,4.2H550c.3,5.4,2.8,6.9,5.7,6.9a5.1,5.1,0,0,0,4.9-3.1h22.3C580.6,284.5,570.2,293,556.7,293Zm-6.5-32.9h12.5c0-3.7-2.8-5.4-6-5.4S550.8,256.4,550.2,260.1Z"/><path class="cls-4" d="M590.7,222.2h21v70.2h-21Z"/><path class="cls-4" d="M619.7,224.3c0-5.9,4.6-10.5,12.1-10.5s12,4.6,12,10.5-4.6,10.3-12,10.3S619.7,230,619.7,224.3Zm1.5,14.6h21v53.5h-21Z"/><path class="cls-4" d="M687.7,264c0-5.1-2.9-8.2-7.5-8.2s-7.5,3.1-7.5,8.2v28.4h-21V238.9h21V247c3-4.6,8.3-8.5,16.4-8.5,12.3,0,19.5,9,19.5,22.9v31h-21Z"/><path class="cls-4" d="M737.1,238.2c7.1,0,12.2,3.1,14.8,8v-7.3h21v52.5c0,14.1-7.3,27.2-27.3,27.2-17.4,0-27.6-8.8-29-22.4h20.7c.6,2.8,2.9,4.2,6.8,4.2s7.9-1.5,7.9-9V285c-2.6,4.8-7.7,8-14.8,8-12.3,0-22.1-10.1-22.1-27.4S724.7,238.2,737.1,238.2Zm7,18.4c-4.4,0-7.8,3.1-7.8,9s3.4,9,7.8,9,7.8-3.1,7.8-9S748.4,256.6,744.1,256.6Z"/><path class="cls-4" d="M362.7,88.2c24.3,0,40.7,14.5,44.5,36.2H376.9a15.6,15.6,0,0,0-14.7-9.6c-9.7,0-15.7,7.9-15.7,20.1s6,20.1,15.7,20.1a15.6,15.6,0,0,0,14.7-9.6h30.4c-3.8,21.7-20.2,36.2-44.5,36.2-28.2,0-45.4-19.3-45.4-46.7S334.5,88.2,362.7,88.2Z"/><path class="cls-4" d="M446.4,181H417.6V107.8h28.8v13.5c5.7-8.2,14.5-14,24-14V138h-8.2c-10.4,0-15.8,3-15.8,13Z"/><path class="cls-4" d="M513,181.9c-22.1,0-38.7-14.1-38.7-37.5s16.6-37.5,38.7-37.5,38.7,14.1,38.7,37.5S535,181.9,513,181.9Zm0-24.9c5.1,0,9.5-3.9,9.5-12.6s-4.4-12.6-9.5-12.6-9.5,3.9-9.5,12.6S507.8,157,513,157Z"/><path class="cls-4" d="M609.7,106.9c16.9,0,30.2,13.9,30.2,37.5s-13.4,37.5-30.2,37.5c-9.7,0-16.6-4.3-20.1-10.9v45H560.7V107.8h28.8v10C593.1,111.2,599.9,106.9,609.7,106.9Zm-9.6,25.2c-6,0-10.6,4.3-10.6,12.3s4.7,12.3,10.6,12.3,10.6-4.3,10.6-12.3S606,132.1,600.1,132.1Z"/></g></g></svg>