<svg xmlns="http://www.w3.org/2000/svg" viewBox="0 0 1675.3 336.2"><defs><style>.cls-1{fill:#fff;}</style></defs><title>logowhite</title><g id="Capa_2" data-name="Capa 2"><g id="Capa_1-2" data-name="Capa 1"><path class="cls-1" d="M409.1,207.9c7.6,0,14.2,3.5,17.6,8.7V190.1h17.5V266H426.8v-8.2c-3.2,5.2-9.2,9-17.6,9-14.1,0-25.2-11.5-25.2-29.5S395.1,207.9,409.1,207.9Zm5.1,15.3c-6.6,0-12.5,4.9-12.5,14.1s6,14.3,12.5,14.3,12.5-5,12.5-14.2S420.9,223.2,414.3,223.2Z"/><path class="cls-1" d="M482.5,266.8c-16.8,0-28.9-11.3-28.9-29.4s11.9-29.4,28.9-29.4S511,219,511,236.4a44.4,44.4,0,0,1-.3,5.1H471c.6,7.5,5.2,11,10.9,11s7.7-2.5,9.1-5.5h18.7C506.9,258.2,496.8,266.8,482.5,266.8Zm-11.4-35h22c0-6.3-4.9-9.8-10.8-9.8S472.1,225.5,471.1,231.8Z"/><path class="cls-1" d="M545.5,207.9c14.4,0,24.5,7.9,27.5,21.5H554.3c-1.4-4-4.3-6.6-9.1-6.6s-10.6,4.9-10.6,14.5,4.3,14.5,10.6,14.5,7.6-2.4,9.1-6.6H573c-3,13.2-13.1,21.5-27.5,21.5-16.8,0-28.7-11.3-28.7-29.4S528.7,207.9,545.5,207.9Z"/><path class="cls-1" d="M580.7,193.4c0-5.3,4.2-9.5,10.5-9.5s10.4,4.2,10.4,9.5-4.2,9.4-10.4,9.4S580.7,198.6,580.7,193.4Zm1.6,15.4h17.5V266H582.3Z"/><path class="cls-1" d="M635.9,266.8c-15.3,0-25.5-8.5-26.4-19.6h17.3c.4,4,4,6.7,8.8,6.7s6.9-2.1,6.9-4.6c0-9.2-31.2-2.6-31.2-23.6,0-9.7,8.3-17.7,23.3-17.7s23,8.2,24.1,19.5H642.5c-.5-3.9-3.5-6.5-8.4-6.5s-6.4,1.6-6.4,4.4c0,9.1,31,2.7,31.3,24C659.1,259.3,650.2,266.8,635.9,266.8Z"/><path class="cls-1" d="M668.2,193.4c0-5.3,4.2-9.5,10.5-9.5S689,188,689,193.4s-4.2,9.4-10.4,9.4S668.2,198.6,668.2,193.4Zm1.6,15.4h17.5V266H669.8Z"/><path class="cls-1" d="M726.2,266.8c-16.8,0-29.5-11.3-29.5-29.4s13-29.4,29.8-29.4,29.8,11.3,29.8,29.4S743,266.8,726.2,266.8Zm0-15.2c6.3,0,12.1-4.6,12.1-14.3s-5.7-14.3-11.9-14.3-11.9,4.5-11.9,14.3S719.8,251.6,726.2,251.6Z"/><path class="cls-1" d="M805,234.9c0-7.8-4.3-12.1-11-12.1s-11,4.3-11,12.1V266H765.4V208.7H783v7.6c3.5-4.8,9.6-8.2,17.3-8.2,13.2,0,22.1,9,22.1,24.4V266H805Z"/><path class="cls-1" d="M879.6,266.8c-15.3,0-25.5-8.5-26.4-19.6h17.3c.4,4,4,6.7,8.8,6.7s6.9-2.1,6.9-4.6c0-9.2-31.2-2.6-31.2-23.6,0-9.7,8.3-17.7,23.3-17.7s23,8.2,24.1,19.5H886.3c-.5-3.9-3.5-6.5-8.4-6.5s-6.4,1.6-6.4,4.4c0,9.1,31,2.7,31.3,24C902.8,259.3,894,266.8,879.6,266.8Z"/><path class="cls-1" d="M970.1,266H952.6v-7.8c-3.5,4.9-9.6,8.4-17.3,8.4-13.2,0-22.2-9.1-22.2-24.4V208.7h17.4v31.1c0,7.8,4.4,12.1,11,12.1s11.1-4.3,11.1-12.1V208.7h17.5Z"/><path class="cls-1" d="M1017.9,207.9c14.1,0,25.2,11.3,25.2,29.3s-11.2,29.5-25.2,29.5c-8.4,0-14.5-4-17.6-8.8v35.3H982.7V208.7h17.5v8.1C1003.5,211.8,1009.5,207.9,1017.9,207.9Zm-5.2,15.3c-6.6,0-12.5,5-12.5,14.2s6,14.2,12.5,14.2,12.6-5.1,12.6-14.3S1019.4,223.2,1012.7,223.2Z"/><path class="cls-1" d="M1087.6,207.9c14.1,0,25.2,11.3,25.2,29.3s-11.2,29.5-25.2,29.5c-8.4,0-14.5-4-17.6-8.8v35.3h-17.5V208.7H1070v8.1C1073.1,211.8,1079.2,207.9,1087.6,207.9Zm-5.2,15.3c-6.6,0-12.5,5-12.5,14.2s6,14.2,12.5,14.2,12.6-5.1,12.6-14.3S1089,223.2,1082.4,223.2Z"/><path class="cls-1" d="M1148.1,266.8c-16.8,0-29.5-11.3-29.5-29.4s13-29.4,29.8-29.4,29.8,11.3,29.8,29.4S1165,266.8,1148.1,266.8Zm0-15.2c6.3,0,12.1-4.6,12.1-14.3s-5.7-14.3-11.9-14.3-11.9,4.5-11.9,14.3S1141.8,251.6,1148.1,251.6Z"/><path class="cls-1" d="M1205,266h-17.5V208.7H1205v9.5c4-6.1,10.3-10.2,18-10.2v18.6h-4.8c-8.3,0-13.1,2.9-13.1,12.7Z"/><path class="cls-1" d="M1234.1,223.3h-7V208.7h7v-14h17.5v14h11.5v14.6h-11.5v23c0,3.4,1.4,4.8,5.3,4.8h6.3V266h-8.9c-11.9,0-20.2-5-20.2-19.9Z"/><path class="cls-1" d="M1318,266.8c-15.3,0-25.5-8.5-26.4-19.6H1309c.4,4,4,6.7,8.8,6.7s6.9-2.1,6.9-4.6c0-9.2-31.2-2.6-31.2-23.6,0-9.7,8.3-17.7,23.3-17.7s23,8.2,24.1,19.5h-16.2c-.5-3.9-3.5-6.5-8.4-6.5s-6.4,1.6-6.4,4.4c0,9.1,31,2.7,31.3,24C1341.2,259.3,1332.4,266.8,1318,266.8Z"/><path class="cls-1" d="M1391.5,208.7h19l-35.9,84.4h-18.9l13.1-29.1-23.3-55.3h19.6l13.2,35.8Z"/><path class="cls-1" d="M1440.1,266.8c-15.3,0-25.5-8.5-26.4-19.6h17.3c.4,4,4,6.7,8.8,6.7s6.9-2.1,6.9-4.6c0-9.2-31.2-2.6-31.2-23.6,0-9.7,8.3-17.7,23.3-17.7s23,8.2,24.1,19.5h-16.2c-.5-3.9-3.5-6.5-8.4-6.5s-6.4,1.6-6.4,4.4c0,9.1,31,2.7,31.3,24C1463.3,259.3,1454.5,266.8,1440.1,266.8Z"/><path class="cls-1" d="M1476.9,223.3h-7V208.7h7v-14h17.5v14h11.5v14.6h-11.5v23c0,3.4,1.4,4.8,5.3,4.8h6.3V266h-8.9c-11.9,0-20.2-5-20.2-19.9Z"/><path class="cls-1" d="M1541.2,266.8c-16.8,0-28.9-11.3-28.9-29.4s11.9-29.4,28.9-29.4,28.5,11.1,28.5,28.5a44.4,44.4,0,0,1-.3,5.1h-39.7c.6,7.5,5.2,11,10.9,11s7.7-2.5,9.1-5.5h18.7C1565.6,258.2,1555.4,266.8,1541.2,266.8Zm-11.4-35h22c0-6.3-4.9-9.8-10.8-9.8S1530.8,225.5,1529.8,231.8Z"/><path class="cls-1" d="M1657.8,234.9c0-7.5-4.3-11.6-11-11.6s-11,4.1-11,11.6V266h-17.4V234.9c0-7.5-4.3-11.6-11-11.6s-11,4.1-11,11.6V266h-17.5V208.7h17.5v7.2c3.4-4.6,9.2-7.8,16.7-7.8s15.6,3.8,19.5,10.7a23,23,0,0,1,19.3-10.7c14.2,0,23.3,9,23.3,24.4V266h-17.4Z"/><path class="cls-1" d="M396,55.7h52.7V74.3H419.4V84.6h21.1v17.6H419.4v28.2H396Z"/><path class="cls-1" d="M480.1,130.4H456.6V70.9h23.4v11c4.6-6.6,11.8-11.4,19.5-11.4v25h-6.6c-8.4,0-12.9,2.4-12.9,10.5Z"/><path class="cls-1" d="M504.2,54.6c0-6.5,5.2-11.7,13.5-11.7s13.4,5.2,13.4,11.7-5.2,11.5-13.4,11.5S504.2,61.1,504.2,54.6Zm1.7,16.2h23.4v59.5H505.9Z"/><path class="cls-1" d="M567.1,131.1c-17.8,0-30.4-11.5-30.4-30.5s12.6-30.5,30.4-30.5,30.4,11.3,30.4,30a34.3,34.3,0,0,1-.3,4.6H559.6c.3,6,3.2,7.7,6.3,7.7a5.7,5.7,0,0,0,5.5-3.5h24.8C593.7,121.6,582.1,131.1,567.1,131.1Zm-7.3-36.6h13.9c0-4.1-3.2-6-6.6-6S560.5,90.4,559.8,94.5Z"/><path class="cls-1" d="M644.9,98.8c0-5.7-3.3-9.2-8.3-9.2s-8.3,3.5-8.3,9.2v31.5H604.8V70.9h23.4v9.1c3.4-5.2,9.3-9.5,18.2-9.5,13.7,0,21.7,10,21.7,25.4v34.5H644.9Z"/><path class="cls-1" d="M699.8,70.1c7.9,0,13.5,3.5,16.3,8.9V52.3h23.4v78H716.1v-8.1c-2.8,5.4-8.4,8.9-16.3,8.9-13.7,0-24.6-11.3-24.6-30.5S686,70.1,699.8,70.1Zm7.8,20.5c-4.9,0-8.6,3.5-8.6,10s3.8,10,8.6,10,8.6-3.5,8.6-10S712.4,90.6,707.6,90.6Z"/><path class="cls-1" d="M750.1,52.3h23.4v78H750.1Z"/><path class="cls-1" d="M825.4,70.9h25.8l-38.1,88H787.5l15-31.4L777.7,70.9h26.1L814.9,101Z"/><path class="cls-1" d="M908.2,55c19.7,0,33.1,11.8,36.2,29.4H919.7a12.7,12.7,0,0,0-11.9-7.8c-7.9,0-12.8,6.4-12.8,16.3s4.9,16.3,12.8,16.3a12.7,12.7,0,0,0,11.9-7.8h24.7c-3.1,17.6-16.5,29.4-36.2,29.4-22.9,0-36.9-15.7-36.9-38S885.3,55,908.2,55Z"/><path class="cls-1" d="M976.2,130.4H952.8V70.9h23.4v11c4.6-6.6,11.8-11.4,19.5-11.4v25h-6.6c-8.4,0-12.9,2.4-12.9,10.5Z"/><path class="cls-1" d="M1030.3,131.1c-17.9,0-31.4-11.5-31.4-30.5s13.5-30.5,31.4-30.5,31.4,11.5,31.4,30.5S1048.2,131.1,1030.3,131.1Zm0-20.2c4.1,0,7.7-3.2,7.7-10.2s-3.6-10.2-7.7-10.2-7.7,3.2-7.7,10.2S1026.1,110.9,1030.3,110.9Z"/><path class="cls-1" d="M1108.9,70.1c13.7,0,24.6,11.3,24.6,30.5s-10.9,30.5-24.6,30.5c-7.9,0-13.5-3.5-16.3-8.9v36.6h-23.4v-88h23.4V79C1095.4,73.6,1101,70.1,1108.9,70.1Zm-7.8,20.5c-4.9,0-8.6,3.5-8.6,10s3.8,10,8.6,10,8.6-3.5,8.6-10S1105.9,90.6,1101.1,90.6Z"/><path class="cls-1" d="M1158.8,55.7h28.7l16.5,44.8,16-44.8h28.6v74.7h-23.3V93.1l-11.5,37.2h-20l-11.5-37.2v37.2h-23.4Z"/><path class="cls-1" d="M1287.3,131.1c-17.9,0-31.4-11.5-31.4-30.5s13.5-30.5,31.4-30.5,31.4,11.5,31.4,30.5S1305.3,131.1,1287.3,131.1Zm0-20.2c4.1,0,7.7-3.2,7.7-10.2s-3.6-10.2-7.7-10.2-7.7,3.2-7.7,10.2S1283.1,110.9,1287.3,110.9Z"/><path class="cls-1" d="M1347.6,70.1c7.9,0,13.5,3.5,16.3,8.9V52.3h23.4v78h-23.4v-8.1c-2.8,5.4-8.4,8.9-16.3,8.9-13.7,0-24.6-11.3-24.6-30.5S1333.8,70.1,1347.6,70.1Zm7.8,20.5c-4.9,0-8.6,3.5-8.6,10s3.8,10,8.6,10,8.6-3.5,8.6-10S1360.2,90.6,1355.4,90.6Z"/><path class="cls-1" d="M1425.1,131.1c-17.8,0-30.4-11.5-30.4-30.5s12.6-30.5,30.4-30.5,30.4,11.3,30.4,30a34.3,34.3,0,0,1-.3,4.6h-37.5c.3,6,3.2,7.7,6.3,7.7a5.7,5.7,0,0,0,5.5-3.5h24.8C1451.7,121.6,1440.1,131.1,1425.1,131.1Zm-7.3-36.6h13.9c0-4.1-3.2-6-6.6-6S1418.5,90.4,1417.8,94.5Z"/><path class="cls-1" d="M1462.8,52.3h23.4v78h-23.4Z"/><path class="cls-1" d="M1495.1,54.6c0-6.5,5.2-11.7,13.5-11.7s13.4,5.2,13.4,11.7-5.2,11.5-13.4,11.5S1495.1,61.1,1495.1,54.6Zm1.7,16.2h23.4v59.5h-23.4Z"/><path class="cls-1" d="M1570.8,98.8c0-5.7-3.3-9.2-8.3-9.2s-8.3,3.5-8.3,9.2v31.5h-23.4V70.9h23.4v9.1c3.4-5.2,9.3-9.5,18.2-9.5,13.7,0,21.7,10,21.7,25.4v34.5h-23.3Z"/><path class="cls-1" d="M1625.7,70.1c7.9,0,13.6,3.5,16.5,8.9V70.9h23.3v58.4c0,15.7-8.1,30.3-30.4,30.3-19.4,0-30.7-9.8-32.3-24.9h23c.6,3.1,3.3,4.6,7.6,4.6s8.8-1.7,8.8-10v-7.1c-2.8,5.4-8.5,8.9-16.5,8.9-13.7,0-24.6-11.3-24.6-30.5S1612,70.1,1625.7,70.1Zm7.8,20.5c-4.9,0-8.6,3.5-8.6,10s3.8,10,8.6,10,8.6-3.5,8.6-10S1638.3,90.6,1633.5,90.6Z"/><path class="cls-1" d="M292.1,251.6c-6.8-3.9-14.6-7.9-23.4-12s-16.5-7.1-25.9-10.4c2.2,35.4-36.8,68.2-64.2,86.7h0l-8.8.3a147.4,147.4,0,0,1-47.4-7.8c106.9-27.6,120.4-79.2,120.4-79.2-4.7-1.6-13.2-4.5-25-7.4a325.7,325.7,0,0,0-127.7-5.3c-17.4,2.8-31.1,3.8-55,13.1-4.2,1.7-8.8,3.6-13.8,5.8l13.5,16.8h0l28.5,39.5,43.1,20.5,17.9,8.5h75l17-6.8h0l46.7-18.7,1.5-.6,40.3-35.4C301.1,256.9,296.9,254.3,292.1,251.6ZM49.7,254.6c112.2,15.1,166.7-31.4,168.2-32.7C178,261.8,105.4,281,80.4,286.1A149.1,149.1,0,0,1,49.7,254.6ZM218.6,308c57.2-32.7,50.4-67.4,50.2-68.3,7.5,9.5,6.3,23.6,2.3,36.5A148.2,148.2,0,0,1,218.6,308Z"/><path class="cls-1" d="M271,276.2a115.3,115.3,0,0,1-8,19.2c-3.4,6.5-6.5,11-7.6,11.9s-24.8,5-39.1,6.7h0l-11.9,1.4q7.6-3.6,14.1-7.4h0A148.2,148.2,0,0,0,271,276.2Z"/><path class="cls-1" d="M80.4,286.1a74.5,74.5,0,0,1-8.5,1.5c-4.6,0-35.9-34-37-35.2h0q7.6,1.3,14.8,2.3A149.1,149.1,0,0,0,80.4,286.1Z"/><path class="cls-1" d="M178.6,316l-7.4,4.8a190.9,190.9,0,0,1-18.6,10.6c-4.3,1.8-47.6-18.8-47.6-18.8l1.3-.3q8.4-1.8,16-3.8h0a147.4,147.4,0,0,0,47.4,7.8Z"/><path class="cls-1" d="M169.9,0A168,168,0,0,0,35.7,66.9q-4.1,5.4-7.8,11.2h.9A16.9,16.9,0,0,1,44.7,89q3.6-5.6,7.6-10.9A147.9,147.9,0,0,1,169.9,20C251.5,20,318,86.4,318,168.1a147.3,147.3,0,0,1-25.9,83.5A149,149,0,0,1,218.6,308h0a146.6,146.6,0,0,1-39.9,8h0l-8.8.3a147.4,147.4,0,0,1-47.4-7.8h0A148.2,148.2,0,0,1,28.5,123.8q2-6.4,4.6-12.5a17,17,0,0,1-4.3.5,16.8,16.8,0,0,1-14.3-8q-2.6,6.3-4.7,12.8a167.3,167.3,0,0,0-8.1,51.5c0,92.7,75.4,168.1,168.1,168.1S338,260.8,338,168.1,262.6,0,169.9,0Z"/><path class="cls-1" d="M52.3,78.1a28.8,28.8,0,1,0-23.8,45.6h.3A28.8,28.8,0,0,0,52.3,78.1ZM33.1,111.3a17,17,0,0,1-4.3.5,16.9,16.9,0,0,1-.9-33.7h.9a16.9,16.9,0,0,1,4.3,33.2Z"/><path class="cls-1" d="M75.7,84.9a49.5,49.5,0,0,0-3-9.5l-9.6,3a38,38,0,0,1,3,9.5,39.3,39.3,0,0,1-19.9,41.5,38.7,38.7,0,0,1-9.3,3.6l3.6,9.4A49.4,49.4,0,0,0,76.7,94.9,49.7,49.7,0,0,0,75.7,84.9Z"/><path class="cls-1" d="M94.2,79.6a65.3,65.3,0,0,0-3-9.5l-9.6,3a56.6,56.6,0,0,1,4.4,21.8,56.7,56.7,0,0,1-31.5,50.8,55.6,55.6,0,0,1-9.3,3.6l3.6,9.3a65.3,65.3,0,0,0,9.3-3.6A66.7,66.7,0,0,0,94.2,79.6Z"/><path class="cls-1" d="M114.1,72.7a88.1,88.1,0,0,0-3-9.5l-9.6,3a75.1,75.1,0,0,1,3,9.5,78.5,78.5,0,0,1,2.4,19.2,79.5,79.5,0,0,1-46,72,75.6,75.6,0,0,1-9.3,3.6l3.6,9.3a86.1,86.1,0,0,0,9.3-3.6,89.5,89.5,0,0,0,52.4-81.4A89.2,89.2,0,0,0,114.1,72.7Z"/><circle class="cls-1" cx="223.6" cy="108.3" r="14.7"/><polygon class="cls-1" points="212.8 205.3 202.3 205.3 202.3 150 217.4 133.9 217.4 113.6 227.8 113.6 227.8 138 212.8 154.2 212.8 205.3"/><path class="cls-1" d="M192.1,63.2a19.6,19.6,0,0,0-4.9,38.6,20.1,20.1,0,0,0,4.9.6,19.6,19.6,0,1,0,0-39.2Zm0,28.7a9.1,9.1,0,1,1,9.1-9.1A9,9,0,0,1,192.1,91.8Z"/><rect class="cls-1" x="187.3" y="96" width="10.5" height="104.63"/><path class="cls-1" d="M158.4,84.5a18.2,18.2,0,1,0,18.3,18.2h0A18.3,18.3,0,0,0,158.4,84.5Zm.2,25.8a7.7,7.7,0,1,1,7.7-7.7A7.7,7.7,0,0,1,158.6,110.3Z"/><polygon class="cls-1" points="182 214 171.5 214 171.5 157.1 154.4 140.6 154.4 115 164.8 115 164.8 136.2 182 152.6 182 214"/><path class="cls-1" d="M219.4,187.6s-3.1-85.9,89-45.8c0,0-26.7,3.7-31.2,27.5s-51,29.4-51,29.4,16.7-35.3,40.8-43.2C267.2,155.6,241.2,153,219.4,187.6Z"/></g></g></svg>