<?xml version="1.0" encoding="utf-8"?>
<!-- Generator: Adobe Illustrator 21.0.0, SVG Export Plug-In . SVG Version: 6.00 Build 0)  -->
<svg version="1.1" id="Capa_1" xmlns="http://www.w3.org/2000/svg" xmlns:xlink="http://www.w3.org/1999/xlink" x="0px" y="0px"
	 viewBox="0 0 500 500" style="enable-background:new 0 0 500 500;" xml:space="preserve">
<style type="text/css">
	.st0{fill:#706F6F;}
</style>
<g>
	<path class="st0" d="M460.8,125.1h-10.1c25.9-28.9,23.5-73.3-5.4-99.2S371.9,2.4,346,31.3c-23.9,26.7-23.9,67.1,0,93.8h-96V47
		c0-4.3-3.5-7.8-7.8-7.8H211c-4.3,0-7.8,3.5-7.8,7.8v78.1h-7.8V15.8c0-4.3-3.5-7.8-7.8-7.8h-31.2c-4.3,0-7.8,3.5-7.8,7.8v109.3h-7.8
		V70.5c0-4.3-3.5-7.8-7.8-7.8h-31.2c-4.3,0-7.8,3.5-7.8,7.8v54.6H39.2C22,125.1,8,139.1,8,156.3v234.2c0,17.2,14,31.2,31.2,31.2
		h160.9L189.7,453h-25.6c-4.3,0-7.8,3.5-7.8,7.8v15.6h-78c-4.3,0-7.8,3.5-7.8,7.8s3.5,7.8,7.8,7.8h343.5c4.3,0,7.8-3.5,7.8-7.8
		s-3.5-7.8-7.8-7.8h-78.1v-15.6c0-4.3-3.5-7.8-7.8-7.8h-25.6l-10.4-31.2h160.9c17.2,0,31.2-14,31.2-31.2V156.3
		C492,139.1,478,125.1,460.8,125.1z M406.1,24.2c24,3.5,42.8,22.3,46.3,46.3h-46.3V24.2z M401.6,86.1h50.8
		c-4.3,29.9-32,50.6-61.8,46.3c-9.1-1.3-17.6-4.9-25-10.3L401.6,86.1z M343.7,78.3c0-27.1,20-50.2,46.8-54.1V75l-35.9,36
		C347.5,101.5,343.7,90.1,343.7,78.3z M218.8,54.8h15.6v148.3h-15.6V54.8z M195.4,140.7h7.8v62.5h-7.8V140.7z M164.1,23.6h15.6
		v179.5h-15.6V23.6z M140.7,140.7h7.8v62.5h-7.8V140.7z M109.5,78.3h15.6v124.9h-15.6V78.3z M328.1,468.6v7.8H171.9v-7.8H328.1z
		 M206.2,453l10.4-31.2h66.8l10.4,31.2H206.2z M476.4,390.5c0,8.6-7,15.6-15.6,15.6H39.2c-8.6,0-15.6-7-15.6-15.6v-15.6h452.8V390.5
		z M476.4,359.3H23.6v-203c0-8.6,7-15.6,15.6-15.6h54.6v62.5H86v-46.8c0-4.3-3.5-7.8-7.8-7.8H47c-4.3,0-7.8,3.5-7.8,7.8V211
		c0,4.3,3.5,7.8,7.8,7.8h249.8c4.3,0,7.8-3.5,7.8-7.8v-54.6c0-4.3-3.5-7.8-7.8-7.8h-31.2c-4.3,0-7.8,3.5-7.8,7.8v46.8H250v-62.5
		h116.2c20.2,10.4,44.1,10.4,64.2,0h30.3c8.6,0,15.6,7,15.6,15.6L476.4,359.3L476.4,359.3z M70.5,164.1v39H54.8v-39H70.5z
		 M273.4,203.2v-39H289v39H273.4z"/>
	<path class="st0" d="M93.9,382.7H47c-4.3,0-7.8,3.5-7.8,7.8s3.5,7.8,7.8,7.8h46.8c4.3,0,7.8-3.5,7.8-7.8
		C101.7,386.2,98.2,382.7,93.9,382.7z"/>
	<path class="st0" d="M125.1,382.7h-7.8c-4.3,0-7.8,3.5-7.8,7.8s3.5,7.8,7.8,7.8h7.8c4.3,0,7.8-3.5,7.8-7.8S129.4,382.7,125.1,382.7
		z"/>
	<path class="st0" d="M335.9,203.2c2.1,0,4.1-0.8,5.5-2.3l28.9-28.9h67c4.3,0,7.8-3.5,7.8-7.8s-3.5-7.8-7.8-7.8H367
		c-2.1,0-4.1,0.8-5.5,2.3l-31.2,31.2c-3,3-3,8,0,11C331.8,202.3,333.8,203.2,335.9,203.2z"/>
	<path class="st0" d="M437.4,289c-8.3,0-16.1,4.5-20.2,11.7L335.4,253c-2.6-12.7-15-20.8-27.7-18.2c-9.3,1.9-16.6,9.4-18.3,18.7
		l-82.2,61.7c-7-10.8-21.5-13.9-32.4-6.9c-3.4,2.2-6.2,5.3-8.1,9l-81.3-33.9c-3-12.6-15.7-20.3-28.2-17.3
		c-12.6,3-20.3,15.7-17.3,28.2c3,12.6,15.7,20.3,28.2,17.3c6.7-1.6,12.3-6,15.4-12.1l81.3,33.9c3,12.6,15.7,20.3,28.2,17.3
		c9-2.2,15.9-9.5,17.6-18.6l82.2-61.7c7,10.8,21.5,13.9,32.4,6.9c3.1-2,5.7-4.7,7.5-7.9l81.7,47.7c2.6,12.7,15,20.8,27.7,18.2
		c12.7-2.6,20.8-15,18.2-27.7C458,296.8,448.4,289,437.4,289z M70.5,289.1c0,4.3-3.5,7.8-7.8,7.8s-7.8-3.5-7.8-7.8s3.5-7.8,7.8-7.8
		C67,281.2,70.4,284.7,70.5,289.1L70.5,289.1z M187.5,335.9c-4.3,0-7.8-3.5-7.8-7.8l0,0c0-4.3,3.5-7.8,7.8-7.8s7.8,3.5,7.8,7.8
		S191.8,335.9,187.5,335.9z M312.5,265.6c-4.3,0-7.8-3.5-7.8-7.8c0-4.3,3.5-7.8,7.8-7.8s7.8,3.5,7.8,7.8
		C320.3,262.1,316.8,265.6,312.5,265.6z M437.4,320.3c-4.3,0-7.8-3.5-7.8-7.8s3.5-7.8,7.8-7.8s7.8,3.5,7.8,7.8
		C445.2,316.8,441.7,320.3,437.4,320.3z"/>
	<path class="st0" d="M374.9,335.9h-54.6c-4.3,0-7.8,3.5-7.8,7.8s3.5,7.8,7.8,7.8h54.6c4.3,0,7.8-3.5,7.8-7.8
		C382.7,339.4,379.2,335.9,374.9,335.9z"/>
	<path class="st0" d="M374.9,312.5h-23.4c-4.3,0-7.8,3.5-7.8,7.8s3.5,7.8,7.8,7.8h23.4c4.3,0,7.8-3.5,7.8-7.8
		S379.2,312.5,374.9,312.5z"/>
	<path class="st0" d="M47,242.2h85.9c4.3,0,7.8-3.5,7.8-7.8s-3.5-7.8-7.8-7.8H47c-4.3,0-7.8,3.5-7.8,7.8S42.7,242.2,47,242.2z"/>
	<path class="st0" d="M156.3,242.2h7.8c4.3,0,7.8-3.5,7.8-7.8s-3.5-7.8-7.8-7.8h-7.8c-4.3,0-7.8,3.5-7.8,7.8S152,242.2,156.3,242.2z
		"/>
</g>
</svg>
