<svg xmlns="http://www.w3.org/2000/svg" viewBox="0 0 192.8 192.8"><defs><style>.cls-1{fill:#fff;}.cls-1,.cls-2,.cls-3{fill-rule:evenodd;}.cls-2{fill:#004996;}.cls-3{fill:#009fe3;}</style></defs><title>NOAAlogo</title><g id="Capa_2" data-name="Capa 2"><g id="Capa_1-2" data-name="Capa 1"><polygon class="cls-1" points="0 0 192.8 0 192.8 192.8 0 192.8 0 0 0 0"/><path class="cls-1" d="M2.8,96.4a93.5,93.5,0,1,1,93.5,93.5A93.5,93.5,0,0,1,2.8,96.4Z"/><polygon class="cls-2" points="10.8 121.1 10.6 120.1 18.3 117.9 18.6 119 13.5 124.8 13.5 124.8 19.8 123.1 20.1 124 12.4 126.3 12 125 17.2 119.4 17.2 119.3 10.8 121.1 10.8 121.1"/><path class="cls-2" d="M14.2,115.2l-3.8-.4h0l3.2-2,.6,2.5Zm.3-3.1,2.2-1.4-.3-1.1L9,114.4l.3,1.1,8.7,1.3v-1.1l-2.7-.3-.7-3.2Z"/><polygon class="cls-2" points="8.3 110.8 7.3 104.4 8.2 104.2 8.7 106.9 15.6 105.8 15.9 106.8 8.9 107.9 9.3 110.6 8.3 110.8 8.3 110.8"/><polygon class="cls-2" points="14.9 100.9 15.1 102 6.8 103 6.6 101.9 14.9 100.9 14.9 100.9"/><path class="cls-2" d="M10.4,93.1c1.8-.1,3.2.8,3.4,2.5s-1.3,2.9-3.1,2.9-3.4-.8-3.5-2.5,1.3-2.9,3.2-2.9ZM10.3,92a3.7,3.7,0,0,0-3.9,4.1c.1,3.1,2.7,3.8,4.4,3.7a3.8,3.8,0,0,0,4.1-4.1c-.1-3.1-2.8-3.8-4.5-3.7Z"/><polygon class="cls-2" points="7.5 84.3 7.6 83.2 15.8 84.3 15.6 85.6 8.5 88.8 8.5 88.8 15.1 89.8 14.9 90.9 6.8 89.6 6.9 88.4 14.1 85.3 14.1 85.1 7.5 84.3 7.5 84.3"/><path class="cls-2" d="M13.1,80.6,9.9,78.5h0l3.8-.4-.6,2.5ZM14.6,78l2.5-.3.3-1.3L8.7,77.7,8.5,79l7.4,4.6.3-1.1-2.2-1.3.7-3.2Z"/><polygon class="cls-2" points="17 74.6 18.1 70.7 19.1 71 17.7 75.9 10 73.8 10.3 72.6 17 74.6 17 74.6"/><path class="cls-2" d="M19,59.7c1.8.7,2.7,2.1,2,3.8a2.8,2.8,0,0,1-4.1,1.3c-1.8-.7-2.7-2.1-2-3.8A2.8,2.8,0,0,1,19,59.7Zm.4-1.1c-1.5-.6-4.2-.7-5.3,2.1s.7,4.5,2.4,5.2a3.9,3.9,0,0,0,5.3-2c1.3-2.8-.7-4.6-2.4-5.3Z"/><path class="cls-2" d="M21.4,51.2a2.2,2.2,0,0,0-2.7,1.1c-.7,1.4-.3,2.9,1.7,3.9s3.4,1.1,4.4-.7a2.6,2.6,0,0,0-1-3.2l.6-.8a3.4,3.4,0,0,1,1.1,4.6c-.8,1.7-2.8,2.8-5.6,1.3s-3.1-3.4-2-5.5a3.2,3.2,0,0,1,4.1-1.7l-.6,1Z"/><polygon class="cls-2" points="30.9 47.1 27.7 52 21 47.5 24.2 42.6 25 43.1 22.4 47.1 24.5 48.5 26.9 44.8 27.7 45.4 25.2 49 27.4 50.6 30.2 46.5 30.9 47.1 30.9 47.1"/><path class="cls-2" d="M30.2,42.4l-2-3.2h0l3.7,1.4-1.7,2Zm2.7-1.5,2.4.8.7-1-8.3-2.9-.7,1,4.4,7.7.7-1-1.3-2.1,2.1-2.5Z"/><polygon class="cls-2" points="34.9 30.8 35.6 30.1 41.2 35.8 40.3 36.7 32.9 34.9 32.8 34.9 37.4 39.6 36.5 40.3 30.9 34.6 31.9 33.6 39.4 35.6 39.4 35.4 34.9 30.8 34.9 30.8"/><polygon class="cls-2" points="43.6 33.9 42.7 34.7 37.4 28.3 38.2 27.6 43.6 33.9 43.6 33.9"/><path class="cls-2" d="M46.1,24.9a2.3,2.3,0,0,0-2.8,0c-1.3.8-1.5,2.4-.3,4.2s2.5,2.2,4.1,1.1,1.4-1.4.6-3.2l.8-.6a3.3,3.3,0,0,1-1,4.6c-1.4,1.1-3.7,1.1-5.3-1.4s-1.4-4.2.6-5.5a3,3,0,0,1,4.2.1l-.8.6Z"/><path class="cls-2" d="M54.1,22.6l-.6-3.8h0l2.8,2.7-2.2,1.1Zm3.1-.4L59,23.9l1.1-.6-6.6-6-1.1.7,1.1,8.8,1-.6-.3-2.5,2.9-1.5Z"/><polygon class="cls-2" points="62.5 13.4 63.5 12.9 66.6 20.4 65.5 21 59.2 16.5 59.2 16.5 61.7 22.5 60.7 22.9 57.5 15.5 58.7 14.9 65.1 19.4 65.1 19.4 62.5 13.4 62.5 13.4"/><path class="cls-2" d="M66.7,12.7l2-.6c1.4-.6,2.7.1,3.2,2.1s.1,3.4-1.3,3.9l-2,.6-2-6ZM67.9,20l3.2-1c2.5-.8,2.5-3.4,2-5.2s-2.5-3.4-4.5-2.7l-3.2,1L67.9,20Z"/><path class="cls-2" d="M79.4,13.2l.6-3.8h.1l1.8,3.4-2.5.4Zm3.2.4,1.3,2.1H85L80.4,8l-1.1.3L77.8,17H79l.4-2.5,3.2-.7Z"/><polygon class="cls-2" points="83.9 7.5 90.5 6.5 90.5 7.5 87.8 7.9 88.8 15.1 87.7 15.2 86.7 8 84 8.5 83.9 7.5 83.9 7.5"/><path class="cls-2" d="M99.2,14.4V9.6a13.9,13.9,0,0,0-.1-2.1h0l-2,7H95.8L93.3,7.8h0v6.7h-1l-.3-8.1h1.5l2.5,6.9h.1l2-7H100l.3,8.1Z"/><path class="cls-2" d="M108.3,11.3c-.3,1.8-1.4,3.1-3.2,2.9s-2.7-1.7-2.4-3.7,1.4-3.2,3.2-2.9,2.7,1.7,2.4,3.7Zm1.1.1c.1-1.8-.4-4.4-3.5-4.8s-4.2,2.1-4.4,3.8a4,4,0,0,0,3.4,4.8c3.1.3,4.2-2.1,4.5-3.8Z"/><path class="cls-2" d="M115.8,11c.3-1.3-.7-1.8-1.5-2s-2-.3-2.1,1,.3,1,.7,1.3l2.1,1a2,2,0,0,1,1.4,2.4c-.3,2-2.2,2.1-3.5,1.8a3.3,3.3,0,0,1-2.4-1.3,2.4,2.4,0,0,1-.4-2.1h1.1c-.3,1.4.7,2.1,1.8,2.4s2.1.1,2.4-1-.3-1.1-1.5-1.7l-1.5-.8A1.8,1.8,0,0,1,111,10a2.5,2.5,0,0,1,3.2-2c2.8.6,2.8,2.2,2.7,3.2l-1.1-.3Z"/><path class="cls-2" d="M120.3,10.6l2.1.7c1,.3,1.5.7,1.3,1.7a1.4,1.4,0,0,1-2,1l-2.1-.6.7-2.8Zm-1,3.7,2.4.7c1.8.6,2.7-.6,3.1-1.7a2.3,2.3,0,0,0-1.7-2.8l-3.7-1-2.1,7.9,1,.3,1-3.4Z"/><polygon class="cls-2" points="132.5 13.4 133.5 13.8 130.5 21.7 129.4 21.2 130.8 17.6 126.7 16 125.3 19.7 124.2 19.3 127.3 11.4 128.3 11.8 127.1 15.1 131.2 16.6 132.5 13.4 132.5 13.4"/><polygon class="cls-2" points="137.4 25.2 131.8 22.4 135.6 14.9 141 17.6 140.6 18.4 136.1 16.3 135 18.6 139.1 20.7 138.7 21.5 134.6 19.4 133.3 21.9 137.8 24.2 137.4 25.2 137.4 25.2"/><path class="cls-2" d="M143.1,20.3l2.4,1.5a1.2,1.2,0,0,1,.4,1.8c-.6,1.1-1.4.8-2.1.4l-2.1-1.4,1.4-2.4Zm-2,3.1,2.2,1.5c1.1.7.8,1.4.4,2a10.7,10.7,0,0,0-1,1.8l1.3.7h0a.7.7,0,0,1,.1-.8L145,27a1.4,1.4,0,0,0,0-1.8,1.8,1.8,0,0,0,2-1c1-1.4.1-2.5-1-3.2l-3.2-2.1-4.4,6.9.8.6,2-2.9Z"/><polygon class="cls-2" points="146 30.8 145 30.1 150 23.5 151 24.2 146 30.8 146 30.8"/><path class="cls-2" d="M155.4,31.5a2.1,2.1,0,0,0-.6-2.8c-1.1-1-2.7-1-4.1.7s-1.8,2.9-.3,4.4a2.5,2.5,0,0,0,3.2-.1l.8.7a3.4,3.4,0,0,1-4.8,0c-1.4-1.3-2-3.4,0-5.6s3.9-2.2,5.8-.7,1.5,3.1.7,4.2l-.8-.7Z"/><path class="cls-2" d="M159.3,38.8l3.7-1.4h0l-2,3.4-1.7-2Zm1.1,2.9-1.3,2.1.7,1,4.5-7.7-.8-1-8.4,2.9.7,1,2.5-1,2.1,2.7Z"/><path class="cls-2" d="M166.9,42.2l1.1,1.7c.8,1.1.6,2.5-1.1,3.7s-3.1,1-3.9-.1l-1.1-1.7,5.1-3.5Zm-6.5,3.1,1.8,2.7c1.5,2.1,3.8,1.5,5.3.4s2.5-3.2,1.3-4.9L167,40.8l-6.6,4.5Z"/><path class="cls-2" d="M168.3,57.9l4.4-2.4,1.8-1h0L167,55.8l-.4-1,5.1-5.5h-.1l-1.7,1-4.4,2.4-.6-1,7.3-3.9.8,1.4L168,54.7h0l7.3-1.3.8,1.4-7.4,4.1-.4-1Z"/><polygon class="cls-2" points="169.7 61.4 169.1 60.4 176.7 56.9 177.3 57.9 169.7 61.4 169.7 61.4"/><polygon class="cls-2" points="180.1 65.1 180.5 66 172.9 69 172.4 67.9 177 61.5 177 61.5 171 63.9 170.5 63 178.1 60 178.5 61.1 173.9 67.3 173.9 67.4 180.1 65.1 180.1 65.1"/><polygon class="cls-2" points="173.6 71.7 173.3 70.5 181.1 68 181.5 69.1 173.6 71.7 173.6 71.7"/><path class="cls-2" d="M181.1,76.3c1.3-.4,1.3-1.5,1.1-2.4s-.7-1.7-2-1.4a1.1,1.1,0,0,0-.7,1.1V76a2.2,2.2,0,0,1-1.7,2.4c-1.8.6-2.8-1-3.2-2.4a2.8,2.8,0,0,1,.1-2.5,2.3,2.3,0,0,1,1.8-1.4l.3,1a2,2,0,0,0-1.3,2.7c.1.8.7,2,1.8,1.7s1-.7,1-2V73.6a2,2,0,0,1,1.4-2.1c1.3-.4,2.7.1,3.2,2s-.8,3.5-1.7,3.8l-.3-1Z"/><polygon class="cls-2" points="183.9 78.1 185.3 84.6 184.3 84.7 183.7 82.1 176.7 83.5 176.4 82.3 183.5 80.9 182.9 78.3 183.9 78.1 183.9 78.1"/><path class="cls-2" d="M184.7,87.4l.3,2.8c.1.6.1,1.4-1.1,1.5s-1.5-.6-1.5-1.4l-.4-2.5,2.8-.4Zm-3.7.6.3,2.5c.1,1.4-.6,1.5-1.3,1.7a5.5,5.5,0,0,0-2,.4V94h.1a.6.6,0,0,1,.7-.4l1.5-.3c1.1-.1,1.3-.7,1.4-1.1a2,2,0,0,0,2.1.8c1.7-.1,2-1.5,1.8-2.9l-.4-3.7-8.1,1v1.1l3.5-.4Z"/><path class="cls-2" d="M181.6,96.8l3.7,1.3h0l-3.7,1.3V96.8Zm-1,2.9-2.4.8v1.1l8.1-2.9V97.5l-8.1-3.1v1.1l2.4.8v3.4Z"/><polygon class="cls-2" points="186.4 102.6 185.8 109.2 184.9 109.2 185.1 106.3 178 105.8 178 104.7 185.1 105.2 185.4 102.6 186.4 102.6 186.4 102.6"/><polygon class="cls-2" points="177.3 110.7 177.4 109.6 185.6 110.7 185.4 111.8 177.3 110.7 177.3 110.7"/><path class="cls-2" d="M179.9,119.4a3,3,0,0,1-2.8-3.5c.4-1.7,2-2.5,3.9-2.1s3.1,1.7,2.7,3.5-2,2.5-3.8,2.1Zm-.3,1.1a3.9,3.9,0,0,0,5.1-3.1c.6-2.9-1.7-4.4-3.5-4.8a4,4,0,1,0-1.5,7.9Z"/><polygon class="cls-2" points="181.8 128.1 181.5 129.2 173.6 127 173.9 125.9 181.4 123.6 181.4 123.6 175 121.8 175.3 120.8 183.2 122.9 182.9 124.2 175.5 126.4 175.5 126.4 181.8 128.1 181.8 128.1"/><path class="cls-2" d="M26.7,139.9l-4.5,2.7a3.1,3.1,0,0,1-4.4-1.1c-1.1-2-.4-3.5,1-4.2l4.6-2.8.6.8L19.7,138c-1.5,1-1.4,2.1-1,2.9a2,2,0,0,0,3.1.7l4.4-2.7.6,1Z"/><polygon class="cls-2" points="21.5 146.5 20.8 145.7 21.8 145 22.5 146 21.5 146.5 21.5 146.5"/><path class="cls-2" d="M30.2,148.5c1-.7.6-1.8,0-2.5s-1.3-1.4-2.2-.6-.4.8-.3,1.4l1.1,2.1a2.1,2.1,0,0,1-.7,2.8c-1.5,1.1-2.9.1-3.8-1a3.6,3.6,0,0,1-1-2.5,2.7,2.7,0,0,1,1.1-1.8l.7.8c-1.3.8-.8,2.1-.1,2.9s1.4,1.5,2.4.8.6-1.1,0-2.2l-.7-1.7a2.1,2.1,0,0,1,.6-2.5c1-.7,2.4-.8,3.7.7s.6,3.5-.1,4.1l-.6-.8Z"/><polygon class="cls-2" points="28.3 155.1 27.4 154.1 28.4 153.4 29.1 154.2 28.3 155.1 28.3 155.1"/><path class="cls-2" d="M37.5,154.4l1.4,1.4c1.1,1.1,1.1,2.4-.3,3.9s-2.8,1.7-3.9.7L33.2,159l4.4-4.6Zm-5.8,4.5,2.4,2.2c2,1.8,4.1.7,5.3-.7s1.8-3.8.3-5.2L37.4,153l-5.6,5.9Z"/><polygon class="cls-2" points="42.9 168.3 38.1 164.6 43 158.2 47.8 161.8 47.1 162.5 43.3 159.6 41.7 161.5 45.3 164.4 44.7 165.1 41.2 162.4 39.5 164.5 43.4 167.6 42.9 168.3 42.9 168.3"/><path class="cls-2" d="M49.2,163.7l1.8,1.3c.8.6,1.3,1.1.7,2.1s-1.4.8-2.2.3l-2-1.3,1.7-2.4Zm-2.2,3.2,2.2,1.5a2.4,2.4,0,0,0,3.5-.8,2.2,2.2,0,0,0-.8-3.2l-3.1-2.1-4.6,7,1,.6,1.8-2.9Z"/><path class="cls-2" d="M53.5,171.1l2.8-2.5h.1l-.7,3.7-2.2-1.1Zm2.1,2.2-.4,2.4,1.1.6,1.3-8.6-1.1-.6-6.6,5.8,1,.6,2-1.7,2.8,1.5Z"/><path class="cls-2" d="M61.4,170.7l2.5,1.1c.4.3,1.3.7.8,1.8a1.4,1.4,0,0,1-2.1.7l-2.4-1.1,1.1-2.5Zm-1.5,3.5,2.5,1a1.3,1.3,0,0,1,.7,2,6.6,6.6,0,0,0-.6,2l1.3.6v-.3c-.3-.3-.3-.4,0-.8l.4-1.4c.4-1.1.1-1.4-.3-1.8a1.7,1.7,0,0,0,1.8-1.3c.7-1.7-.3-2.5-1.5-3.1l-3.5-1.5-3.2,7.4,1,.6,1.4-3.2Z"/><polygon class="cls-2" points="67 172.2 73.2 174.3 72.9 175.3 70.4 174.3 68 181.1 66.9 180.8 69.3 174.1 66.7 173.1 67 172.2 67 172.2"/><path class="cls-2" d="M78.1,184.2l1.3-4.8a16.7,16.7,0,0,1,.6-2h-.1l-3.9,6.2-1-.3-.6-7.3h0c-.1.7-.4,1.8-.4,2l-1.3,4.8-1-.3,2-8,1.5.4.6,7.3h0l3.9-6.2,1.5.4-2,8-1.1-.3Z"/><polygon class="cls-2" points="87 185.6 80.9 184.6 82.3 176.6 88.2 177.6 88.1 178.5 83.3 177.7 82.9 180.2 87.2 180.9 87.1 181.9 82.8 181.1 82.2 183.9 87.1 184.7 87 185.6 87 185.6"/><polygon class="cls-2" points="94.7 178.3 95.7 178.4 95 186.4 93.7 186.4 90.2 179.4 90.2 179.4 89.5 186 88.5 185.8 89.2 177.7 90.5 177.8 94 184.9 94 184.9 94.7 178.3 94.7 178.3"/><polygon class="cls-2" points="96.1 178.4 102.8 178.4 102.8 179.4 100 179.4 100 186.6 98.9 186.6 98.9 179.4 96.1 179.4 96.1 178.4 96.1 178.4"/><path class="cls-2" d="M113.1,180.5c.4,2-.4,3.5-2.1,3.9s-3.1-.8-3.4-2.8a3,3,0,0,1,2.1-3.8,2.8,2.8,0,0,1,3.4,2.7Zm1.1-.1c-.3-1.7-1.7-4.1-4.6-3.5s-3.5,3.2-3.1,5.1a3.8,3.8,0,0,0,4.6,3.4,3.8,3.8,0,0,0,3.1-4.9Z"/><polygon class="cls-2" points="117.6 183.7 116.5 184 114.2 176 119.8 174.6 120.1 175.5 115.6 176.7 116.3 179.1 120.3 178.1 120.4 179.1 116.6 180.1 117.6 183.7 117.6 183.7"/><path class="cls-2" d="M129.5,173.6a2.3,2.3,0,0,0-2.8-.7c-1.3.6-2,2-1.3,4.1s2,2.8,3.8,2.1,1.7-1,1.4-2.9l1-.4a3.4,3.4,0,0,1-2.2,4.4c-1.7.7-3.8.3-4.9-2.7s-.3-4.5,2-5.3a3,3,0,0,1,4.1,1.3l-1,.3Z"/><path class="cls-2" d="M138,171.4c.8,1.7.6,3.4-1.1,4.2s-3.1,0-3.9-1.7-.6-3.5,1-4.2,3.2-.1,4.1,1.7Zm1-.6c-.8-1.5-2.8-3.4-5.5-2.1s-2.4,4.1-1.7,5.6,2.8,3.5,5.6,2.1a3.9,3.9,0,0,0,1.5-5.6Z"/><path class="cls-2" d="M147.8,170l-2.7-4.1-1-1.8h0l1.7,7.2-1,.6-5.6-4.5h0l1.1,1.7,2.5,4.1-.8.6-4.5-6.9,1.4-.8,5.8,4.5h0l-1.8-7.2,1.4-.8,4.5,7-1,.6Z"/><path class="cls-2" d="M155.7,164.2l-3.1-3.9c-.1-.1-.7-1-1.3-1.5h0l2.5,6.9-.8.7-6.2-4.1h0c.4.7,1.1,1.4,1.3,1.7l3.1,3.8-.8.7-5.2-6.6,1.3-1,6.2,4.1h0L150,158l1.3-1.1,5.2,6.6-.8.7Z"/><polygon class="cls-2" points="162 158.3 157.8 162.4 152.1 156.5 156.5 152.6 157.1 153.3 153.7 156.5 155.4 158.3 158.5 155.2 159.2 155.9 155.9 159 157.9 161 161.4 157.6 162 158.3 162 158.3"/><path class="cls-2" d="M158.6,151.2l1.8-2.1c.4-.4,1.1-1,2-.1s.6,1.5,0,2.2l-1.7,1.8-2.1-1.8Zm2.8,2.5,1.8-2c.8-1.1,1.5-.6,2-.1l1.7,1.3,1-1.1h-.1a.9.9,0,0,1-1-.1l-1.1-1c-.8-.7-1.4-.6-1.8-.3a2,2,0,0,0-.7-2.2c-1.3-1.1-2.5-.4-3.5.6l-2.5,2.8,6.2,5.6.8-.8-2.7-2.4Z"/><path class="cls-2" d="M167.4,142.7a1.9,1.9,0,0,0-2.7.8c-1,1.1-.8,2.8,1,4.1s3.1,1.5,4.4-.1a2.3,2.3,0,0,0-.4-3.2l.7-.8c2.2,2.2.8,4.4.4,4.8s-3.2,2.2-5.8.4-2.5-3.8-1.1-5.8a3.1,3.1,0,0,1,4.2-1l-.7.8Z"/><polygon class="cls-2" points="176.9 138.8 173.8 144 166.7 139.6 169.8 134.6 170.7 135.1 168.2 139.2 170.3 140.6 172.6 136.8 173.5 137.3 171.1 141 173.5 142.6 176 138.4 176.9 138.8 176.9 138.8"/><path class="cls-3" d="M166.9,65.1A77.9,77.9,0,0,1,173.2,96,77.1,77.1,0,0,1,19,96a73.9,73.9,0,0,1,3.1-21.6s5.8,1.3,12.2,7.4c0,0,27.7,37.4,61.4,34.8,0,0-12.2,9-23.6,9.4,0,0,6.5,10,37.4-5.8,10.3-5.2,23.9-6.6,23.6-6.9-6.5-4.1-18.3-3.2-18.3-3.2,23.2-5.6,52.1-45.1,52.1-45.1Z"/><path class="cls-2" d="M32.2,52.8A77.2,77.2,0,0,1,158,49.9a37.9,37.9,0,0,0-22.6,25s-8,32.4-34,35.3c0,0-16.4,4.2-41.3-33.1-15-22.5-28-24.2-28-24.2Z"/><path class="cls-1" d="M73.8,53.8V69.3h4.5V53.7s-.7-3.7-3.4-3.8H65.1V69.3H69V53.8c0-.7.8-.7.8-.7h2.9c.6-.1,1,.7,1,.7Z"/><path class="cls-1" d="M91.3,69.3A3.3,3.3,0,0,0,94.7,66V52.8a3.3,3.3,0,0,0-3.4-3.2H84.9a3.3,3.3,0,0,0-3.2,3.2V66a3.3,3.3,0,0,0,3.2,3.2Z"/><path class="cls-2" d="M90.1,66.5a.9.9,0,0,0,.8-.7V53.4a.8.8,0,0,0-.8-.7H86.1a.7.7,0,0,0-.7.7V65.8a.8.8,0,0,0,.7.7Z"/><path class="cls-1" d="M111,69.3V53a3.3,3.3,0,0,0-3.4-3.2h-6.5A3.2,3.2,0,0,0,97.9,53V69.3h3.8V61.1h5.2v8.1Z"/><path class="cls-2" d="M107.1,58V53.7c0-.3-.4-.6-.8-.6h-3.9c-.4,0-.8.3-.8.6V58Z"/><path class="cls-1" d="M127.7,69.6V53.1a3.3,3.3,0,0,0-3.2-3.2H118a3.3,3.3,0,0,0-3.2,3.2V69.6h3.8V61.3h5.2v8.3Z"/><path class="cls-2" d="M123.9,58.2V53.8c0-.3-.4-.6-.7-.6h-4.1c-.4,0-.8.3-.8.6v4.4Z"/></g></g></svg>