<svg xmlns="http://www.w3.org/2000/svg" viewBox="0 0 600 256"><defs><style>.cls-1{fill:#e96c49;}.cls-2{fill:#444446;}.cls-3{fill:#454547;}.cls-4{fill:#454546;}.cls-5{fill:#e45f3c;}.cls-6{fill:#e5603d;}.cls-7{fill:#020202;}</style></defs><title>open</title><g id="Capa_2" data-name="Capa 2"><g id="Capa_2-2" data-name="Capa 2"><path class="cls-1" d="M140,0c-.5,2.9,2,1.9,3.2,2.2,16.1,4.2,29.8,12.3,40.6,24.9,14.7,17.2,21,37.2,18.5,59.7-.4,3.6.7,4.2,3.8,4.1s8.3-.1,12.5,0c5.9,0,8.6,2.2,8.5,6.7s-2.8,6.4-8.4,6.4h-60a24.5,24.5,0,0,0-5,.2,5.9,5.9,0,0,0-5.1,6.4c.1,3.5,1.9,5.6,5.3,6.3a27.2,27.2,0,0,0,3,.2c4.1.3,6.7,2.6,6.7,6.6s-2.6,6.3-6.8,6.4h-6c-4.9.2-7.9,2.9-7.6,6.8s3.2,6.3,7.5,6.3h38a22.8,22.8,0,0,1,5.4.5,5.8,5.8,0,0,1,4.6,6.3c-.1,3.4-1.9,5.6-5.4,6.1a35.4,35.4,0,0,1-4.5.2H80c-5-.2-7.8-2.6-7.7-6.6s2.9-6.4,7.9-6.5c7-.1,14,0,21,0h4.5c3.9-.2,6.2-2.2,6.4-6.2s-2.2-6.1-6-6.7a32.3,32.3,0,0,0-5-.1H67.6c-5.7,0-8.4-2-8.6-6.1s2.2-6.5,7.8-6.9,6.5-2.5,6.8-6.5-2.8-6.4-7.3-6.5c-7.2-.1-14.3,0-21.5-.1-5.3,0-7.9-2-8.1-6.1s2.1-6.7,7.7-6.9c3.7-.1,2.9-2.1,2.7-4.3-2-23.6,4.6-44.5,20.8-61.9a75.3,75.3,0,0,1,36.8-22c1.9-.5,3.8-1.2,5.6-1.8.1,0,.3-.3.3-.4L110,0Z"/><path class="cls-2" d="M55,192.4c-.5-12.5-8.1-21.2-20.3-23.9S8.9,170.6,3.3,181.1c-.8,1.5-.8,3.8-3.3,3.9v36c2.7.2,2.6,2.7,3.5,4.3,5.6,10,18.1,14.8,31.4,11.9S54.3,226.3,55,214.3C55.4,207,55.3,199.7,55,192.4ZM41.8,216.5c-1.2,6.5-7.1,10.3-14.8,9.9s-13-4.5-13.9-11.7c-.5-3.9-.1-8-.1-12H13c0-3.5-.2-7,.1-10.5.6-7.6,6.2-12.8,13.8-13.1s13.8,4,15.2,11.6A72.3,72.3,0,0,1,41.8,216.5Z"/><path class="cls-3" d="M108.5,195.6A20.2,20.2,0,0,0,96,188c-7.6-1.4-14,.9-18.9,6.9-.6-.8-1-1-1-1.3-.1-6.8-5.2-4.4-8.7-4.6s-3.5,3.1-3.5,5.6q0,30.7.1,61.4H76V230.3c12.8,9.7,22.6,9.9,31,1.2S116.6,206,108.5,195.6ZM88.8,227c-7.8-.1-12.9-5.9-12.8-14.7s5.3-14.1,12.9-14.2,13.1,5.9,13.1,14.5S96.7,227.1,88.8,227Z"/><path class="cls-2" d="M600,199c-16.3.5-17.8,2.1-17.8,18.4,0,5.2-.1,10.3,0,15.5s-3.6,3.7-6.4,3.8-5.8.6-5.8-3.9c.1-13.3.1-26.6,0-40,0-2.7.9-4.4,3.7-3.9s6.9-2.3,8.2,2.8c.2.9-.2,2.1,1.4,2.9,4-6.1,10.1-6.4,16.6-5.6Z"/><path class="cls-2" d="M268.3,182.8,262,216c-1,5.4-2.2,10.8-3,16.2-.5,3.2-1.7,4.8-5.1,4.6s-8.3-.1-12.5,0-4.2-1-4.6-3.9c-3.1-20.1-6.3-40.1-9.5-60.2-.4-2.6.5-3.8,3.1-3.7a22.8,22.8,0,0,0,4,0c4-.5,5.4,1.2,5.9,5.2,2,15.2,4.4,30.3,6.6,45.4.2,1.1-.1,2.4,1.4,3.4,1.6-3,1.7-6.3,2.3-9.4,2.5-13.1,5-26.2,7.2-39.3.7-4,2.2-5.5,6.5-5.5,14.4.1,14.5,0,17.2,14.1,2.2,11.6,4.3,23.2,6.5,34.9a8.8,8.8,0,0,0,2.4,5c1.2-7.6,2.3-15.3,3.5-22.9s2.6-18.1,4-27.2c.6-3.8,4.1-5,10.5-3.8,4,.7,2.2,3.4,1.9,5.4-2.9,19.1-6.1,38.1-8.9,57.2-.6,4.1-2.3,5.4-6.2,5.1a78.7,78.7,0,0,0-10.5,0c-3.7.3-5.2-1.3-5.9-5-2.7-15.4-5.7-30.8-8.6-46.1-.2-1-.5-1.9-.7-2.8Z"/><path class="cls-4" d="M474.2,195.7c2.4-2,4.1-4.5,6.9-5.8,12.3-5.6,25.7,1.8,26.7,15.3.7,9.3.3,18.6.2,27.9,0,5.5-4.3,3.3-7,3.6s-5.2-.1-5.1-4.1c.2-7.5.2-15,0-22.5s-6.2-13.2-14.8-10.9c-4.1,1.1-6.4,4-7.2,8.1-1.5,7.9-.9,15.9-.7,23.9.1,5.3-2.5,5.5-6.4,5.5s-6-.7-5.9-5.4c.3-19,.3-37.9,0-56.9-.1-5.1,2.2-5.5,6.3-5.6s6.4,1.1,6,5.8-.1,10.6-.1,16C473.2,192.3,472.8,194,474.2,195.7Z"/><path class="cls-2" d="M411.1,205.3a16.4,16.4,0,0,0-8-14.2c-10.5-6.9-27.3-3.7-34.6,6.5-.7.9-1.9,1.9-1.1,3s4.7,3.7,7.4,4.8,2.5-1.7,3.5-2.8c4.6-5.3,11.9-6.9,17-3.6,2.2,1.5,3.9,3.5,3.3,6.2s-3.2,2.1-5,2.3c-5.9.7-12,1-17.7,2.6s-11.1,7.1-11,13.2,4.4,11.8,11.3,13.5c8.3,2.1,15.9,1,22.2-7.1.4,1.8.6,2.6.7,3.4.8,5.9,5.3,2.9,8.3,3.4s3.7-1.8,3.7-4.4C411.1,223.3,411.2,214.3,411.1,205.3Zm-13.3,16.3c-2.5,5.1-11.2,7.9-16.4,5.5-1.9-.9-3.3-2.3-3.3-4.5a4.5,4.5,0,0,1,3.7-4.7c4-.9,8.1-1.5,11.3-2.1s4.4-1.2,5.5.6S398.6,219.9,397.8,221.5Z"/><path class="cls-2" d="M135.8,216c4.5.2,9,0,13.5,0h13.5c2,0,3.7-.2,3.8-2.8.2-13.6-6.6-23.5-19-25.3-9.4-1.4-17.7.9-23.4,9s-6.5,18.1-2.2,27.5c7.2,15.6,29.4,18.5,40.7,5.5.9-1.1,2.4-2.1,1.7-3.8-1.3-3.4-8.7-4.8-11.5-2.2-6.4,5.8-16.7,4.2-19.9-3.1C131.8,217.7,131.9,215.9,135.8,216Zm-1.7-13.8c2.6-3.6,6.4-4.5,10.5-4.1a9.6,9.6,0,0,1,8.1,5.7c1.3,2.7,1,4.4-2.6,4.2H136.8c-1.4-.1-3.3.6-4.1-.8S133.1,203.7,134.1,202.2Z"/><path class="cls-2" d="M329.9,216c4.5.2,9,0,13.5,0h13.5c2,0,3.7-.2,3.7-2.8.1-13.4-6.5-23.4-19.1-25.3-9.4-1.4-17.7,1-23.4,9s-6.5,18.1-2.1,27.5c7.2,15.5,29.4,18.4,40.7,5.4.9-1.1,2.4-2.1,1.7-3.8-1.3-3.3-8.7-4.7-11.5-2.2-6.4,5.8-16.7,4.2-19.9-3.2C325.7,217.7,326,215.9,329.9,216ZM327,204.1c2-4.2,5.4-6,9.9-6.1s8,1.8,9.9,6c1.1,2.5.9,4.1-2.4,4s-5.3,0-7.9,0h-6.9C326.5,208.1,325.7,206.8,327,204.1Z"/><path class="cls-2" d="M532.1,216c4.3.2,8.6,0,13,0h14c2,0,3.7-.3,3.8-2.8.1-10.9-4.5-22.6-18.1-25.1-18.9-3.5-33,12.1-28.3,31.2,2.3,9.1,7.8,15.4,17.1,17.7s18.2.6,25.1-6.8c1.1-1.1,3.1-2.5,1.9-4.1s-4.5-3.3-7.1-4.5-3.1,1.3-4.4,2.4c-6.5,5.8-16.8,4.1-19.8-3.3C528,217.6,528.1,215.8,532.1,216Zm-2.6-12.4c2.1-3.9,5.5-5.6,9.9-5.6s7.5,1.6,9.5,5.4,1.5,4.8-2.6,4.6c-2.3-.1-4.7,0-7,0s-4.7-.1-7,0C528.4,208.3,527.9,206.6,529.5,203.6Z"/><path class="cls-3" d="M186.7,196c3.4-3.6,6.7-6.5,11.3-7.5,11.7-2.4,21.7,4.4,22.7,16.5.8,9.4.2,19,.3,28.5,0,2.4-1.1,3.1-3.3,3.3-8,.9-8.7.3-8.7-8,0-6.2.1-12.3-.1-18.5s-3.5-11.1-9.9-11.4-11.2,2.6-12.4,10-.6,15.3-.5,22.9c.1,5.3-2.9,4.9-6.4,5s-6-.1-5.9-4.9c.3-12.5.1-25,.1-37.5,0-2.9-.3-6,4.1-5.5s8.4-2.1,7.9,4.7A9.4,9.4,0,0,0,186.7,196Z"/><path class="cls-3" d="M427.9,214.8c0-3.3-.3-6.7.1-10s-1.3-6.3-5.9-5.9-6.3.8-6.4-4.4,1.8-6.3,6.2-5.7,6.8-1.3,6.1-6.1a13.4,13.4,0,0,1,0-2c0-6.3,4.3-9,10.3-6.6a2.3,2.3,0,0,1,1.7,2.2c.1,1.2.1,2.3.1,3.5.1,8.7.1,8.9,8.6,9,4.1,0,4.5,2,4.5,5.3s-.8,5.1-4.7,5c-8.4,0-8.4.2-8.4,8.6,0,4.5.1,9,0,13.5s1.4,5.5,5,5,5.3,2.1,5.3,6-2.5,4.7-5.8,4.6H439c-8-.4-11-3.6-11.1-11.5C427.8,221.7,427.9,218.3,427.9,214.8Z"/><path class="cls-5" d="M185.9,130.1h-6.5c-4-.2-6.2-2.6-6.3-6.4a6,6,0,0,1,6.1-6.6,114.1,114.1,0,0,1,14.4,0,6,6,0,0,1,6,6.6c-.1,3.8-2.4,6.1-6.4,6.3Z"/><path class="cls-6" d="M223.8,130.1h-6.5c-4.2-.1-6.6-2.3-6.6-6.4s2.2-6.3,6.1-6.5a113.5,113.5,0,0,1,14.4,0c3.8.3,6,2.7,5.9,6.6s-2.4,6-6.3,6.2c-2.3.1-4.6,0-7,0Z"/><path class="cls-7" d="M148.6,208h0Z"/></g></g></svg>