<?xml version="1.0" encoding="utf-8"?>
<!-- Generator: Adobe Illustrator 21.0.0, SVG Export Plug-In . SVG Version: 6.00 Build 0)  -->
<svg version="1.1" id="Capa_1" xmlns="http://www.w3.org/2000/svg" xmlns:xlink="http://www.w3.org/1999/xlink" x="0px" y="0px"
	 viewBox="0 0 226.7 54.8" style="enable-background:new 0 0 226.7 54.8;" xml:space="preserve">
<style type="text/css">
	.st0{fill:#326690;}
	.st1{fill:#FFFFFF;}
</style>
<title>postgresql</title>
<g id="Capa_2">
	<g id="Capa_1-2">
		<g id="Layer_1">
			<path class="st0" d="M169.2,14.9c-2.9,1.6-2.8,6.7,0.4,7.9s7,1.3,10.4,2.2c0.9,0.1,1.7,0.7,2.1,1.5c0.8,1.7,0.1,4.2-1.8,4.9
				c-2.8,0.9-5.9,0.8-8.7-0.2c-1.7-0.8-2.7-2.4-2.8-4.2h-2.3c0.1,1.7,0.5,3.5,1.8,4.6s5,1.9,7.6,2.1s5.1-0.2,7.2-1.6
				s2.7-6.2-0.2-7.6s-5.7-1.5-8.5-2.1s-2.9-0.5-4.1-1.3c-1.2-1.2-1.2-3.1,0-4.2c0.3-0.3,0.8-0.6,1.2-0.8c2.6-0.8,5.5-0.8,8.1,0.1
				c1.6,0.5,2.2,2.2,2.4,3.5h2.3c0.1-1.5-0.6-3-1.7-4c-1.9-1.6-4.6-1.7-6.9-1.7C173.5,13.7,171.2,14,169.2,14.9z"/>
			<path d="M82.7,15.6c-1.3-1-2.9-1.6-4.6-1.5H67.5v18.8h1.8c0-2.7-0.1-5.3,0-7.9h9c2.2-0.1,4.7-1.1,5.6-3.3S84.4,17,82.7,15.6z
				 M81.7,21.4c-0.6,1.6-2.4,2.1-4,2.2s-5.6,0-8.3,0v-7.8h8c1.3,0,2.9,0.2,3.8,1.3C82.1,18.4,82.2,20,81.7,21.4z"/>
			<path class="st0" d="M210.6,14.2v18.7h16.1v-1.6h-14V14.1L210.6,14.2z"/>
			<path class="st1" d="M117.4,16.6v4H115v1.2h2.4v8.5c-0.1,0.9,0.3,1.7,1,2.2c1.3,0.5,2.8,0.6,4.2,0.4v-1.2
				c-0.9,0.2-1.9,0.2-2.8-0.2c-0.6-0.4-0.5-1.1-0.6-1.7v-7.9h3.3c0-0.4,0-0.9-0.1-1.3h-3.3v-4H117.4z"/>
			<path class="st1" d="M102,21.4c-1.7,1.1-1.7,4.2,0.4,5.1s5.9,0.7,8.9,1.6c1,0.4,1.4,1.5,1,2.5c-0.2,0.4-0.4,0.7-0.8,0.9
				c-2,0.8-4.2,1-6.3,0.5c-1.5-0.1-2.7-1.3-2.8-2.8h-2.1c0.1,1.1,0.7,2.2,1.5,3c1.6,1.1,3.6,1.1,5.5,1.2c2,0.1,3.9-0.2,5.7-1.1
				c1.4-0.8,1.9-2.7,1.1-4.1c0,0,0,0,0,0c-0.7-0.9-1.7-1.5-2.8-1.6c-2.3-0.5-4.7-0.5-7-1c-0.9-0.1-1.5-0.8-1.6-1.7
				c0-1.2,1.3-1.8,2.4-2.1c1.8-0.3,3.6-0.2,5.3,0.4c1,0.4,1.2,1.3,1.5,2.3h2.1c0-1.1-0.6-2.2-1.5-2.9c-1.8-1.2-4-1.2-6.1-1.1
				C104.9,20.3,103.3,20.6,102,21.4z"/>
			<path class="st1" d="M145.1,20.8c-0.8,0.5-1.4,1.2-1.8,2.1v-2.1h-1.9c-0.1,4.1,0,8.1,0,12.3h1.8v-6.4c-0.1-1.5,0.5-3,1.7-4
				c1.3-1,3-0.7,4.6-0.7v-1.6C148,20.2,146.5,20.3,145.1,20.8z"/>
			<path class="st0" d="M190.7,15.2c2.7-1.2,5.7-1.7,8.6-1.3c2.8,0.1,5.5,1.3,7.4,3.4c2.3,2.4,2.8,6.3,1.8,9.5
				c-0.5,1.7-1.6,3.3-3,4.4l3.3,2.3l-1.5,1.3c-1.1-0.7-2.2-1.6-3.3-2.2c-0.9,0.1-1.8,0.4-2.7,0.7c-2.5,0.5-5,0.5-7.5,0
				c-2.8-0.5-5.3-2.1-6.8-4.5c-1.4-2.4-1.7-5.2-1-7.9C186.7,18.4,188.4,16.3,190.7,15.2z M194.3,15.7c-2.6,0.6-4.8,2.5-5.8,5
				c-1,2.8-0.4,6,1.5,8.3c1.9,2,4.5,3,7.2,2.9c2.9,0.1,6.1-0.7,8-3s2.3-8.9-1.2-11.5S197.6,14.9,194.3,15.7z"/>
			<path d="M117.4,16.6h1.9v4h3.3c0,0.4,0,0.9,0.1,1.3h-3.3v7.9c0,0.6,0,1.3,0.6,1.7c0.9,0.3,1.9,0.3,2.8,0.2V33
				c-1.4,0.2-2.9,0.1-4.2-0.4c-0.8-0.4-1.2-1.3-1-2.2V22h-2.4v-1.2h2.4C117.4,19.4,117.3,18,117.4,16.6z"/>
			<path d="M96.5,21.4c-2.3-1.1-4.8-1.5-7.3-1c-2.1,0.2-3.9,1.5-4.9,3.4c-0.9,2-0.8,4.2,0.1,6.2c1.2,2,3.3,3.2,5.6,3.3
				c2.8,0.2,5.9-0.1,8-2.3S99.8,23.2,96.5,21.4z M96.1,30.5c-1.1,1-2.6,1.6-4.1,1.6c-1.7,0.2-3.4-0.3-4.7-1.3
				c-1.5-1.6-1.9-3.9-1.2-5.9c0.6-1.8,2.2-3,4.1-3.2c1.8-0.3,3.6-0.1,5.2,0.8c1.1,0.8,1.8,2,1.9,3.4C97.7,27.5,97.3,29.2,96.1,30.5
				L96.1,30.5z"/>
			<path d="M102,21.4c1.3-0.7,2.7-1.1,4.2-1.1c2.1-0.1,4.4-0.1,6.1,1.1c0.9,0.7,1.5,1.8,1.5,2.9h-2.1c0-1-0.6-1.9-1.5-2.3
				c-1.7-0.7-3.5-0.8-5.3-0.4c-1.1,0.1-2.4,0.7-2.4,2.1s0.7,1.6,1.6,1.7s4.7,0.5,7,1c1.1,0.2,2.1,0.7,2.8,1.6
				c0.8,1.4,0.3,3.3-1.1,4.1c0,0,0,0,0,0c-1.8,0.9-3.7,1.2-5.7,1.1c-1.8-0.1-3.9-0.1-5.5-1.2c-0.9-0.7-1.5-1.8-1.5-3h2.1
				c0.1,1.5,1.3,2.7,2.8,2.8c2.1,0.2,4.4,0.5,6.3-0.5c0.9-0.5,1.2-1.7,0.7-2.6c-0.2-0.4-0.5-0.6-0.9-0.8c-2.9-0.8-6.1-0.6-8.9-1.6
				S100.3,22.5,102,21.4z"/>
			<path d="M128.4,20.5c2-0.5,4.1-0.5,6.1,0.1c1,0.4,2,1.1,2.8,1.9c0-0.7,0.1-1.3,0.1-1.9h1.8c0.1,3.8,0,7.5,0.1,11.3
				c0.2,1.6-0.3,3.3-1.5,4.4c-1.5,1.5-3.8,1.7-5.8,1.7c-1.9,0.1-3.8-0.2-5.5-1c-1-0.7-1.7-1.8-1.9-3h1.8c0.4,0.8,0.7,1.8,1.6,2.2
				c1.3,0.5,2.8,0.7,4.2,0.6c1.6-0.1,3.4-0.4,4.4-1.7s0.7-3,0.7-4.6c-1.9,2.1-5,2.4-7.6,2.1c-1.7-0.2-3.4-1-4.6-2.2
				c-1.2-1.7-1.6-3.9-1-5.9C124.7,22.5,126.4,21,128.4,20.5z M130,21.7c-1.4,0.2-2.7,0.9-3.5,2.1c-0.8,1.5-0.9,3.3-0.4,4.9
				c0.6,1.6,2.4,2.4,4,2.7s4.5,0,5.9-1.6c1.8-2.2,1.5-5.4-0.7-7.2c0,0,0,0,0,0C133.9,21.5,131.8,21.5,130,21.7z"/>
			<path d="M145.1,20.8c1.4-0.5,2.9-0.6,4.4-0.5v1.6c-1.6,0-3.3-0.2-4.6,0.7c-1.2,1-1.8,2.5-1.7,4v6.3h-1.8c-0.1-4.1-0.1-8.1,0-12.3
				h1.9v2.1C143.7,21.9,144.3,21.3,145.1,20.8z"/>
			<path d="M150.2,23.3c1.2-2.1,3.8-2.9,6.1-3s5.1,0.2,6.8,2.1s1.7,3,1.8,4.9h-13.8c0.1,1.3,0.6,2.5,1.5,3.4
				c1.9,1.5,4.4,1.9,6.7,1.2c1.5-0.4,2.7-1.5,3.2-2.9h2.1c-0.7,2-2.4,3.6-4.5,4c-2.8,0.6-6.1,0.5-8.5-1.2S148.6,26,150.2,23.3z
				 M153.7,22.3c-1.3,0.8-2.1,2.1-2.3,3.6H163c-0.1-0.9-0.4-1.7-1-2.4C159.8,21.2,156.4,20.7,153.7,22.3z"/>
			<path class="st1" d="M31.9,1c-2.3-0.4-4.7-0.4-7-0.1c-1.3,0.3-2.6,0.8-3.8,1.5C17.3,1,13.2,0.6,9.2,1.1C6.3,1.6,3.8,3.3,2.3,5.8
				c-1.9,3.1-2.2,6.7-2,10.2c0.6,3.9,1.4,7.8,2.6,11.6c0.9,3.3,2.2,6.5,3.9,9.4c1,1.6,2.4,3.3,4.4,3.8c1.6,0.3,3.2-0.1,4.4-1.1
				c0.6,0.6,1.3,1,2.1,1.3c2.3,0.9,4.9,0.9,7.2-0.1c0.1,3.2,0,6.4,1.2,9.3c0.4,1.5,1.3,2.7,2.5,3.6c1.5,0.9,3.2,1.2,4.9,0.8
				c1.5-0.2,2.9-0.8,4.2-1.5c1.3-0.8,2.4-2.1,3-3.5c1.5-3.3,1.6-6.8,1.7-10.3c3.4,0.4,6.9-0.7,9.5-2.9c1-0.8,1.6-2.1,1.4-3.4
				c-0.4-1.2-1.6-2-2.9-1.9c-1.3,0.1-2.5,0.5-3.9,0.5c3-5,5.1-10.5,6.2-16.3c0.4-2.4,0.7-4.9,0-7.3c-0.5-1.3-1.3-2.5-2.3-3.4
				c-2.3-2.2-5.1-3.6-8.2-4.2C38.8-0.3,35.2,0,31.9,1z"/>
			<path class="st1" d="M31.7,2.4C35.3,1.2,39.2,1,42.9,2c2.9,0.8,5.5,2.6,7.4,5c0.7,1,1,2.3,1,3.5c0,2.2-0.2,4.3-0.8,6.4
				c-1.4,5.6-3.7,10.9-6.8,15.7c1.7,0.7,3.6,0.4,5.3,0.1s1.7-0.4,2.2,0.4c0.4,0.7,0.1,1.6-0.5,2.1c-2.5,2.5-6.4,3.2-9.8,2.5
				c-0.4,3-0.7,6.1-1.2,9.2c-0.1,1.8-0.9,3.4-2.2,4.6c-1.3,1.1-2.8,1.7-4.5,1.9c-1.6,0.2-3.5,0.1-4.7-1.1c-1.3-1.2-2.1-2.9-2.3-4.7
				c-0.3-3.1-0.4-6.1-0.4-9.2c-1.5,1.2-3.4,1.9-5.3,1.8c-1.4,0-2.8-0.4-3.9-1.3c-0.5-0.5-0.5-1.3,0-1.8c0,0,0,0,0.1-0.1
				c1.1-0.8,2.5-0.7,3.8-1.2s1.5-1.2,1.9-1.8c-1-0.1-2.1-0.3-3-0.8L15,38.1c-0.7,1.1-2,1.7-3.3,1.6C10.2,39.3,9,38.3,8.2,37
				c-1.5-2.4-2.7-4.9-3.5-7.6c-1.4-4.3-2.4-8.7-3-13.2c-0.4-3.4,0-7,1.9-9.8c1.6-2.2,4.2-3.6,6.9-3.8c3.6-0.3,7.3,0.2,10.7,1.5
				c2.9-1.8,6.4-2.3,9.7-1.5C31.3,2.4,31.5,2.6,31.7,2.4z M34.4,3.4l2.2,1.3c2.9,1.9,5.2,4.7,6.6,7.9c0.5,0.9,0.7,1.9,0.7,2.9
				c0,2.1-0.7,4.1-0.5,6.2s0.7,4.5,0.1,6.7c-0.2,0.8-0.5,1.5-0.8,2.2c0,0.1,0,0.3,0.1,0.4l0.7-1.1c2.3-3.8,4-7.9,5.2-12.1
				c0.7-2.3,1-4.8,1.1-7.2c0.1-1-0.2-2-0.7-2.9c-1.4-1.7-3.2-3.1-5.2-3.9C40.8,2.8,37.5,2.7,34.4,3.4z M25.9,3.6
				c-2.3,0.3-4.4,1.5-5.8,3.4c-1.7,2.6-2.7,5.6-2.9,8.7c1.9-0.8,4-1.7,6.2-1.2c1.4,0.4,2.4,1.6,2.6,3c0.7,2.7,0.9,5.6,0.4,8.4
				c-0.5,2.2-1.8,4.1-2.3,6.4c0.6,0,1.2,0.1,1.7,0.4c1.1,0.6,1.7,1.8,1.6,3c-0.1,3-0.1,6.1,0.1,9.1c0,1.3,0.2,2.6,0.5,3.8
				c0.4,1.5,1.5,2.8,3,3.3c1.7,0.2,3.5-0.2,5-1c1.4-0.9,2.3-2.4,2.4-4c0.5-3.3,0.8-6.6,1.2-9.8c0.1-1.2-0.1-2.4,0.6-3.5
				s1.1-1,1.7-1.3L40.4,30c-1.6-3.4-3.8-6.6-4.5-10.2c-0.2-1.6-0.1-3.4,1.2-4.5s3.4-1.1,5.2-1.1c-1.1-3-3-5.6-5.5-7.6
				C33.7,4.3,29.8,3.3,25.9,3.6L25.9,3.6z M9.8,3.9C7.6,4.3,5.7,5.5,4.6,7.4c-1.3,2.6-1.7,5.5-1.3,8.3c0.5,3.7,1.3,7.3,2.4,10.9
				c0.8,3,2,6,3.6,8.7c0.5,1,1.4,1.8,2.4,2.3c1,0.2,1.7-0.6,2.3-1.2s2.7-3,4-4.6c-1.9-1.8-2.9-4.4-2.7-7c0.3-2,0.3-4.1,0.2-6.1
				c-0.2-2.9,0.2-5.8,1.1-8.5c0.6-2.1,1.7-3.9,3.2-5.5C16.6,4,13.1,3.3,9.8,3.9z M38.1,16.4c-1,0.7-1,2.2-0.7,3.3
				c0.7,3.5,2.8,6.4,4.2,9.6c1.2-2.3,0.5-5,0.2-7.5s0.4-4,0.5-5.9C41,15.8,39.4,15.6,38.1,16.4z M17.1,17.7c0,1.7,0.1,3.4,0,5
				c-0.3,1.5-0.3,2.9-0.1,4.4c0.4,2.8,2.8,4.8,5.6,4.9c0.3-1.4,0.8-2.7,1.4-4c1.7-3.3,1.3-7,0.5-10.4c-0.2-1-1.1-1.7-2.1-1.7
				C20.5,16,18.7,16.6,17.1,17.7z M41.7,34.1c-0.4,0.5-0.6,1.2-0.5,1.8c1.1,0.3,2.3,0.4,3.5,0.2c1.8-0.1,3.5-0.9,4.9-2.1
				c-2.1,0.2-4.4,0.7-6.4-0.2C42.7,33.6,42.1,33.7,41.7,34.1z M21.7,36.5c-1.2,0.7-2.7,0.6-3.8,1.2c2.4,1.2,5.9,0.8,7.6-1.5
				c0.5-0.7,0.4-1.6-0.3-2.1c-0.2-0.2-0.5-0.3-0.8-0.3C23.3,34.6,22.8,35.9,21.7,36.5z"/>
			<path class="st1" d="M38.5,16.9c0.7-0.4,1.6-0.5,2.4-0.2c0,0.8-0.6,1.4-1.4,1.4c-0.2,0-0.5-0.1-0.7-0.2
				C38.7,17.7,38.2,17.2,38.5,16.9z"/>
			<path class="st1" d="M21.4,17c0.8-0.2,1.6-0.1,2.2,0.4c0.4,0.4,0,1-0.4,1.1c-0.7,0.5-1.6,0.3-2.1-0.4c-0.1-0.2-0.2-0.4-0.2-0.6
				C20.9,17.2,21.1,17,21.4,17z"/>
			<path class="st0" d="M34.4,3.4c3.1-0.7,6.3-0.6,9.3,0.5C45.8,4.7,47.6,6,49,7.8c0.6,0.8,0.8,1.9,0.7,2.9
				c-0.1,2.4-0.4,4.9-1.1,7.2c-1.2,4.2-2.9,8.3-5.2,12.1l-0.7,1.1c0-0.1,0-0.3-0.1-0.4c0.3-0.7,0.6-1.4,0.8-2.2
				c0.6-2.2,0.1-4.5-0.1-6.7s0.5-4.1,0.5-6.2c0-1-0.2-2-0.7-2.9c-1.4-3.2-3.7-5.9-6.6-7.9C35.9,4.2,35.2,3.8,34.4,3.4z"/>
			<path class="st0" d="M25.9,3.7c3.8-0.5,7.7,0.6,10.8,2.9c2.5,1.9,4.4,4.6,5.5,7.6c-1.7,0-3.8-0.1-5.2,1.1s-1.5,2.9-1.2,4.5
				c0.7,3.8,2.9,6.9,4.5,10.2c0.4,0.8,1,1.6,1.6,2.2c-0.7,0.2-1.3,0.7-1.7,1.3c-0.6,1.1-0.4,2.3-0.6,3.5c-0.4,3.3-0.7,6.6-1.2,9.8
				c-0.1,1.6-1,3.1-2.4,4c-1.5,0.8-3.3,1.2-5,1c-1.5-0.4-2.7-1.7-3-3.3c-0.3-1.2-0.5-2.5-0.5-3.8c-0.1-3-0.1-6.1-0.1-9.1
				c0.1-1.2-0.5-2.4-1.6-3c-0.5-0.3-1.1-0.4-1.7-0.4c0.5-2.2,1.8-4.1,2.3-6.4c0.5-2.8,0.3-5.7-0.4-8.4c-0.3-1.4-1.3-2.5-2.7-2.9
				c-2.1-0.3-4.3,0.1-6.2,1.2c0.2-3.1,1.2-6,2.9-8.6C21.5,5.3,23.6,4.1,25.9,3.7z"/>
			<path class="st0" d="M9.8,3.9c3.4-0.5,6.9-0.1,10.1,1c-1.5,1.6-2.6,3.4-3.2,5.5c-0.9,2.7-1.2,5.6-1.1,8.5c0.2,2,0.1,4.1-0.2,6.1
				c-0.3,2.6,0.7,5.2,2.7,7l-4,4.6c-0.6,0.7-1.3,1.5-2.3,1.2c-1-0.5-1.9-1.3-2.4-2.3c-1.6-2.7-2.8-5.7-3.6-8.7
				c-1.2-3.6-2.1-7.3-2.6-11C3,13,3.1,10,4.6,7.5C5.7,5.6,7.6,4.3,9.8,3.9z"/>
			<path class="st0" d="M38.1,16.4c1.2-0.8,2.9-0.7,4.2-0.6c-0.1,1.9-0.7,3.9-0.5,5.9s0.8,5.1-0.2,7.5C40,26,38,23.1,37.4,19.6
				C37.2,18.5,37.4,17.3,38.1,16.4z M38.6,16.9c-0.4,0.4,0,0.8,0.4,1c0.7,0.3,1.5,0,1.9-0.7C41,17,41,16.8,41,16.6
				C40.2,16.3,39.2,16.4,38.6,16.9L38.6,16.9z"/>
			<path class="st0" d="M17.1,17.7c1.5-1.1,3.3-1.7,5.2-1.7c1,0,1.9,0.7,2.1,1.7c0.8,3.4,1.1,7.2-0.5,10.4c-0.6,1.2-1.1,2.6-1.5,3.9
				c-2.8-0.1-5.1-2.2-5.6-4.9c-0.4-1.5,0.1-2.9,0.1-4.4C17.1,21,17.1,19.4,17.1,17.7z M21.5,17c-0.2,0.1-0.5,0.2-0.5,0.5
				c0.1,0.8,0.9,1.4,1.7,1.2c0.2,0,0.4-0.1,0.6-0.2c0.4-0.2,0.7-0.7,0.4-1.1c-0.6-0.5-1.5-0.7-2.3-0.4H21.5z"/>
			<path class="st0" d="M41.7,34.1c0.4-0.2,1-0.6,1.5-0.2s4.2,0.5,6.4,0.2c-1.4,1.2-3.1,1.9-4.9,2.1c-1.2,0.2-2.4,0.2-3.5-0.2
				C41.1,35.3,41.3,34.6,41.7,34.1z"/>
			<path class="st0" d="M21.7,36.5c1.1-0.6,1.6-1.9,2.7-2.7s2.1,1.6,1.1,2.4c-1.9,2.3-5,2.9-7.6,1.5C19,37.3,20.5,37.3,21.7,36.5z"
				/>
			<path d="M31.9,1c3.3-0.9,6.8-1.1,10.2-0.6c3.1,0.5,6,2,8.3,4.2c1,0.9,1.8,2.1,2.2,3.4c0.7,2.4,0.4,4.9,0,7.3
				c-1.2,5.7-3.2,11.2-6.2,16.3c1.3,0,2.5-0.4,3.9-0.5c1.3-0.1,2.5,0.7,2.9,1.9c0.2,1.4-0.4,2.7-1.5,3.5c-2.7,2.1-6.2,3.2-9.6,2.9
				c-0.2,3.5-0.2,7-1.7,10.3c-0.7,1.4-1.7,2.6-3,3.5c-1.3,0.8-2.7,1.3-4.2,1.5c-1.7,0.4-3.4,0.1-4.9-0.8c-1.2-0.9-2.1-2.1-2.5-3.6
				c-1.1-3-1-6.2-1.2-9.3c-2.3,1-4.9,1-7.2,0.1c-0.8-0.2-1.6-0.7-2.2-1.3c-1.2,1-2.8,1.4-4.4,1.1c-1.9-0.5-3.3-2.2-4.4-3.8
				c-1.7-3-3-6.2-3.9-9.5C1.4,23.8,0.6,19.9,0.1,16c-0.3-3.5,0-7.1,1.9-10.2c1.6-2.4,4.1-4.1,6.9-4.7c4-0.8,8.1,0,11.9,1.1
				C22,1.5,23.3,1,24.6,0.7C27,0.4,29.5,0.5,31.9,1z M31.8,2.5c-0.2,0.1-0.6-0.1-0.8-0.1c-3.3-0.8-6.8-0.3-9.7,1.5
				c-3.4-1.4-7.1-2-10.8-1.7C7.8,2.4,5.2,3.8,3.6,6c-1.9,2.9-2.2,6.6-1.9,9.8c0.6,4.4,1.6,8.8,3,13.1c0.8,2.7,2,5.2,3.5,7.6
				c0.8,1.1,1.9,2.3,3.4,2.4c1.3,0,2.5-0.6,3.3-1.6l4.2-4.9c0.9,0.4,2,0.7,3,0.8c-0.6,0.7-1.1,1.6-1.9,1.8s-2.7,0.4-3.8,1.2
				c-0.6,0.5-0.6,1.3-0.2,1.8c0,0,0,0,0.1,0.1c1.1,0.9,2.5,1.3,3.9,1.3c1.9,0.1,3.8-0.5,5.3-1.8c0,3.1,0.1,6.1,0.4,9.2
				c0.1,1.8,0.9,3.5,2.3,4.7c1.3,1.2,3.1,1.7,4.8,1.4c1.6-0.3,3.1-0.9,4.5-1.8c1.2-1.2,2-2.9,2.2-4.6c0.5-3,0.8-6.1,1.2-9.2
				c3.5,0.7,7.1-0.2,9.8-2.5c0.5-0.5,1.1-1.5,0.5-2.1s-1.5-0.5-2.2-0.4s-3.6,0.7-5.3-0.1c3.1-4.8,5.4-10.1,6.8-15.7
				c0.5-2.1,0.8-4.2,0.8-6.4c0-1.2-0.4-2.4-1-3.5c-1.9-2.4-4.5-4.2-7.4-5C39.2,1.1,35.3,1.4,31.8,2.5L31.8,2.5z"/>
		</g>
	</g>
</g>
</svg>
