<svg xmlns="http://www.w3.org/2000/svg" viewBox="0 0 186.8 95.3"><defs><style>.cls-1{fill:#fff;}</style></defs><title>action_1</title><g id="Capa_2" data-name="Capa 2"><g id="Capa_1-2" data-name="Capa 1"><path class="cls-1" d="M131.6,55.9c-1-.3-5.4-6.3-1.9-10.3.6-.7-1.2-2.6-.7-2.6s2.9,1,3.4,2.7.1,1.5.1,2.3a39.3,39.3,0,0,1-.8,8M120.9,75.5l-1.2-.5c-2.1-1.1-1.9.6-2.9.3s1.2-2.8-2-.8-2.3-.3-3.6-3.8,1.6-7.4,4-8.3a49.2,49.2,0,0,1,7.1-1.9c4.7-1.2,5.7-3.9,6.5-2.2l.5.9a6.2,6.2,0,0,1,.6,2.5,39,39,0,0,1-9,13.7M93.4,86.8a39,39,0,0,1-11-1.6,1.6,1.6,0,0,1-.5-1.9c1.2-3.1,4.8-4.4,7.6-4.6,6.3-.6,14.6,4.1,15.9,3.4s4-4.2,7.9-4.1a6.1,6.1,0,0,1,3.6.9,38.8,38.8,0,0,1-23.6,7.9M88.2,61.4c-.5.9-2,7.4-3,6.7s.4-7.6.7-8.1c1.5-2.8,4.9-2.7,2.3,1.5m15.9-7.7c-.8.7-2.7.4-3.7-.3s.6-2,1.2-2.1,3.3,1.7,2.5,2.4m17.2.1c-.4-.2-.8-.6-1.1-1.5a.9.9,0,0,1,1.3-1.1,3.8,3.8,0,0,1,1.8,2.2c0,.6-1.6.6-2,.4M123,55c1.3-.1,3.3,1.7,2.5,2.4s-2.7.4-3.7-.3.6-2,1.2-2.1M81.1,70.5a11.1,11.1,0,0,1-2.4,5,8.1,8.1,0,0,1-5.3,2c-1.8-.1-2-4.9-2-7.3,0-.8-1.2,1.6-1.8-3.4-.4-3.2-2.5.3-2.6-1.8s-1.2-1.7-2.3-3.1-2.4.1-4,.8-.9,1-3,.3h-.1a38.8,38.8,0,0,1-3-15.2c0-1.3.1-2.6.2-3.9l.2-.4c2.1-2.4,2-3,2-3l2.3-.8a38.1,38.1,0,0,1,6.4,1.6c2.3.9,5.8,2.8,7.9,1.9s2.7-1.4,2.5-2.7-1.4-1.9-2.9-.9-1.7-2.4-2.6-2.2,1.1,3.2.4,3.4-2.3-3.2-2.6-3.8-1.5-1.9-2.6-.9-6,2-6.8,2.6c-2.3,1.7-2.9-.6-2.8-1.9l.3-.9c.7-.8,3.4-1.1,4.3-.5s1.7-.2,2.1-.6a1.4,1.4,0,0,0,0-1.6c-.3-.5.5-.9,1-1.1a27.3,27.3,0,0,0,3-1.8c.7-.4,4.3-.8,5.9,0a3.1,3.1,0,0,0,3.9-.8,10.5,10.5,0,0,1,2.8-2.4c.6-.3-1.4-2.1-3-.1s-2.4,2.2-3.2,2.2-5.3-1.1-5.8-2.6,1.4-2.5,3.1-3.3,6.2-.8,7.4-1,5.4-1.7,6.9-.7S78.5,24.6,81,26c.9.5,5.1-2.4,6.5-3.1,3.4-1.7-3.2-2.3-2.4-5.8S77.1,14.6,72.5,15a39,39,0,0,1,58.8,23.8,6.4,6.4,0,0,1-.2,1.8,2.5,2.5,0,0,1-4.6.3c-.4-.6-2.1-2.2-2,.5s2.6,3,.1,4.6-2.9,1.2-4.1,1.6-2.3,3.2-2,4.7,3.8,5.6,1.2,5.4c-.6,0-5.3-3.2-6-5.3s-1.7-4.3-2.3-5.9a2.3,2.3,0,0,0-3.7-1.1c-1.4.9.4,1.9-.6,3.9s-1.7,3.8-3.2,2.2c-3.8-4.4-9.3-2.2-10.2-7.1-.5-2.6-2.7-2.4-4.6-3.9s-3-2.3-3.3-1.2,5.9,5.9,6.4,7.2-1.9,3.5-3.7,4-2.7-1-4.5-2.9-2.6-3.2-2.7-1.8,1.7,5.3,3.6,6.5,3.3,1.5,2.8,3.1,0,.7-1.8,2.5-2.1,2.3-2,4.7-.5,2.6-.9,4.6-1.3.3-2,3.2m-20.9-43,.2-.2c.7-.8,2.1-1,3.1-1.1s2.3.3,2.4,1-2.4,1.8-2.9,2.3-3.5,3.8-4.7,4a1.5,1.5,0,0,1-1-.1,38.6,38.6,0,0,1,2.9-5.8m2-4,2.4-3.1a3,3,0,0,1,1.9-.8c.6-.1,1.4.2,1.5.7a5.2,5.2,0,0,1-.5,2.5c-.8.9-3,2.1-4.1,1.9s-1.3-.8-1.1-1.1M186.1,46.7C179.5,37.4,149.4.1,93.5,0S7.4,37.1.7,46.5l-.7,1,.7,1c6.7,9.3,36.7,46.6,92.6,46.7s86.1-37.1,92.8-46.5l.7-1-.7-1"/></g></g></svg>