<svg xmlns="http://www.w3.org/2000/svg" viewBox="0 0 111.8 95.3"><defs><style>.cls-1{fill:#fff;}</style></defs><title>hunger_1</title><g id="Capa_2" data-name="Capa 2"><g id="Capa_1-2" data-name="Capa 1"><path class="cls-1" d="M37.9,90.9v2.9h0a1.4,1.4,0,0,0,1.3,1.3H73.5a1.4,1.4,0,0,0,1.3-1.4h0V90.6c19.3-6.3,33.7-21.9,36.9-40.9h0v-.2a1.4,1.4,0,0,0-1.4-1.4H1.4A1.4,1.4,0,0,0,0,49.3V50C3.4,69.1,18.2,84.8,37.9,90.9"/><path class="cls-1" d="M74.9,1.4c-.4.6-11,15.8.2,28.1,5.1,5.6,4.7,10.6,3.2,13.9h7.2c1.5-5,.9-11.2-5-17.5-8.3-9,.1-21.2.2-21.4a2.7,2.7,0,0,0-1.2-4,3.8,3.8,0,0,0-4.7,1"/><path class="cls-1" d="M56.6,43.4h7.2c1.5-5,.9-11.2-5-17.5-8.3-9,.1-21.2.2-21.4a2.7,2.7,0,0,0-1.2-4,3.8,3.8,0,0,0-4.7,1c-.5.6-11,15.8.2,28.1,5.1,5.6,4.7,10.6,3.2,13.9"/><path class="cls-1" d="M31.5,1.4c-.5.6-11,15.8.2,28.1,5.1,5.6,4.7,10.6,3.2,13.9h7.2c1.5-4.9.9-11.2-5-17.5-8.3-9,.1-21.2.2-21.4a2.7,2.7,0,0,0-1.2-4,3.8,3.8,0,0,0-4.7,1"/></g></g></svg>