<svg xmlns="http://www.w3.org/2000/svg" viewBox="0 0 97.3 95.3"><defs><style>.cls-1{fill:#fff;}</style></defs><title>part</title><g id="Capa_2" data-name="Capa 2"><g id="Capa_1-2" data-name="Capa 1"><path class="cls-1" d="M66,44.2a25.5,25.5,0,0,0,8.2-18.7,25.9,25.9,0,0,0-.2-3.3A20.4,20.4,0,0,1,85.5,57.6,25.6,25.6,0,0,0,66,44.2M83.3,69.6A20.4,20.4,0,0,1,52.9,87.3a25.4,25.4,0,0,0,6.5-22.4,25.5,25.5,0,0,0,23.5.6,20.2,20.2,0,0,1,.4,4.1M14,69.7a20.2,20.2,0,0,1,.4-4.2,25.5,25.5,0,0,0,23.4-.6,25.4,25.4,0,0,0,6.8,22.4A20.3,20.3,0,0,1,14,69.7M5.1,42.5A20.4,20.4,0,0,1,23.3,22.3a25.9,25.9,0,0,0-.2,3.3,25.5,25.5,0,0,0,8.3,18.9A25.6,25.6,0,0,0,11.9,57.6,20.3,20.3,0,0,1,5.1,42.5M48.7,5.1A20.4,20.4,0,0,1,67.3,17.4,25.6,25.6,0,0,0,48.7,31.7,25.6,25.6,0,0,0,30,17.4,20.4,20.4,0,0,1,48.7,5.1m4.9,46.4a20.3,20.3,0,0,1,27.7,9.1,20.3,20.3,0,0,1-27.7-9.1m-9.8.1a20.3,20.3,0,0,1-27.6,9,20.3,20.3,0,0,1,27.6-9M28.5,22.4A20.2,20.2,0,0,1,45.6,45.7,20.2,20.2,0,0,1,28.5,22.4M48.7,84.2a20.3,20.3,0,0,1-.2-29,20.3,20.3,0,0,1,.2,29M69,25.5A20.4,20.4,0,0,1,51.7,45.7,20.2,20.2,0,0,1,68.8,22.4a20.3,20.3,0,0,1,.3,3.1m28.3,17A25.6,25.6,0,0,0,72.7,17a25.5,25.5,0,0,0-48.1,0A25.5,25.5,0,0,0,9.9,62.7,25.5,25.5,0,0,0,48.8,90.8,25.5,25.5,0,0,0,87.5,62.6a25.5,25.5,0,0,0,9.8-20.1"/></g></g></svg>