<svg xmlns="http://www.w3.org/2000/svg" viewBox="0 0 221.7 94.9"><defs><style>.cls-1{fill:#fff;}.cls-2{fill:none;stroke:#fff;stroke-linecap:round;stroke-miterlimit:10;stroke-width:3.42px;}</style></defs><title>proverty_1</title><g id="Capa_2" data-name="Capa 2"><g id="Capa_1-2" data-name="Capa 1"><path class="cls-1" d="M194.6,8a8,8,0,1,1,8,8,8,8,0,0,1-8-8"/><path class="cls-1" d="M212,19.2a10.7,10.7,0,0,1,9.7,10.7V52.1a3.1,3.1,0,0,1-6.2,0V33c0-.7-.2-1.7-1.5-1.7s-1.1,1-1.1,1.6V90.2a4.5,4.5,0,0,1-9,0v-33a1.2,1.2,0,0,0-1.3-1.3h0a1.2,1.2,0,0,0-1.3,1.3v33a4.5,4.5,0,1,1-8.9,0V32.9c0-.6-.2-1.6-1.1-1.6s-1.5,1-1.5,1.7V52.1a3.1,3.1,0,0,1-6.2,0V29.8a10.7,10.7,0,0,1,9.7-10.7H212"/><path class="cls-1" d="M146.8,12.3a7.6,7.6,0,1,0-7.6,7.6,7.6,7.6,0,0,0,7.6-7.6"/><path class="cls-1" d="M123.9,29.5l-6.3,20.6s-1.1,3.8,2.1,4.7,4.2-2.7,4.2-2.7l5.1-17.2s.3-1.3,1.3-1,.6,1.7.6,1.7l-8.9,32.2h8.3V90.8a4,4,0,0,0,7.9,0V67.7h2.3V90.8a4,4,0,0,0,7.9,0V67.7h8.3l-8.9-32.2s-.4-1.4.6-1.7,1.3,1,1.3,1l5.1,17.2s1,3.7,4.2,2.7,2.1-4.7,2.1-4.7l-6.3-20.6s-2.3-6-7.3-6H131.1c-5,0-7.3,6-7.3,6"/><path class="cls-1" d="M101.2,12.3a7.6,7.6,0,1,0-7.6,7.6,7.6,7.6,0,0,0,7.6-7.6"/><path class="cls-1" d="M78.3,29.5,72,50.1s-1.1,3.8,2.1,4.7,4.2-2.7,4.2-2.7l5.1-17.2s.3-1.3,1.3-1,.6,1.7.6,1.7L76.3,67.7h8.3V90.8a4,4,0,0,0,7.9,0V67.7h2.3V90.8a4,4,0,0,0,7.9,0V67.7h8.3l-8.9-32.2s-.4-1.4.6-1.7,1.3,1,1.3,1L109,52.1s1,3.7,4.2,2.7,2.1-4.7,2.1-4.7l-6.3-20.6s-2.3-6-7.3-6H85.6c-5,0-7.3,6-7.3,6"/><path class="cls-1" d="M172.3,54.8a6.3,6.3,0,1,0-6.3-6.3,6.3,6.3,0,0,0,6.3,6.3"/><path class="cls-1" d="M157.2,74.5a2.2,2.2,0,0,0,.9,3,2.1,2.1,0,0,0,2.7-.9l3.4-11s.6-.7.6,0V91.5h0a3.2,3.2,0,1,0,6.5,0V81.3s-.2-1.4,1-1.4,1,1.4,1,1.4V91.5a3.3,3.3,0,0,0,6.5,0V65.7c0-.8.4-.2.4-.2l2.7,7.5s1.2,3.4,1.5,3.5a2.4,2.4,0,0,0,3.1-1.3,2.4,2.4,0,0,0-.3-2.3h0c-.1-.2-4-9.9-4.5-11.3-1.4-4.2-4-4.1-6.5-4.2h-8.9c-3.3.1-4.3,1.8-8,11.2-.5,1.3-2.3,5.7-2.3,6Z"/><path class="cls-1" d="M33.3,8a8,8,0,1,0-8,8,8,8,0,0,0,8-8"/><path class="cls-1" d="M15.9,19.2A10.7,10.7,0,0,0,6.1,29.8V52.1a3.1,3.1,0,0,0,6.2,0V33c0-.7.2-1.7,1.5-1.7s1.1,1,1.1,1.6V90.2a4.5,4.5,0,1,0,8.9,0v-33a1.2,1.2,0,0,1,1.3-1.3h0a1.2,1.2,0,0,1,1.3,1.3v33a4.5,4.5,0,1,0,8.9,0V32.9c0-.6.2-1.6,1.1-1.6s1.5,1,1.5,1.7V52.1a3.1,3.1,0,0,0,6.2,0V29.8a10.7,10.7,0,0,0-9.7-10.7H15.9"/><line class="cls-2" x1="8.8" y1="55.4" x2="1.7" y2="93.2"/><path class="cls-1" d="M48.2,51.5a2.3,2.3,0,0,0-4.3,1.2,4.2,4.2,0,0,0,.2,1l6.4,11.6a4.1,4.1,0,0,1,.4,1.5V91.6h0a3.1,3.1,0,1,0,6.2,0V81.8s-.2-1.4.9-1.4.9,1.4.9,1.4v9.8a3.1,3.1,0,0,0,6.3,0V66.8a4.1,4.1,0,0,1,.4-1.5l5.9-10.7a10.4,10.4,0,0,0,.7-1.9A2.3,2.3,0,0,0,68,51.5h0c-.2.2-3.1,5.4-4.1,6.4a2.6,2.6,0,0,1-2,.9H54.3a2.6,2.6,0,0,1-2-.9c-1-1-3.9-6.2-4.1-6.4Z"/><path class="cls-1" d="M58.1,54.8a6.3,6.3,0,1,0-6.3-6.3,6.3,6.3,0,0,0,6.3,6.3"/><polygon class="cls-1" points="58.1 63.7 65.3 68.9 68.7 81.5 58.1 81.5 47.5 81.5 50.9 68.9 58.1 63.7"/></g></g></svg>